<svg xmlns="http://www.w3.org/2000/svg" width="283" height="283" viewBox="0 0 283 283">
  <g id="Carregar_Foto" data-name="Carregar Foto" transform="translate(-399 -226)">
    <circle id="Elipse_4" data-name="Elipse 4" cx="141.5" cy="141.5" r="141.5" transform="translate(399 226)" fill="#808B96"/>
    <text id="Carregar_Foto-2" data-name="Carregar Foto" transform="translate(458 446.5)" fill="#fff" font-size="30" font-family="RobotoCondensed-Bold, Roboto" font-weight="700"><tspan x="0" y="0">Carregar Foto</tspan></text>
    <g id="Grupo_6" data-name="Grupo 6" transform="translate(-100.174 151.5)">
      <g id="Grupo_4" data-name="Grupo 4" transform="translate(608.853 129)">
        <path id="Caminho_80" data-name="Caminho 80" d="M647.321,191.642a31.321,31.321,0,1,1,31.321-31.321A31.356,31.356,0,0,1,647.321,191.642Zm0-55.094a23.774,23.774,0,1,0,23.774,23.774A23.8,23.8,0,0,0,647.321,136.547Z" transform="translate(-616 -129)" fill="#fff"/>
      </g>
      <g id="Grupo_5" data-name="Grupo 5" transform="translate(586.864 184.778)">
        <path id="Caminho_81" data-name="Caminho 81" d="M693.484,267.128H586.864l.1-3.875c.432-16.116,6.083-31.215,15.912-42.513,10-11.5,23.25-17.834,37.294-17.834s27.289,6.334,37.294,17.834c9.829,11.3,15.481,26.4,15.912,42.513Zm-98.755-7.547h90.889a59.174,59.174,0,0,0-13.845-33.887c-8.55-9.828-19.772-15.241-31.6-15.241s-23.05,5.413-31.6,15.241A59.174,59.174,0,0,0,594.73,259.581Z" transform="translate(-586.864 -202.906)" fill="#fff"/>
      </g>
    </g>
  </g>
</svg>
