<svg xmlns="http://www.w3.org/2000/svg" width="298.511" height="75.768" viewBox="0 0 298.511 75.768">
  <g id="Logo_Charisma" data-name="Logo Charisma" transform="translate(-156.007 200.6)">
    <path id="Caminho_39" data-name="Caminho 39" d="M252.967-181.967a16.373,16.373,0,0,1-13.652,7.35,16.374,16.374,0,0,1-13.655-7.35l-8.843,5.845a26.97,26.97,0,0,0,22.5,12.11,26.969,26.969,0,0,0,22.494-12.11Z" transform="translate(127.865 39.179)" fill="#e40048"/>
    <g id="Grupo_2" data-name="Grupo 2" transform="translate(156.007 -200.6)">
      <path id="Caminho_40" data-name="Caminho 40" d="M247.619-160.933H237.085v-17.313c0-5.265-.071-8.945-5.265-8.945-4.257,0-5.914,3.463-5.914,8.151v18.107H215.373V-195.27h10.388v4.257c1.66-2.814,5.265-5.122,10.028-5.122,5.337,0,8.874,2.091,10.676,6.205a12.606,12.606,0,0,1,11.036-6.205c3.968,0,6.782,1.083,8.8,3.32,2.163,2.451,3.028,4.831,3.028,12.408v19.475H258.8v-17.313c0-5.265,0-8.945-5.194-8.945-4.328,0-5.988,3.463-5.988,8.151Z" transform="translate(-31.18 209.987)" fill="#20243a"/>
      <path id="Caminho_41" data-name="Caminho 41" d="M200.764-151.547h-10.53V-168.86c0-5.265-.217-8.945-5.411-8.945-4.4,0-6.277,3.463-6.277,8.151v18.107H168.012V-200.6h10.534v18.756c1.66-2.668,5.265-4.905,10.171-4.905,3.968,0,7,1.083,9.019,3.32,2.163,2.451,3.028,4.831,3.028,12.408Z" transform="translate(-130.765 200.6)" fill="#20243a"/>
      <path id="Caminho_42" data-name="Caminho 42" d="M210.815-169.614c0,2.163.289,2.885,1.8,2.885h.506v6.06a26.993,26.993,0,0,1-4.905.431c-3.031,0-5.845-.577-6.565-3.1h-.071c-1.589,1.731-4.114,3.174-9.668,3.174-7.574,0-12.408-3.894-12.408-11.036,0-6.565,4.977-9.162,12.262-10.316l7.142-1.154c1.877-.289,2.166-.506,2.166-1.585v-.577c0-2.6-1.443-4.04-5.051-4.04-3.677,0-5.7,1.514-5.7,4.977l-9.736-.071c-.146-7.865,6.2-12.119,15.87-12.119,8.8,0,14.356,2.74,14.356,10.53Zm-9.814-7a23.825,23.825,0,0,1-5.119,1.371c-3.391.648-5.917,1.225-5.917,4.182,0,2.814,2.091,4.043,5.122,4.043,3.463,0,5.914-1.589,5.914-5.2Z" transform="translate(-106.596 210.086)" fill="#20243a"/>
      <path id="Caminho_43" data-name="Caminho 43" d="M201.945-195.319v4.688c.937-2.6,4.834-5.482,9.668-5.482a6.792,6.792,0,0,1,1.226.074v10.1a15.068,15.068,0,0,0-3.391-.434c-4.04,0-6.06,1.948-6.854,4.834a17.764,17.764,0,0,0-.5,4.617v15.941H191.557v-34.337Z" transform="translate(-81.257 210.035)" fill="#20243a"/>
      <path id="Caminho_44" data-name="Caminho 44" d="M210.237-161.517h-10.6v-34.34h10.6Z" transform="translate(-64.278 210.573)" fill="#20243a"/>
      <path id="Caminho_45" data-name="Caminho 45" d="M265.011-169.614c0,2.163.289,2.885,1.8,2.885h.506v6.06a26.993,26.993,0,0,1-4.905.431c-3.031,0-5.842-.577-6.565-3.1h-.071c-1.589,1.731-4.111,3.174-9.668,3.174-7.574,0-12.408-3.894-12.408-11.036,0-6.565,4.977-9.162,12.265-10.316l7.139-1.154c1.877-.289,2.166-.506,2.166-1.585v-.577c0-2.6-1.443-4.04-5.051-4.04-3.677,0-5.7,1.514-5.7,4.977l-9.739-.071c-.146-7.865,6.2-12.119,15.87-12.119,8.8,0,14.356,2.74,14.356,10.53Zm-9.811-7a23.958,23.958,0,0,1-5.123,1.371c-3.391.648-5.917,1.225-5.917,4.182,0,2.814,2.094,4.043,5.122,4.043,3.463,0,5.917-1.589,5.917-5.2Z" transform="translate(7.36 210.086)" fill="#20243a"/>
      <path id="Caminho_46" data-name="Caminho 46" d="M229.274-184.811a14.082,14.082,0,0,0-9.308-3.751c-2.38,0-4.471.794-4.471,2.526,0,1.8,1.586,2.308,5.123,3.031l5.408,1.154c5.557,1.154,10.6,3.388,10.6,9.953,0,8.008-7,11.831-15.147,11.831-7.865,0-14.5-3.463-17.6-7.716l6.637-5.34a13.78,13.78,0,0,0,10.968,5.265c3.534,0,5.337-1.154,5.337-3.028,0-1.949-2.091-2.308-4.4-2.743l-5.411-1.083a18.075,18.075,0,0,1-8.514-3.605,8.41,8.41,0,0,1-2.957-6.708c0-8.154,7.865-11.111,14.645-11.111a21.348,21.348,0,0,1,15,5.7Z" transform="translate(-55.348 209.987)" fill="#20243a"/>
      <rect id="Retângulo_12" data-name="Retângulo 12" width="10.605" height="10.605" transform="translate(135.355)" fill="#20243a"/>
      <path id="Caminho_47" data-name="Caminho 47" d="M189.984-169.444c-1.874,4.834-6.708,9.376-15.8,9.376-10.819,0-18.179-6.274-18.179-17.89s7.36-18.179,18.179-18.179c9.525,0,14.431,5.122,16.162,10.676l-9.091,3.1c-1.011-3.751-3.391-5.842-7.071-5.842-4.905,0-7.5,3.751-7.5,10.1s2.671,10.028,7.5,10.028a6.814,6.814,0,0,0,6.854-5.051Z" transform="translate(-156.007 209.987)" fill="#20243a"/>
      <g id="Grupo_1" data-name="Grupo 1" transform="translate(279.91 0)">
        <path id="Caminho_48" data-name="Caminho 48" d="M249.847-184.786v1.07h-3.624V-200.6h3.624v6.159a4.767,4.767,0,0,1,3.45-1.393c3.379,0,5.513,2.482,5.513,6.208,0,3.6-2.209,6.208-5.513,6.208A4.439,4.439,0,0,1,249.847-184.786Zm2.606-1.39c1.688,0,2.684-1.34,2.684-3.45,0-2.163-.921-3.478-2.684-3.478-1.613,0-2.706,1.418-2.706,3.478S250.84-186.176,252.453-186.176Z" transform="translate(-246.223 200.6)" fill="#20243a"/>
        <path id="Caminho_49" data-name="Caminho 49" d="M254.691-197.051h-3.649V-200.6h3.649Zm0,13.335h-3.649v-11.821h3.649Z" transform="translate(-236.09 200.6)" fill="#20243a"/>
      </g>
    </g>
  </g>
</svg>
