<svg xmlns="http://www.w3.org/2000/svg" width="136.766" height="159.726" viewBox="0 0 136.766 159.726">
  <g id="Grupo_6873" data-name="Grupo 6873" transform="translate(0)">
    <path id="Caminho_8840" data-name="Caminho 8840" d="M156.77,45.36l9.716-9.716a4.679,4.679,0,0,0-6.618-6.618l-9.785,9.785a65.974,65.974,0,0,0-29.449-14.447V9.359h9.656a4.679,4.679,0,1,0,0-9.359H80.021a4.679,4.679,0,1,0,0,9.359h9.71V24.364A65.982,65.982,0,0,0,60.079,38.981l-9.955-9.955a4.679,4.679,0,0,0-6.618,6.618l9.913,9.913A66.127,66.127,0,0,0,36.8,89.58v3.526a66.7,66.7,0,0,0,66.62,66.62h3.526a66.7,66.7,0,0,0,66.62-66.62V89.58a66.129,66.129,0,0,0-16.8-44.221Zm-57.68-36h12.185V23.1c-1.435-.091-2.878-.142-4.329-.142h-3.526c-1.451,0-2.894.051-4.329.142Zm10.772,140.934V137.632a4.679,4.679,0,0,0-9.359,0v12.661A57.342,57.342,0,0,1,46.232,96.023H59.118a4.679,4.679,0,1,0,0-9.359H46.232A57.342,57.342,0,0,1,100.5,32.393V45.208a4.679,4.679,0,1,0,9.359,0V32.393a57.342,57.342,0,0,1,54.271,54.271H151.539a4.679,4.679,0,1,0,0,9.359h12.593a57.342,57.342,0,0,1-54.271,54.271Z" transform="translate(-36.799)" fill="#502b82"/>
    <path id="Caminho_8841" data-name="Caminho 8841" d="M177.422,214.394h-.705a16.963,16.963,0,0,0-6.981,1.5l-10.36-10.36a4.679,4.679,0,1,0-6.618,6.618l9.8,9.8a16.968,16.968,0,0,0-2.9,9.514v.705a16.961,16.961,0,0,0,1.792,7.6l-18.8,18.895a4.679,4.679,0,0,0,6.635,6.6l18.482-18.577a16.963,16.963,0,0,0,8.957,2.548h.705a17.087,17.087,0,0,0,17.068-17.068v-.705a17.087,17.087,0,0,0-17.068-17.068Zm7.709,17.773a7.717,7.717,0,0,1-7.709,7.709h-.705a7.717,7.717,0,0,1-7.709-7.709v-.705a7.717,7.717,0,0,1,7.709-7.709h.705a7.717,7.717,0,0,1,7.709,7.709Z" transform="translate(-108.686 -140.471)" fill="#502b82"/>
  </g>
</svg>
