<svg xmlns="http://www.w3.org/2000/svg" width="49.159" height="43.375" viewBox="0 0 49.159 43.375">
  <g id="FAQ" transform="translate(0 -30.12)">
    <path id="Caminho_8572" data-name="Caminho 8572" d="M47.045,64.451A17.351,17.351,0,0,0,32.377,38.808,17.348,17.348,0,0,0,2.115,55.773L1.062,62.1a1.44,1.44,0,0,0,1.657,1.657L9.044,62.7a17.34,17.34,0,0,0,7.739,2.105,17.348,17.348,0,0,0,23.332,6.573l6.326,1.053A1.44,1.44,0,0,0,48.1,70.777ZM9.31,59.759a1.442,1.442,0,0,0-.236.019l-4.84.806.806-4.84a1.44,1.44,0,0,0-.178-.965,14.464,14.464,0,1,1,5.178,5.178,1.44,1.44,0,0,0-.729-.2Zm34.81,4.663.806,4.84-4.84-.806a1.439,1.439,0,0,0-.965.178A14.463,14.463,0,0,1,20.078,64.6a17.2,17.2,0,0,0,3.441-.92,1.432,1.432,0,0,0,.778.229H39.332a1.44,1.44,0,0,0,0-2.88H28.154a17.5,17.5,0,0,0,3.279-3.445h7.9a1.44,1.44,0,0,0,0-2.88H33.114a17.207,17.207,0,0,0,1.165-3.445h5.053a1.44,1.44,0,1,0,0-2.88H34.674q.024-.453.024-.912a17.273,17.273,0,0,0-.949-5.661A14.471,14.471,0,0,1,44.3,63.456a1.441,1.441,0,0,0-.178.965Z" transform="translate(0 0)" fill="#df0d47"/>
    <path id="Caminho_8573" data-name="Caminho 8573" d="M130.833,116.035a2.183,2.183,0,1,1,2.183,2.183,1.44,1.44,0,0,0-1.44,1.44V123.9a1.44,1.44,0,1,0,2.88,0V120.89a5.064,5.064,0,1,0-6.5-4.855,1.44,1.44,0,1,0,2.88,0Z" transform="translate(-115.668 -73.089)" fill="#df0d47"/>
    <path id="Caminho_8574" data-name="Caminho 8574" d="M167.119,280.649a1.44,1.44,0,1,0,1.44,1.44A1.456,1.456,0,0,0,167.119,280.649Z" transform="translate(-149.77 -226.475)" fill="#df0d47"/>
  </g>
</svg>
