<svg xmlns="http://www.w3.org/2000/svg" width="982.307" height="719.616" viewBox="0 0 982.307 719.616">
  <g id="Ilustração" transform="translate(-48.847 -186.747)">
    <path id="Caminho_78" data-name="Caminho 78" d="M1304.588,693.241c-64.1,96.547-173.669,160.426-298.056,160.426S772.521,789.788,708.413,693.241L515.376,820.889c105.535,159.068,286.279,264.264,491.156,264.264,204.826,0,385.5-105.2,491.15-264.264Z" transform="translate(-466.529 -414.232)" fill="#df0047"/>
    <g id="Grupo_3" data-name="Grupo 3" transform="translate(633.691 160.185)">
      <path id="Caminho_52" data-name="Caminho 52" d="M-13.334,665.6-181.767,568.37c-14.347-8.2-25.845-30.334-25.845-49.354V49.195c0-19.02,11.58-27.772,25.845-19.532l168.433,97.416c14.347,8.2,25.845,30.334,25.845,49.353v469.76C12.511,665.109.931,673.841-13.334,665.6Z" transform="translate(82.419 0)" fill="#9fa6b9"/>
      <path id="Caminho_53" data-name="Caminho 53" d="M-111.412,357.168l13.343-6.743-12.789-21.93Z" transform="translate(183.387 316.897)" fill="#9fa6b9"/>
      <path id="Caminho_54" data-name="Caminho 54" d="M-208.862,33.7l12.277-6.436-2.48,18.1Z" transform="translate(81.107 0.737)" fill="#9fa6b9"/>
      <path id="Caminho_55" data-name="Caminho 55" d="M-18.535,668.179l-168.413-97.231c-14.347-8.2-25.825-30.334-25.825-49.354V51.855c0-19.02,11.56-27.772,25.825-19.532l168.413,97.231c14.347,8.2,25.825,30.334,25.825,49.353v469.76C7.187,667.687-4.372,676.419-18.535,668.179Z" transform="translate(77.003 2.792)" fill="#4c5c72"/>
      <path id="Caminho_56" data-name="Caminho 56" d="M6.36,179.5V649.216c0,19.041-11.56,27.772-25.825,19.553L-85.5,630.627-106,618.78l-81.88-47.242c-14.347-8.2-25.824-30.334-25.824-49.374V52.445c0-18.958,11.56-27.772,25.824-19.553l168.413,97.231C-5.261,138.362,6.36,160.559,6.36,179.5Z" transform="translate(76.027 3.411)" fill="#171b22"/>
      <path id="Caminho_57" data-name="Caminho 57" d="M-11.956,165.014v457.5c0,11.518-8.1,16.212-18.077,10.432l-52.653-30.4-4.591-2.685-1.558-.9-11.375-6.579-32.937-18.979h0l-13.671-7.891-5.493-3.177L-189.755,540.8c-9.981-5.759-18.057-19.8-18.057-31.317V51.98c0-11.539,8.075-16.212,18.057-10.453l65.75,37.978v.184a31.173,31.173,0,0,0,14.183,24.369c7.788,4.448,14.1.84,14.1-8.2v-.2l65.75,37.978C-20.051,139.456-11.956,153.475-11.956,165.014Z" transform="translate(82.209 13.119)" fill="#fff"/>
      <ellipse id="Elipse_1" data-name="Elipse 1" cx="4.381" cy="7.568" rx="4.381" ry="7.568" transform="translate(-32.69 101.85) rotate(-29.887)" fill="#1f2431"/>
      <path id="Caminho_58" data-name="Caminho 58" d="M-158.847,69.389a4.986,4.986,0,0,1-2.255-3.956c0-1.435,1-2.05,2.234-1.291a4.916,4.916,0,0,1,2.234,3.874C-156.634,69.533-157.638,70.107-158.847,69.389Z" transform="translate(131.234 39.099)" fill="#fff" opacity="0.1" style="isolation: isolate"/>
      <path id="Caminho_59" data-name="Caminho 59" d="M-101.722,146.8h0c-1.373.8-2.5,0-2.5-1.886V124.893a6,6,0,0,1,2.5-4.755h0c1.373-.779,2.48,0,2.48,1.886v20.024A5.948,5.948,0,0,1-101.722,146.8Z" transform="translate(190.933 97.9)" fill="#606876"/>
      <path id="Caminho_60" data-name="Caminho 60" d="M-101.722,162.813h0c-1.373.8-2.5,0-2.5-1.865V140.9a6,6,0,0,1,2.5-4.755h0c1.373-.779,2.48,0,2.48,1.886v20.024A5.925,5.925,0,0,1-101.722,162.813Z" transform="translate(190.933 114.703)" fill="#606876"/>
      <path id="Caminho_61" data-name="Caminho 61" d="M-72.665,264.046a17.992,17.992,0,0,1,8.2,14.1V292.1c0,5.185-3.689,7.276-8.2,4.653l-111.578-64.4a18,18,0,0,1-8.2-14.1V204.3c0-5.185,3.71-7.276,8.2-4.673Z" transform="translate(98.341 180.469)" fill="#cacfdc"/>
      <g id="Men_2" data-name="Men 2" transform="translate(-282.312 254.488)">
        <path id="Caminho_62" data-name="Caminho 62" d="M-275.521,192.825c-.922,8.034-10.514,42.713-8.465,54.58s34.843,31.768,34.843,31.768l4.55-20.352-18.159-17.77,4.919-33.674Z" transform="translate(284.272 -79.985)" fill="#fec298"/>
        <path id="Caminho_63" data-name="Caminho 63" d="M-253.063,176.824a14.346,14.346,0,0,0-18.241,5.513c-4.816,7.993-9.817,35.376-10.248,40.048,0,0,6.764,9.346,16.909,7.788Z" transform="translate(287.126 -98.17)" fill="#e8e9e9"/>
        <path id="Caminho_64" data-name="Caminho 64" d="M-247.81,369.04a28.067,28.067,0,0,0,21.295-2.562c5.124.164,32.793-11.7,36.605-1.742,3.3,8.731-8.711,16.806-15.126,18.446-14,3.382-24.349,10.371-29.985,11.56-4.1.881-9.612,1.455-12.953-1.824C-252.073,388.88-251.724,374.246-247.81,369.04Z" transform="translate(319.298 96.264)" fill="#1a1818"/>
        <path id="Caminho_65" data-name="Caminho 65" d="M-235.635,389.308c5.636-1.189,15.987-8.2,29.985-11.56,5.39-1.312,14.654-7.194,15.577-14.2,1.25,8.034-9.592,15.167-15.577,16.622-14,3.382-24.349,10.371-29.985,11.56-4.1.881-9.612,1.455-12.953-1.824a8.317,8.317,0,0,1-1.824-3.361A16.731,16.731,0,0,0-235.635,389.308Z" transform="translate(319.81 99.197)" fill="#f1f1f2"/>
        <path id="Caminho_66" data-name="Caminho 66" d="M-269.741,359.195a28.061,28.061,0,0,0,21.172-2.562c5.124.164,32.793-11.723,36.605-1.742,3.3,8.731-8.69,16.806-15.105,18.446-14.019,3.382-24.369,10.371-30.006,11.56-4.1.881-9.612,1.455-12.953-1.845C-274,378.994-273.655,364.4-269.741,359.195Z" transform="translate(296.262 85.921)" fill="#1a1818"/>
        <path id="Caminho_67" data-name="Caminho 67" d="M-257.575,379.458c5.636-1.189,15.987-8.2,30.006-11.56,5.37-1.312,14.634-7.194,15.556-14.2,1.25,8.034-9.571,15.167-15.556,16.622-14.019,3.382-24.369,10.371-30.006,11.56-4.1.881-9.613,1.455-12.953-1.845a8.1,8.1,0,0,1-1.824-3.341A16.731,16.731,0,0,0-257.575,379.458Z" transform="translate(296.782 88.859)" fill="#f1f1f2"/>
        <path id="Caminho_68" data-name="Caminho 68" d="M-270.293,398.55a168.634,168.634,0,0,1,6.395-30.375s-1.906-26.193-2.849-51.034c-1.086-28.2-10.883-53.022-3.156-75.506l86.922,19.348s-5.267,112.4-6.415,126.007a254.585,254.585,0,0,1-3.915,31.563c-3.976,21.807-10.412,73.784-10.412,73.784-9.2,5.329-21.274,2.378-21.274,2.378s.656-65.586,1.25-81.368c.717-19.184,1.312-17.729,1.312-17.729l-2.869-47.816-1.886-23.8s-2.418,17.462-3.976,33.059c-1.373,13.589-4.653,25.906-8.321,51.239-3.177,21.971-8.342,66.078-8.342,66.078-9.2,5.349-21.684.922-21.684.922S-272.773,417.59-270.293,398.55Z" transform="translate(296.261 -28.756)" fill="#20243a"/>
        <path id="Caminho_69" data-name="Caminho 69" d="M-263.5,214.561c6.62.307,11.56,2.05,12.3,0a84.374,84.374,0,0,0,1.517-10.35c-.758-1.927-1.414-4-1.414-4-8.321-5.1-10.945-14.1-12.051-24.595-1.865-17.893,7.809-33.551,25.7-35.437,16.827-1.742,29.206,10.084,32.506,26.316,1.783,8.014,5.329,23.16.533,36.339-2.664,7.378-6.149,13.22-9.571,14.347a84.876,84.876,0,0,1-9.961-.881h0s-.9,4.96-1.517,8.2-.369,4.878,5.985,8.793-9.612,11.949-20.024,11.17-22.053-6.907-25.23-13.753C-268.36,223.21-268.053,214.335-263.5,214.561Z" transform="translate(302.178 -135.416)" fill="#fec298"/>
        <path id="Caminho_70" data-name="Caminho 70" d="M-242.985,177.688c-1.845,4.591,2.828,10.248,15.269,14.1s13.548-1.127,13.548-1.127,18.241,8.2,24.185,12.461c7.481,5.226,10.781,20.332,11.785,45.828,1.168,29.514,1.271,73.292.287,80.855,0,0-13.958,13.9-31.809,12.441s-47.919-17.278-55.195-29.473c.184-25.886,3.218-30.088-.963-45.09-9.592-34.125-14.654-48.1-9.981-70.771,3.833-18.692,9.223-21.008,16.6-20.844A153.6,153.6,0,0,1-242.985,177.688Z" transform="translate(291.251 -97.579)" fill="#f1f1f2"/>
        <path id="Caminho_71" data-name="Caminho 71" d="M-140.264,234.076c-14.736-3.423-33.9-5.124-40.438-9.551-15.823-10.719-28.837-21.52-38.429-27.054-11.314-6.538-15.823-5.144-21.93-2.951-7.173,2.6-7.727,11.109,4.53,21.336,14.511,12.072,25.988,19.409,45.89,31.256,5.206,3.095,63.086,8.506,78.416,9.1,4.1.164,7.214.451,15.126.758s17.073-1.23,22.894-4.345,7.44-5.165,7.317-6.62c-.143-1.824-1.824-2.3-4.653-1.168a40.165,40.165,0,0,1-13.835,3.853s6.313-2.05,9.961-3.751a39.8,39.8,0,0,0,9.08-5.534c2.623-2.214,2.152-7.276-.717-6.149s-4.816,2.664-10.248,4.98a39.685,39.685,0,0,1-9,2.644,73.893,73.893,0,0,0,10.248-6.149,16.622,16.622,0,0,0,6.149-7.05c.676-1.517-.512-4.345-3.894-2.541-3.054,1.6-6.149,4.919-12.5,7.091-4.571,1.558-8.014,2.05-7.645,1.127s3.115-1.619,6.026-4.653,3.792-7.419,2.05-8.854-1.455-1.127-4.775,1.414-7.071,3.771-11.457,7.727a25.051,25.051,0,0,1-10.1,6.477C-117.247,237.192-126.265,237.315-140.264,234.076Z" transform="translate(324.273 -80.122)" fill="#fec298"/>
        <path id="Caminho_72" data-name="Caminho 72" d="M-244.887,193.268c6.948-7.071,15.126-7.706,27.505,1.517s22.135,17.114,22.135,17.114a26.639,26.639,0,0,1-6.518,18.59c-7.645,9.305-14.347,7.378-14.347,7.378s-11.97-10.432-19.963-17.667S-253.475,201.979-244.887,193.268Z" transform="translate(322.032 -85.142)" fill="#e8e9e9"/>
        <path id="Caminho_73" data-name="Caminho 73" d="M-206.492,166.557s15.474-23.508-18.036-28.3c-24.164-3.443-39.7,12.072-41.483,28.94-1.722,16.089,8.2,32.793,15.351,39.434,3.484,1.25,11.006,2.05,20.885-2.521a120.369,120.369,0,0,0,.451-13.179S-241.088,166.126-206.492,166.557Z" transform="translate(303.231 -137.769)" fill="#1a1818"/>
      </g>
      <path id="Caminho_74" data-name="Caminho 74" d="M-64.95,209.4a7.849,7.849,0,0,1,3.525,6.149l-.287,102.335c0,9.018-6.436,12.687-14.347,8.2l-99.67-57.634a31.4,31.4,0,0,1-14.2-24.595l.287-102.335c0-2.255,1.619-3.177,3.566-2.05l10.7,6.149v-16.4c0-31.6,22.545-44.394,50.03-28.509s49.8,54.5,49.7,86.082v16.4Zm-32.076-18.446v-16.4c0-18.077-12.687-40.13-28.386-49.19S-153.962,123.6-154,141.661v16.4l57,32.793m-18.057,75.219-2.193-24.595c3.669-.943,5.862-4.509,5.862-9.8a31.3,31.3,0,0,0-14.2-24.595c-7.85-4.53-14.347-.881-14.347,8.2a29.732,29.732,0,0,0,5.8,16.519l-2.316,21.93a6.749,6.749,0,0,0,.861,3.689,7.676,7.676,0,0,0,2.664,2.91l14.347,8.2a2.485,2.485,0,0,0,2.664.164,2.854,2.854,0,0,0,.9-2.664" transform="translate(100.975 70.659)" fill="#cacfdc"/>
      <path id="Caminho_75" data-name="Caminho 75" d="M-69.661,295.206a11.388,11.388,0,0,1,5.288,8.936v14.347c0,3.279-2.357,4.612-5.206,2.972l-117.768-67.943a11.457,11.457,0,0,1-5.185-8.957V230.214c0-3.3,2.357-4.612,5.206-2.951Z" transform="translate(98.246 209.894)" fill="#cacfdc"/>
    </g>
  </g>
</svg>
