<svg xmlns="http://www.w3.org/2000/svg" width="298.511" height="456.748" viewBox="0 0 298.511 456.748">
  <g id="Logo_Go_Op" data-name="Logo Go Op" transform="translate(-461.422 -311.626)">
    <path id="Caminho_6" data-name="Caminho 6" d="M503.46,453.736c2.266,11.89,7.927,21.232,29.442,21.232,22.363,0,30.573-9.626,30.573-31.989v-1.416c0-3.114,0-5.1.283-8.492h-.283c-4.247,5.661-17.552,15-39.915,15-37.368,0-62-27.742-62-68.506,0-37.368,23.78-67.941,63.129-67.941,18.118,0,31.422,6.51,39.066,15.287v-11.89H604.24V437.316c0,49.824-18.968,68.507-72.188,68.507-49.824,0-65.676-21.8-67.091-49.257Zm30.29-110.688c-18.4,0-30.573,14.438-30.573,37.084,0,22.931,11.323,37.37,30.573,37.37,18.118,0,30.574-14.723,30.574-37.37S551.584,343.048,533.75,343.048Z" fill="#fff"/>
    <path id="Caminho_7" data-name="Caminho 7" d="M688.027,312.068c42.181,0,71.623,25.761,71.623,71.338s-29.442,70.206-71.623,70.206-71.337-24.629-71.337-70.206S645.849,312.068,688.027,312.068Zm0,110.122c19.252,0,29.724-14.439,29.724-39.351,0-25.194-10.472-39.631-29.724-39.631s-29.439,14.72-29.439,39.631S668.777,422.19,688.027,422.19Z" fill="#fff"/>
    <path id="Caminho_8" data-name="Caminho 8" d="M532.76,517.99c42.18,0,71.621,25.76,71.621,71.338s-29.441,70.205-71.621,70.205-71.338-24.628-71.338-70.205S490.58,517.99,532.76,517.99Zm0,110.121c19.25,0,29.724-14.438,29.724-39.35,0-25.194-10.474-39.632-29.724-39.632s-29.441,14.723-29.441,39.632S513.51,628.111,532.76,628.111Z" fill="#fff"/>
    <path id="Caminho_9" data-name="Caminho 9" d="M657.738,591.753v65.958h-41.33V469.176h41.33v12.456c6.51-7.643,20.947-15.853,39.348-15.853,38.5,0,62.847,28.592,62.847,70.771,0,41.048-25.2,70.772-62.847,70.772C680.384,607.322,666.513,601.944,657.738,591.753ZM687.462,575.9c19.25,0,30.574-15.287,30.574-39.35,0-24.91-10.191-39.632-30.574-39.632-18.4,0-30.857,15.852-30.857,39.632S669.061,575.9,687.462,575.9Z" fill="#fff"/>
    <path id="Caminho_10" data-name="Caminho 10" d="M666.675,693.241a68.469,68.469,0,0,1-114.292,0l-37.007,24.471a112.831,112.831,0,0,0,188.317,0Z" fill="#fff"/>
  </g>
</svg>
