<svg xmlns="http://www.w3.org/2000/svg" width="40.73" height="45.842" viewBox="0 0 40.73 45.842">
  <g id="Minha_conta" data-name="Minha conta" transform="translate(-586.864 -129)">
    <g id="Grupo_4" data-name="Grupo 4" transform="translate(595.264 129)">
      <path id="Caminho_80" data-name="Caminho 80" d="M627.965,152.93a11.965,11.965,0,1,1,11.965-11.965A11.979,11.979,0,0,1,627.965,152.93Zm0-21.047a9.082,9.082,0,1,0,9.082,9.082A9.092,9.092,0,0,0,627.965,131.883Z" transform="translate(-616 -129)" fill="#df0d47"/>
    </g>
    <g id="Grupo_5" data-name="Grupo 5" transform="translate(586.864 150.308)">
      <path id="Caminho_81" data-name="Caminho 81" d="M627.594,227.44h-40.73l.04-1.48a25.755,25.755,0,0,1,6.079-16.241,18.3,18.3,0,0,1,28.493,0,25.755,25.755,0,0,1,6.079,16.241Zm-37.726-2.883H624.59a22.605,22.605,0,0,0-5.289-12.945,15.426,15.426,0,0,0-24.143,0A22.605,22.605,0,0,0,589.869,224.557Z" transform="translate(-586.864 -202.906)" fill="#df0d47"/>
    </g>
  </g>
</svg>
