<svg xmlns="http://www.w3.org/2000/svg" width="49.609" height="49.445" viewBox="0 0 49.609 49.445">
  <g id="Grupo_6852" data-name="Grupo 6852" transform="translate(0 -0.85)">
    <g id="Grupo_6849" data-name="Grupo 6849" transform="translate(0 0.85)">
      <g id="Grupo_6848" data-name="Grupo 6848">
        <path id="Caminho_8570" data-name="Caminho 8570" d="M24.722,46.174H6.181a2.061,2.061,0,0,1-2.06-2.06V7.031a2.061,2.061,0,0,1,2.06-2.06H24.722a2.06,2.06,0,0,0,0-4.12H6.181A6.188,6.188,0,0,0,0,7.031V44.114a6.188,6.188,0,0,0,6.181,6.181H24.722a2.06,2.06,0,1,0,0-4.12Z" transform="translate(0 -0.85)" fill="#df0d47"/>
      </g>
    </g>
    <g id="Grupo_6851" data-name="Grupo 6851" transform="translate(16.482 11.151)">
      <g id="Grupo_6850" data-name="Grupo 6850">
        <path id="Caminho_8571" data-name="Caminho 8571" d="M202.614,120.119l-12.526-12.361a2.06,2.06,0,1,0-2.892,2.934l8.951,8.834H172.16a2.06,2.06,0,0,0,0,4.12h23.987L187.2,132.48a2.06,2.06,0,1,0,2.892,2.934l12.526-12.361a2.059,2.059,0,0,0,0-2.934Z" transform="translate(-170.1 -107.165)" fill="#df0d47"/>
      </g>
    </g>
  </g>
</svg>
