<svg xmlns="http://www.w3.org/2000/svg" width="982.307" height="511.32" viewBox="0 0 982.307 511.32">
  <g id="Ilustração" transform="translate(-48.847 -279.008)">
    <g id="Ilustração-2" data-name="Ilustração">
      <path id="Caminho_78" data-name="Caminho 78" d="M1304.588,693.241c-64.1,96.547-173.669,160.426-298.056,160.426S772.521,789.788,708.413,693.241L515.376,820.889c105.535,159.068,286.279,264.264,491.156,264.264,204.826,0,385.5-105.2,491.15-264.264Z" transform="translate(-466.529 -414.232)" fill="#df0047"/>
    </g>
    <g id="Grupo_7" data-name="Grupo 7" transform="translate(4.476 109.53)">
      <path id="Caminho_82" data-name="Caminho 82" d="M683.252,334.513a13.8,13.8,0,0,1-.29,2.508,20.628,20.628,0,0,1-.5,2.033c-.211.792-.4,1.584-.687,2.376s-.528,1.294-.819,1.954-.713,1.663-1.162,2.482-.713,1.188-1.056,1.769-1.188,1.875-1.875,2.773-1.347,1.769-2.112,2.641c-.185.185-.343.4-.528.607-1.03,1.135-2.165,2.218-3.354,3.3-.766.687-1.611,1.347-2.456,2.033s-1.426,1.188-2.218,1.743-1.9,1.294-2.878,1.928-1.954,1.32-3.036,1.928a80.206,80.206,0,0,1-7.526,3.829l-2.271.951q-3.038,1.319-6.258,2.376c-.766.264-1.531.555-2.3.792-1.347.422-2.641.792-4.119,1.188s-2.06.581-3.142.845-2.931.634-4.41.924c-1,.211-1.98.449-3.01.607-2.984.528-6.02.951-9.057,1.268l-2.852.238c-1.8.158-3.591.29-5.281.37H598.57a27.1,27.1,0,0,1-4.04-.211l-3.7-.29-3.961-.449-3.565-.5-4.251-.739-3.3-.66c-1.663-.37-3.3-.792-4.938-1.215l-2.641-.739c-2.931-.871-5.783-1.822-8.555-2.9-1.373-.528-2.641-1.109-4.014-1.69-.687-.317-1.4-.581-2.06-.9-2.007-.977-3.987-1.981-5.862-3.063L411.7,286.111c-15.711-9.083-23.554-20.992-23.527-32.9l-.581,212.8c0,11.909,7.922,23.765,23.527,32.875l135.751,78.556c1.9,1.083,3.855,2.086,5.862,3.037.66.317,1.4.607,2.086.9,1.188.528,2.35,1.083,3.565,1.558l.422.159c2.773,1.083,5.625,2.033,8.556,2.878l.686.238,2.06.5c1.637.423,3.274.845,4.938,1.215a7.984,7.984,0,0,1,1.32.317l2.007.343c1.4.264,2.8.528,4.225.739l1.69.29a15.684,15.684,0,0,1,1.875.211c1.32.185,2.641.317,3.987.449l1.875.211h1.8l4.04.211h11.486c1.822,0,3.591-.211,5.281-.343l2.192-.158h.66c3.063-.317,6.073-.739,9.083-1.268h.423c.871-.158,1.69-.4,2.641-.554q2.218-.424,4.436-.951l3.116-.845c1.373-.37,2.772-.739,4.119-1.162l.871-.264c.5-.158.924-.37,1.426-.528q3.2-1.109,6.258-2.376l2.3-.977a80.135,80.135,0,0,0,7.526-3.8l.951-.581c.739-.449,1.373-.924,2.06-1.373s1.98-1.241,2.878-1.9,1.505-1.188,2.218-1.769,1.69-1.32,2.456-2.033l.5-.4c1-.951,1.954-1.9,2.852-2.878l.528-.634c.528-.607,1.083-1.188,1.558-1.8s.343-.555.554-.819c.687-.924,1.294-1.848,1.875-2.8.238-.37.555-.766.766-1.162a4.391,4.391,0,0,0,.29-.607,23.348,23.348,0,0,0,1.162-2.482c.211-.475.5-.951.686-1.426s0-.343,0-.5c.291-.792.475-1.611.687-2.4a16.277,16.277,0,0,0,.475-1.611v-.422c0-.845.211-1.664.264-2.509s.185-1.083.211-1.637v-.713l.607-212.776Q683.308,333.374,683.252,334.513Z" transform="translate(0 90.099)" fill="#d5d7e2"/>
      <path id="Caminho_83" data-name="Caminho 83" d="M659.7,327.89c31.211,18.035,31.4,47.292.343,65.327s-81.566,18.061-112.8,0l-135.988-78.5c-31.211-18.035-31.4-47.292-.317-65.354s81.54-18.035,112.778,0Z" transform="translate(0.236 61.576)" fill="#e9eaf4"/>
      <path id="Caminho_84" data-name="Caminho 84" d="M413.85,390.041l18.484-50.17a44.539,44.539,0,0,1-9.057-24.98c0-10.3,5.756-15.843,13.731-14.5a19.6,19.6,0,0,1,7.1,2.641c11.46,6.628,20.755,22.63,20.7,35.832,0,8.212-3.67,13.335-9.189,14.444L469.46,407.6l4.33,17.111Z" transform="translate(43.081 167.179)" fill="#3a4151"/>
      <path id="Caminho_85" data-name="Caminho 85" d="M418.61,382.576l18.484-50.17a44.17,44.17,0,0,1-9.057-24.98,21.211,21.211,0,0,1,1.162-7.156,19.6,19.6,0,0,1,7.1,2.641c11.46,6.628,20.755,22.63,20.7,35.832,0,8.212-3.67,13.335-9.189,14.444l13.836,54.29Z" transform="translate(50.89 167.303)" fill="#323944"/>
      <path id="Caminho_86" data-name="Caminho 86" d="M446.178,212.53a25.4,25.4,0,0,0-3.565,2.641l-.581.528a19.4,19.4,0,0,0-2.641,3.3l-.713,1.162-.158.29a4.252,4.252,0,0,0-.37.66,18.151,18.151,0,0,0-1.083,2.429v.158a25.688,25.688,0,0,0-1.4,6.126v.238a24.853,24.853,0,0,0-.211,3.486l-.185,71.295v25.693a42.267,42.267,0,0,1-19.672,4.489V245.062a33.7,33.7,0,0,1,.5-5.572,4.787,4.787,0,0,1,.238-1.162,12.74,12.74,0,0,1,.4-1.532v-.238a14.244,14.244,0,0,1,.5-1.373.366.366,0,0,1,0-.238c.159-.37.29-.713.449-1.056a4,4,0,0,1,.343-.871,1.942,1.942,0,0,0,.238-.4,14.08,14.08,0,0,1,1.162-2.033h.132a20.289,20.289,0,0,1,1.268-1.69c.475-.528.951-1.056,1.452-1.558a1.823,1.823,0,0,1,.581-.528,18.627,18.627,0,0,1,1.69-1.4,8.757,8.757,0,0,1,1.637-1.056,4.511,4.511,0,0,1,.528-.4Z" transform="translate(45.952 23.361)" fill="#323944"/>
      <path id="Caminho_87" data-name="Caminho 87" d="M595.258,344.154v2.429l-.185,70.582v25.957a42.748,42.748,0,0,1-19.434,4.357H575.4V412.755l.132-54.712a74.163,74.163,0,0,0-.475-8.661c-.158-1.4-.343-2.852-.581-4.3v-.634c-.185-1.109-.37-2.271-.634-3.38a1.438,1.438,0,0,0,0-.475c-.581-2.8-1.268-5.651-2.086-8.5a4.152,4.152,0,0,0-.343-1.109c-.37-1.267-.766-2.482-1.188-3.723s-.977-2.9-1.505-4.357-1.03-2.641-1.558-3.961c-.66-1.743-1.452-3.485-2.218-5.281a2.583,2.583,0,0,1-.238-.581.313.313,0,0,0-.159-.238c-1.4-3.089-2.931-6.232-4.621-9.321-.634-1.268-1.32-2.482-2.033-3.723-.924-1.664-1.848-3.3-2.852-4.938s-2.244-3.433-3.353-5.123c-.528-.871-1.056-1.743-1.637-2.641h0l-.581-.871a2.406,2.406,0,0,0-.343-.423,205.09,205.09,0,0,0-12.939-17.032c-.291-.37-.634-.713-.924-1.056-2.139-2.641-4.3-4.991-6.575-7.341a9.253,9.253,0,0,0-1-1.056c-1.162-1.215-2.324-2.429-3.538-3.644s-2.8-2.8-4.251-4.146c-2.192-2.033-4.357-4.066-6.628-6.047q-5.862-5.07-12.041-9.612l-2.4-1.743a162.79,162.79,0,0,0-13.784-8.9c-1.611-.924-3.142-1.743-4.7-2.641s-3.486-1.8-5.281-2.641c-1.188-.581-2.4-1.109-3.565-1.637l-1.505-.687-1.8-.713a77.732,77.732,0,0,0-9.559-3.485,2.484,2.484,0,0,0-.37-.053l-1.162-.29c-.528-.211-1.056-.29-1.531-.449s-1.32-.4-1.928-.528h-.159l-1.294-.29c-1.162-.29-2.245-.528-3.354-.713-.607-.158-1.294-.238-1.928-.343a.755.755,0,0,0-.343,0l-2.35-.4h-.555a41.979,41.979,0,0,0-4.383-.4,24.786,24.786,0,0,0-2.8-.158h-1.4a37.953,37.953,0,0,0-4.278.211h-1.347a10.514,10.514,0,0,0-1.347.158,8.179,8.179,0,0,0-1.215.185h-.132c-.343,0-.686.158-1.03.185h0c-.819.158-1.637.29-2.456.528a1.244,1.244,0,0,0-.4,0,1.509,1.509,0,0,0-.66.158,10.854,10.854,0,0,0-1.743.528,10.372,10.372,0,0,0-1.347.37h-.211a24.737,24.737,0,0,0-2.852,1.162l-.343.132h0a18.887,18.887,0,0,0-1.8.924,6.83,6.83,0,0,0-1.162.581l19.725-11.46a38,38,0,0,1,6.205-2.852.405.405,0,0,1,.238,0h0a39.664,39.664,0,0,1,5.281-1.452L444.8,199h.66c1.215-.238,2.482-.37,3.723-.528h1.083c1.479,0,2.984-.185,4.568-.185h4.674c.634,0,1.294.158,1.928.185l2.482.264h.238a22.376,22.376,0,0,1,2.508.4,11.263,11.263,0,0,1,1.822.343h.211c1.452.29,2.931.634,4.489,1h0c1.452.343,2.931.766,4.383,1.215a.4.4,0,0,1,.238,0,11.171,11.171,0,0,1,1.505.5c.977.29,1.9.581,2.8.924a2.059,2.059,0,0,1,.528.185,14,14,0,0,1,1.848.687c.713.29,1.452.528,2.218.819a6.161,6.161,0,0,0,.871.37l1.98.871c.581.238,1.162.449,1.743.739a10.285,10.285,0,0,1,1.32.634,18.406,18.406,0,0,1,2.06.951c.449.185.871.4,1.32.634s1.215.581,1.769.871,1.373.713,2.033,1.109a5.571,5.571,0,0,1,.977.475l3.776,2.086c.37.238.766.422,1.109.687,1.69.951,3.327,1.98,4.964,3.037.845.475,1.664,1.056,2.482,1.584a14.052,14.052,0,0,0,1.241.845l1.267.845c1.69,1.162,3.327,2.324,4.991,3.538l1.532,1.215c.475.343.977.66,1.452,1.056s1.347,1.03,2.033,1.611c1.743,1.294,3.38,2.641,5.07,4.093l.528.475a9.373,9.373,0,0,1,.924.845c1.162.951,2.324,1.928,3.485,2.984s2.508,2.271,3.723,3.485a3.753,3.753,0,0,1,.66.634.963.963,0,0,1,.343.29q2.325,2.19,4.515,4.436l2.3,2.429c.343.317.687.713,1.03,1.056s.581.581.871.924c1.294,1.4,2.641,2.9,3.908,4.33.634.687,1.215,1.426,1.8,2.086l.871,1.056c.343.4.713.792,1,1.162,1.32,1.558,2.508,3.063,3.723,4.595.449.581.871,1.162,1.347,1.743s.739.924,1.083,1.4l1.4,1.848c1.162,1.584,2.271,3.248,3.433,4.832l1.294,1.875.343.5c.687.951,1.267,2.033,1.928,2.984,1.267,2.033,2.641,4.014,3.776,5.994l.449.739c1.4,2.271,2.641,4.595,3.908,6.892,0,.211.185.4.291.581a6.424,6.424,0,0,1,.37.739c.581,1.109,1.162,2.165,1.716,3.274s1.109,2.245,1.637,3.354c.29.607.528,1.241.818,1.822a3.267,3.267,0,0,1,.238.581c.158.29.29.634.449.924.475,1.056.9,2.086,1.347,3.142s.818,2.033,1.241,3.037c.211.528.4,1.083.581,1.611a2.226,2.226,0,0,0,.211.528,8.694,8.694,0,0,0,.37.951c.343,1.083.739,2.086,1.083,3.116s.66,2.06.951,3.089c.158.475.29.951.449,1.452s0,.343.132.528a11,11,0,0,1,.343,1.109c.29,1.056.581,2.086.819,3.089s.475,1.98.686,2.957a6.142,6.142,0,0,0,.291,1.347,2.54,2.54,0,0,0,0,.449,7.5,7.5,0,0,0,.211,1.109c.185.951.343,1.928.528,2.852s.238,1.822.4,2.641,0,1.109.132,1.69a.758.758,0,0,1,0,.343,6.047,6.047,0,0,1,0,.687c0,.871.158,1.769.211,2.641S595.206,343.335,595.258,344.154Z" transform="translate(41.309 0)" fill="#323944"/>
      <path id="Caminho_88" data-name="Caminho 88" d="M587.349,350.826l-.132,54.712v34.723c-11.8,0-21.89-4.225-26.406-10.166V415.651l.238-80.061c0-27.066-29.389-66.991-64.35-87.138-15.711-9.083-30.34-12.886-41.721-11.83a29.305,29.305,0,0,0-11.645,3.327,4.523,4.523,0,0,0-.528.4,9.217,9.217,0,0,0-1.637,1.056,12.084,12.084,0,0,0-1.69,1.4,1.823,1.823,0,0,0-.581.528,8.923,8.923,0,0,0-1.452,1.558,9.544,9.544,0,0,0-1.268,1.69h-.132a13.938,13.938,0,0,0-1.162,2.033,5.564,5.564,0,0,0-.581,1.267,4.142,4.142,0,0,0-.449,1.056.366.366,0,0,0,0,.238,9.346,9.346,0,0,0-.528,1.611,12.787,12.787,0,0,0-.4,1.531,9.751,9.751,0,0,0-.238,1.162,33.7,33.7,0,0,0-.5,5.572V351.01c-11.645,0-21.705-4.014-26.405-9.823v-15.13l-.185-80.3c0-18.8,7.446-31.9,19.8-38.42a18.865,18.865,0,0,1,1.8-.924h0l.343-.132a24.708,24.708,0,0,1,2.852-1.162h0a8.915,8.915,0,0,1,1.558-.475,10.872,10.872,0,0,1,1.743-.528,1.509,1.509,0,0,1,.66-.158,1.246,1.246,0,0,1,.4,0l1.215-.264a10.365,10.365,0,0,1,1.241-.264h0a7.025,7.025,0,0,0,1.03-.185h.132a8.182,8.182,0,0,1,1.215-.185,10.514,10.514,0,0,1,1.347-.158,7.639,7.639,0,0,1,1.347,0,37.945,37.945,0,0,1,4.278-.211h1.4a24.785,24.785,0,0,1,2.8.158,41.952,41.952,0,0,1,4.383.4,26.272,26.272,0,0,1,2.9.422.754.754,0,0,1,.343,0,7.987,7.987,0,0,1,1.928.343c1.109.185,2.192.422,3.353.713s2.218.528,3.38.871c.475.158,1,.238,1.532.449l1.558.422c3.142.977,6.337,2.139,9.559,3.486,1.135.423,2.192.924,3.3,1.4s2.376,1.056,3.565,1.637l3.116,1.558c.66.37,1.4.713,2.06,1.056,1.558.871,3.089,1.69,4.7,2.641a162.808,162.808,0,0,1,13.784,8.9l2.4,1.743q6.179,4.543,12.041,9.612c2.271,1.98,4.436,4.014,6.628,6.047,1.452,1.347,2.852,2.641,4.251,4.146s2.376,2.429,3.538,3.644a9.25,9.25,0,0,1,1,1.056c2.271,2.35,4.436,4.832,6.575,7.341.291.343.634.687.924,1.056a205.054,205.054,0,0,1,12.939,17.032,11.389,11.389,0,0,1,.924,1.294h0c1.743,2.641,3.38,5.123,4.991,7.737,1,1.637,1.927,3.274,2.852,4.938.713,1.241,1.4,2.456,2.033,3.723,1.69,3.089,3.221,6.232,4.621,9.321.159.29.291.581.4.819.766,1.743,1.558,3.486,2.218,5.281.528,1.294,1.056,2.641,1.558,3.961s1.056,2.9,1.505,4.357.819,2.456,1.188,3.723a4.838,4.838,0,0,0,.343,1.109c.819,2.852,1.558,5.7,2.086,8.5a1.6,1.6,0,0,1,0,.475c.264,1.109.449,2.271.634,3.38v.634c.238,1.452.422,2.852.581,4.3A74.338,74.338,0,0,1,587.349,350.826Z" transform="translate(29.546 7.218)" fill="#3a4151"/>
    </g>
  </g>
</svg>
