<svg xmlns="http://www.w3.org/2000/svg" width="918.799" height="713.903" viewBox="0 0 918.799 713.903">
  <g id="Ilustração" transform="translate(0.001 182.345)">
    <g id="Ilustração-2" data-name="Ilustração" transform="translate(-0.001 0)">
      <g id="Ilustração-3" data-name="Ilustração">
        <path id="Caminho_78" data-name="Caminho 78" d="M1253.564,693.241C1193.61,783.546,1091.123,843.3,974.778,843.3S755.9,783.546,695.933,693.241l-180.557,119.4c98.712,148.785,267.771,247.18,459.4,247.18,191.583,0,360.581-98.4,459.4-247.18Z" transform="translate(-515.376 -693.241)" fill="#df0047"/>
      </g>
    </g>
  </g>
  <g id="Grupo_6875" data-name="Grupo 6875" transform="translate(223.04 0)">
    <path id="Caminho_8842" data-name="Caminho 8842" d="M-1285.136,438.212a7.9,7.9,0,0,1-5.52-2.24,7.921,7.921,0,0,1-.163-11.207l9.85-10.148a7.925,7.925,0,0,1,11.207-.168,7.927,7.927,0,0,1,.167,11.208l-9.854,10.147A7.893,7.893,0,0,1-1285.136,438.212Z" transform="translate(1393.87 93.928)" fill="#e10048"/>
    <path id="Caminho_8843" data-name="Caminho 8843" d="M-1185.41,75.127a7.9,7.9,0,0,1-5.515-2.241,7.921,7.921,0,0,1-.167-11.2l9.854-10.151a7.92,7.92,0,0,1,11.2-.168,7.927,7.927,0,0,1,.168,11.208l-9.854,10.151A7.9,7.9,0,0,1-1185.41,75.127Z" transform="translate(1401.062 67.745)" fill="#e10048"/>
    <path id="Caminho_8844" data-name="Caminho 8844" d="M-973.253,42.255a7.9,7.9,0,0,1-5.52-2.235,7.927,7.927,0,0,1-.167-11.208l9.854-10.151a7.93,7.93,0,0,1,11.208-.164,7.921,7.921,0,0,1,.167,11.2l-9.855,10.151A7.9,7.9,0,0,1-973.253,42.255Z" transform="translate(1416.36 65.375)" fill="#0061ac"/>
    <path id="Caminho_8845" data-name="Caminho 8845" d="M-973.253,405.638a7.915,7.915,0,0,1-5.52-2.236,7.925,7.925,0,0,1-.167-11.207l9.854-10.152a7.931,7.931,0,0,1,11.208-.167,7.925,7.925,0,0,1,.167,11.207l-9.855,10.152A7.9,7.9,0,0,1-973.253,405.638Z" transform="translate(1416.36 91.579)" fill="#fe9600"/>
    <path id="Caminho_8846" data-name="Caminho 8846" d="M-1323.988,54.775a7.883,7.883,0,0,1-5.515-2.236,7.924,7.924,0,0,1-.167-11.207l9.854-10.152a7.929,7.929,0,0,1,11.207-.163,7.924,7.924,0,0,1,.163,11.2l-9.854,10.152A7.9,7.9,0,0,1-1323.988,54.775Z" transform="translate(1391.069 66.278)" fill="#fe9600"/>
    <path id="Caminho_8847" data-name="Caminho 8847" d="M-1374.749,220.689a7.886,7.886,0,0,1-5.516-2.236,7.924,7.924,0,0,1-.167-11.207l9.85-10.152a7.925,7.925,0,0,1,11.206-.167,7.925,7.925,0,0,1,.169,11.207l-9.855,10.152A7.894,7.894,0,0,1-1374.749,220.689Z" transform="translate(1387.409 78.242)" fill="#7db72d"/>
    <path id="Caminho_8848" data-name="Caminho 8848" d="M-1167.249,226.15l-25.727,13.933c-6.672,3.614-14.469-2.224-13.2-9.88l4.912-29.508a9.538,9.538,0,0,0-2.613-8.293l-20.813-20.9c-5.4-5.418-2.421-14.863,5.042-15.981l28.758-4.306a9.108,9.108,0,0,0,6.847-5.126l12.865-26.849a8.981,8.981,0,0,1,16.312,0L-1142,146.089a9.119,9.119,0,0,0,6.846,5.126l28.763,4.306c7.459,1.118,10.436,10.562,5.038,15.981l-20.81,20.9a9.545,9.545,0,0,0-2.618,8.293l4.912,29.508c1.278,7.656-6.521,13.494-13.191,9.88l-25.726-13.933A8.85,8.85,0,0,0-1167.249,226.15Z" transform="translate(1398.602 72.425)" fill="#ffb200"/>
    <path id="Caminho_8849" data-name="Caminho 8849" d="M-1166.82,461.518a7.923,7.923,0,0,1-7.923-7.924V329.664a7.926,7.926,0,0,1,7.923-7.927,7.926,7.926,0,0,1,7.924,7.927v123.93A7.924,7.924,0,0,1-1166.82,461.518Z" transform="translate(1402.402 87.404)" fill="#0061ac"/>
    <path id="Caminho_8850" data-name="Caminho 8850" d="M-1166.752,298.6h-.121a7.931,7.931,0,0,1-7.929-7.928,7.924,7.924,0,0,1,7.929-7.923h.121a7.923,7.923,0,0,1,7.924,7.923A7.928,7.928,0,0,1-1166.752,298.6Z" transform="translate(1402.398 84.593)" fill="#0061ac"/>
    <path id="Caminho_8851" data-name="Caminho 8851" d="M-1166.752,273.178h-.16a7.923,7.923,0,0,1-7.89-7.957,7.925,7.925,0,0,1,7.924-7.89h.159a7.924,7.924,0,0,1,7.891,7.957A7.925,7.925,0,0,1-1166.752,273.178Z" transform="translate(1402.398 82.759)" fill="#fe9600"/>
    <path id="Caminho_8852" data-name="Caminho 8852" d="M-1294.1,177.97a7.9,7.9,0,0,1-5.687-2.4l-85.061-87.632a7.92,7.92,0,0,1,.163-11.2,7.928,7.928,0,0,1,11.207.163l85.065,87.632a7.92,7.92,0,0,1-.167,11.2A7.905,7.905,0,0,1-1294.1,177.97Z" transform="translate(1387.09 69.574)" fill="#e10048"/>
    <path id="Caminho_8853" data-name="Caminho 8853" d="M-1273.1,199.692a7.889,7.889,0,0,1-5.536-2.258,7.925,7.925,0,0,1-.134-11.207l.088-.088a7.925,7.925,0,0,1,11.206-.13,7.92,7.92,0,0,1,.13,11.207l-.084.088A7.91,7.91,0,0,1-1273.1,199.692Z" transform="translate(1394.738 77.453)" fill="#fe9600"/>
    <path id="Caminho_8854" data-name="Caminho 8854" d="M-1255.656,217.668a7.9,7.9,0,0,1-5.519-2.241,7.923,7.923,0,0,1-.163-11.2l.084-.092a7.925,7.925,0,0,1,11.207-.163,7.924,7.924,0,0,1,.167,11.207l-.088.088A7.9,7.9,0,0,1-1255.656,217.668Z" transform="translate(1395.996 78.75)" fill="#0061ac"/>
    <path id="Caminho_8855" data-name="Caminho 8855" d="M-1033.816,175.064a7.877,7.877,0,0,1-5.515-2.236,7.925,7.925,0,0,1-.168-11.207l85.061-87.628a7.925,7.925,0,0,1,11.206-.168,7.926,7.926,0,0,1,.168,11.208l-85.065,87.628A7.9,7.9,0,0,1-1033.816,175.064Z" transform="translate(1411.993 69.365)" fill="#fe9600"/>
    <path id="Caminho_8856" data-name="Caminho 8856" d="M-1060.529,196.789a7.886,7.886,0,0,1-5.649-2.37l-.088-.088a7.925,7.925,0,0,1,.1-11.207,7.925,7.925,0,0,1,11.207.1l.088.088a7.925,7.925,0,0,1-.1,11.207A7.894,7.894,0,0,1-1060.529,196.789Z" transform="translate(1410.06 77.244)" fill="#e10048"/>
    <path id="Caminho_8857" data-name="Caminho 8857" d="M-1077.978,214.766a7.9,7.9,0,0,1-5.687-2.4l-.088-.088a7.928,7.928,0,0,1,.167-11.207,7.928,7.928,0,0,1,11.207.163l.088.088a7.929,7.929,0,0,1-.167,11.207A7.9,7.9,0,0,1-1077.978,214.766Z" transform="translate(1408.802 78.54)" fill="#fe9600"/>
    <path id="Caminho_8858" data-name="Caminho 8858" d="M-1086.406,65.059a7.853,7.853,0,0,1-3.915-1.042,7.923,7.923,0,0,1-2.957-10.809l60.964-106.839a7.926,7.926,0,0,1,10.81-2.953,7.923,7.923,0,0,1,2.956,10.809l-60.963,106.839A7.927,7.927,0,0,1-1086.406,65.059Z" transform="translate(1408.201 60.047)" fill="#7db72d"/>
    <path id="Caminho_8859" data-name="Caminho 8859" d="M-1105.528,91.514a7.9,7.9,0,0,1-4.062-1.122l-.1-.063a7.922,7.922,0,0,1-2.73-10.867,7.921,7.921,0,0,1,10.868-2.735l.1.063a7.923,7.923,0,0,1,2.735,10.867A7.919,7.919,0,0,1-1105.528,91.514Z" transform="translate(1406.815 69.654)" fill="#fe9600"/>
    <path id="Caminho_8860" data-name="Caminho 8860" d="M-1118.035,113.432a7.882,7.882,0,0,1-4.083-1.14l-.105-.062a7.93,7.93,0,0,1-2.7-10.881,7.928,7.928,0,0,1,10.88-2.692l.1.062a7.926,7.926,0,0,1,2.693,10.881A7.922,7.922,0,0,1-1118.035,113.432Z" transform="translate(1405.913 71.235)" fill="#7db72d"/>
    <path id="Caminho_8861" data-name="Caminho 8861" d="M-1242.992,65.059a7.924,7.924,0,0,1-6.894-4l-60.963-106.835a7.924,7.924,0,0,1,2.952-10.809,7.926,7.926,0,0,1,10.813,2.953L-1236.119,53.2a7.93,7.93,0,0,1-2.953,10.813A7.879,7.879,0,0,1-1242.992,65.059Z" transform="translate(1392.512 60.047)" fill="#0061ac"/>
    <path id="Caminho_8862" data-name="Caminho 8862" d="M-1227.964,91.514a7.927,7.927,0,0,1-6.8-3.84,7.93,7.93,0,0,1,2.709-10.877l.109-.062a7.921,7.921,0,0,1,10.872,2.709,7.925,7.925,0,0,1-2.71,10.877l-.1.062A7.9,7.9,0,0,1-1227.964,91.514Z" transform="translate(1397.992 69.654)" fill="#e10048"/>
    <path id="Caminho_8863" data-name="Caminho 8863" d="M-1215.455,113.432a7.916,7.916,0,0,1-6.785-3.82,7.925,7.925,0,0,1,2.669-10.884l.1-.063a7.932,7.932,0,0,1,10.889,2.673,7.926,7.926,0,0,1-2.673,10.884l-.1.063A7.89,7.89,0,0,1-1215.455,113.432Z" transform="translate(1398.894 71.235)" fill="#fe9600"/>
    <path id="Caminho_8864" data-name="Caminho 8864" d="M-982.2,302.712l-16.643,12.439a6.429,6.429,0,0,1-10.21-5.536l.54-21.174a6.71,6.71,0,0,0-2.647-5.536l-16.626-12.46a6.709,6.709,0,0,1,1.956-11.717l19.717-6.015a6.535,6.535,0,0,0,4.288-4.3l6.365-20.14a6.36,6.36,0,0,1,11.422-1.7l11.646,17.459a6.386,6.386,0,0,0,5.3,2.873l20.563.012c5.336,0,8.35,6.307,5.1,10.668l-12.518,16.8a6.8,6.8,0,0,0-1.018,6.081l6.345,20.152c1.641,5.227-3.245,10.126-8.271,8.293l-19.382-7.074A6.276,6.276,0,0,0-982.2,302.712Z" transform="translate(1412.807 80.333)" fill="#ffb200"/>
    <path id="Caminho_8865" data-name="Caminho 8865" d="M-1125.55,463.8a7.924,7.924,0,0,1-7.924-7.924c0-61.357,24.479-102.839,45.013-126.835,22.33-26.088,44.614-37.55,45.552-38.027a7.917,7.917,0,0,1,10.649,3.489,7.922,7.922,0,0,1-3.476,10.645c-.334.173-20.906,10.9-41.134,34.731-27.045,31.862-40.757,70.889-40.757,116A7.923,7.923,0,0,1-1125.55,463.8Z" transform="translate(1405.378 85.126)" fill="#e10048"/>
    <path id="Caminho_8866" data-name="Caminho 8866" d="M-1282.53,342.452l12.615,16.731a6.369,6.369,0,0,0,11.307-2.388l5.214-20.491a6.559,6.559,0,0,1,4.042-4.552l19.34-7.191a6.713,6.713,0,0,0,1.294-11.81l-17.305-11.442a6.7,6.7,0,0,1-2.957-5.365l-.661-21.174a6.411,6.411,0,0,0-10.5-4.916l-15.909,13.417a6.293,6.293,0,0,1-5.867,1.239l-19.75-5.9c-5.122-1.528-9.724,3.657-7.786,8.774l7.472,19.738a6.8,6.8,0,0,1-.67,6.131l-11.545,17.527c-2.994,4.548.367,10.654,5.695,10.339l20.525-1.223A6.361,6.361,0,0,1-1282.53,342.452Z" transform="translate(1392.265 83.553)" fill="#ffb200"/>
    <path id="Caminho_8867" data-name="Caminho 8867" d="M-1206.538,459.331a7.923,7.923,0,0,1-7.923-7.924c0-32.226-7.162-61.709-21.284-87.628a7.926,7.926,0,0,1,3.17-10.751,7.928,7.928,0,0,1,10.751,3.167c15.4,28.277,23.209,60.311,23.209,95.212A7.924,7.924,0,0,1-1206.538,459.331Z" transform="translate(1397.934 89.59)" fill="#fe9600"/>
    <path id="Caminho_8868" data-name="Caminho 8868" d="M-1115.8-2.513c0-12.1-9.524-21.906-21.266-21.906s-21.267,9.808-21.267,21.906,9.52,21.912,21.267,21.912S-1115.8,9.586-1115.8-2.513Z" transform="translate(1403.585 62.441)" fill="#ffb200"/>
    <path id="Caminho_8869" data-name="Caminho 8869" d="M-1011.653,388.4c0-12.1-9.519-21.907-21.262-21.907s-21.267,9.808-21.267,21.907,9.52,21.908,21.267,21.908S-1011.653,400.5-1011.653,388.4Z" transform="translate(1411.096 90.631)" fill="#0061ac"/>
    <path id="Caminho_8870" data-name="Caminho 8870" d="M-1341.168,392.153a17.316,17.316,0,0,0-17.057-17.568,17.316,17.316,0,0,0-17.053,17.568,17.317,17.317,0,0,0,17.053,17.573A17.318,17.318,0,0,0-1341.168,392.153Z" transform="translate(1387.942 91.215)" fill="#7db72d"/>
    <path id="Caminho_8871" data-name="Caminho 8871" d="M-1297.125,229.649a17.316,17.316,0,0,0-17.057-17.568,17.316,17.316,0,0,0-17.054,17.568,17.32,17.32,0,0,0,17.054,17.573A17.32,17.32,0,0,0-1297.125,229.649Z" transform="translate(1391.117 79.496)" fill="#0061ac"/>
    <g id="Grupo_6874" data-name="Grupo 6874" transform="translate(141.587 0)">
      <path id="Caminho_8872" data-name="Caminho 8872" d="M-1174.457-42.312a17.317,17.317,0,0,0-17.053-17.572,17.318,17.318,0,0,0-17.058,17.572,17.317,17.317,0,0,0,17.058,17.569A17.316,17.316,0,0,0-1174.457-42.312Z" transform="translate(1258.376 59.884)" fill="#e10048"/>
      <path id="Caminho_8873" data-name="Caminho 8873" d="M-1020.07,94.181a17.323,17.323,0,0,0-17.058-17.573,17.323,17.323,0,0,0-17.057,17.573,17.319,17.319,0,0,0,17.057,17.568A17.319,17.319,0,0,0-1020.07,94.181Z" transform="translate(1269.509 69.727)" fill="#e10048"/>
      <path id="Caminho_8874" data-name="Caminho 8874" d="M-1247.1-25.389a7.881,7.881,0,0,1-5.52-2.241,7.92,7.92,0,0,1-.168-11.2l9.855-10.152a7.92,7.92,0,0,1,11.2-.167,7.925,7.925,0,0,1,.167,11.207l-9.849,10.152A7.91,7.91,0,0,1-1247.1-25.389Z" transform="translate(1255.026 60.497)" fill="#e10048"/>
    </g>
  </g>
  <g id="Grupo_6876" data-name="Grupo 6876" transform="translate(324.773 110.828)">
    <ellipse id="Elipse_50" data-name="Elipse 50" cx="135.496" cy="78.231" rx="135.496" ry="78.231" transform="translate(0 446.613)" fill="#cbcfdf" opacity="0.15" style="isolation: isolate"/>
    <ellipse id="Elipse_51" data-name="Elipse 51" cx="75.575" cy="43.627" rx="75.575" ry="43.627" transform="translate(58.357 472.853)" fill="#e8ecf7" opacity="0.5" style="isolation: isolate"/>
    <ellipse id="Elipse_52" data-name="Elipse 52" cx="21.55" cy="12.451" rx="21.55" ry="12.451" transform="translate(111.666 488.544)" fill="#e8ecf7"/>
    <rect id="Retângulo_17293" data-name="Retângulo 17293" width="41.442" height="162.867" transform="translate(113.211 335.925)" fill="#e8ecf7"/>
    <path id="Caminho_8827" data-name="Caminho 8827" d="M-839.269,212.662s1.13,33.493,24.959,93.565c0,0,22.19-48.374,24.488-94.582S-839.269,212.662-839.269,212.662Z" transform="translate(950.502 121.417)" fill="#ffb200"/>
    <path id="Caminho_8828" data-name="Caminho 8828" d="M-825.777,135.732l-55.136,53.648-6.555,70.056L-820.785,226l12.131-85.446Z" transform="translate(907.907 72.25)" fill="#502784"/>
    <path id="Caminho_8829" data-name="Caminho 8829" d="M-789.286,135.732l55.118,53.648,6.574,70.056-66.928-35.753-11.886-83.129Z" transform="translate(979.541 72.25)" fill="#502784"/>
    <ellipse id="Elipse_53" data-name="Elipse 53" cx="27.408" cy="15.823" rx="27.408" ry="15.823" transform="translate(108.088 310.89)" fill="#323945"/>
    <path id="Caminho_8830" data-name="Caminho 8830" d="M-848.449,197.043V182.8h83.015v14.768Z" transform="translate(942.389 113.847)" fill="#3a3939"/>
    <ellipse id="Elipse_54" data-name="Elipse 54" cx="41.555" cy="23.999" rx="41.555" ry="23.999" transform="translate(93.941 286.873)" fill="#1f2431"/>
    <ellipse id="Elipse_55" data-name="Elipse 55" cx="50.71" cy="29.273" rx="50.71" ry="29.273" transform="translate(84.654 259.992)" fill="#e8ecf7"/>
    <path id="Caminho_8831" data-name="Caminho 8831" d="M-746.4,262.445h0V275.01c0,2.543-.132,4.973-.226,7.347,0,2.957-.207,5.764-.358,8.458s-.282,5.331-.471,7.761c-.772,10.643-.754,18.479-2.072,21.55-7.177,16.784-31.458,7.535-43.439,1.507-4.427-2.223-7.346-4.05-7.346-4.05h-1.092A87.361,87.361,0,0,1-810,321.5c-12.564,5.086-34.962,14.109-41.178-1.432-1.111-2.788-2.223-12-2.9-21.644-.169-2.411-.32-4.992-.471-7.742s-.226-5.482-.339-8.439c0-2.355-.132-4.785-.188-7.309v-5.651h0V262.37h0c-.339-65.723,6.631-170.816,29.65-215.668,6.649-12.979,14.636-20.909,24.187-21.38h1.093c9.419.49,17.5,8.383,24.168,21.3C-753.277,91.309-745.988,195.987-746.4,262.445Z" transform="translate(936.525 -25.322)" fill="#e8ecf7"/>
    <ellipse id="Elipse_56" data-name="Elipse 56" cx="19.157" cy="19.157" rx="19.157" ry="19.157" transform="translate(116.47 136.834)" fill="#1f2431"/>
    <path id="Caminho_8832" data-name="Caminho 8832" d="M-816.015,140.4a21.963,21.963,0,0,1-21.964-21.964,21.964,21.964,0,0,1,21.964-21.964,21.965,21.965,0,0,1,21.964,21.964A21.982,21.982,0,0,1-816.015,140.4Zm0-38.315a16.353,16.353,0,0,0-16.37,16.332,16.35,16.35,0,0,0,16.332,16.37,16.349,16.349,0,0,0,16.369-16.332v-.019A16.369,16.369,0,0,0-816.015,102.086Z" transform="translate(951.642 37.555)" fill="#323945"/>
    <ellipse id="Elipse_57" data-name="Elipse 57" cx="19.157" cy="19.157" rx="19.157" ry="19.157" transform="translate(116.47 80.511)" fill="#1f2431"/>
    <path id="Caminho_8833" data-name="Caminho 8833" d="M-816,110.548a21.982,21.982,0,0,1-22-21.964,21.984,21.984,0,0,1,21.964-22,21.984,21.984,0,0,1,22,21.945A22,22,0,0,1-816,110.548Zm0-38.315a16.353,16.353,0,0,0-16.37,16.332,16.35,16.35,0,0,0,16.332,16.37A16.349,16.349,0,0,0-799.665,88.6v-.038A16.351,16.351,0,0,0-816,72.2h0Z" transform="translate(951.624 11.14)" fill="#323945"/>
    <path id="Caminho_8834" data-name="Caminho 8834" d="M-746.319,171.312v6.932c-1.884,6.216-7.008,12.169-15.333,16.954-21.588,12.451-56.512,12.451-78.193,0-8.326-4.822-13.431-10.794-15.334-16.954h0v-6.913c1.884,6.329,6.97,12.357,15.409,17.236,21.606,12.451,56.606,12.451,78.193,0C-753.308,183.632-748.071,177.622-746.319,171.312Z" transform="translate(936.442 103.693)" fill="#502784"/>
    <path id="Caminho_8835" data-name="Caminho 8835" d="M-746.462,177.167c0,2.524-.132,4.973-.226,7.328-2.11,5.877-7.121,11.472-15.07,16.03-21.587,12.47-56.511,12.47-78.193,0-7.93-4.6-12.941-10.229-15.07-16.143,0-2.355-.132-4.785-.188-7.29,1.884,6.141,7.026,11.98,15.239,16.727,21.606,12.47,56.606,12.47,78.193,0C-753.526,189.091-748.44,183.271-746.462,177.167Z" transform="translate(936.416 108.801)" fill="#502784"/>
    <path id="Caminho_8836" data-name="Caminho 8836" d="M-747.329,166.873c-2.279,5.519-7.177,10.775-14.655,15.07-21.587,12.451-56.511,12.451-78.193,0-7.535-4.37-12.433-9.645-14.712-15.22.151,2.75.3,5.331.471,7.742,2.43,5.2,7.177,10.1,14.241,14.184a74.872,74.872,0,0,0,29.838,8.891,95.081,95.081,0,0,0,16.953.132,75.593,75.593,0,0,0,31.326-9.023c7.007-4.05,11.735-8.891,14.184-14.034Z" transform="translate(936.698 99.636)" fill="#502784"/>
    <rect id="Retângulo_17294" data-name="Retângulo 17294" width="9.4" height="123.403" transform="translate(131.483 208.133)" fill="#502784"/>
  </g>
</svg>
