<svg xmlns="http://www.w3.org/2000/svg" width="982.307" height="644.757" viewBox="0 0 982.307 644.757">
  <g id="Ilustração" transform="translate(-48.847 -202.548)">
    <g id="Ilustração-2" data-name="Ilustração">
      <g id="Ilustração-3" data-name="Ilustração">
        <path id="Caminho_78" data-name="Caminho 78" d="M1304.588,693.241c-64.1,96.547-173.669,160.426-298.056,160.426S772.521,789.788,708.413,693.241L515.376,820.889c105.535,159.068,286.279,264.264,491.156,264.264,204.826,0,385.5-105.2,491.15-264.264Z" transform="translate(-466.529 -414.232)" fill="#df0047"/>
      </g>
    </g>
    <g id="Grupo_6866" data-name="Grupo 6866" transform="translate(1294.387 177.226)">
      <ellipse id="Elipse_50" data-name="Elipse 50" cx="144.861" cy="83.638" rx="144.861" ry="83.638" transform="translate(-898.319 502.803)" fill="#cbcfdf" opacity="0.15" style="isolation: isolate"/>
      <ellipse id="Elipse_51" data-name="Elipse 51" cx="80.798" cy="46.642" rx="80.798" ry="46.642" transform="translate(-835.928 530.857)" fill="#e8ecf7" opacity="0.5" style="isolation: isolate"/>
      <ellipse id="Elipse_52" data-name="Elipse 52" cx="23.039" cy="13.312" rx="23.039" ry="13.312" transform="translate(-778.934 547.633)" fill="#e8ecf7"/>
      <rect id="Retângulo_17293" data-name="Retângulo 17293" width="44.306" height="174.124" transform="translate(-777.282 384.465)" fill="#e8ecf7"/>
      <path id="Caminho_8827" data-name="Caminho 8827" d="M-839.269,214.133s1.208,35.807,26.684,100.031c0,0,23.724-51.717,26.181-101.119S-839.269,214.133-839.269,214.133Z" transform="translate(59.872 168.357)" fill="#ffb200"/>
      <path id="Caminho_8828" data-name="Caminho 8828" d="M-821.513,135.732l-58.948,57.356-7.008,74.9,71.293-35.747,12.97-91.351Z" transform="translate(11.001 111.947)" fill="#502784"/>
      <path id="Caminho_8829" data-name="Caminho 8829" d="M-788.1,135.732l58.927,57.356,7.029,74.9L-793.7,229.762l-12.708-88.874Z" transform="translate(93.189 111.947)" fill="#502784"/>
      <ellipse id="Elipse_53" data-name="Elipse 53" cx="29.303" cy="16.917" rx="29.303" ry="16.917" transform="translate(-782.76 357.7)" fill="#323945"/>
      <path id="Caminho_8830" data-name="Caminho 8830" d="M-848.449,198.028V182.8H-759.7v15.789Z" transform="translate(50.564 159.673)" fill="#3a3939"/>
      <ellipse id="Elipse_54" data-name="Elipse 54" cx="44.427" cy="25.657" rx="44.427" ry="25.657" transform="translate(-797.885 332.023)" fill="#1f2431"/>
      <ellipse id="Elipse_55" data-name="Elipse 55" cx="54.215" cy="31.296" rx="54.215" ry="31.296" transform="translate(-807.813 303.284)" fill="#e8ecf7"/>
      <path id="Caminho_8831" data-name="Caminho 8831" d="M-738.89,278.834h0v13.433c0,2.719-.141,5.317-.242,7.854,0,3.162-.222,6.163-.383,9.042s-.3,5.7-.5,8.3c-.826,11.379-.806,19.757-2.215,23.039-7.673,17.944-33.633,8.056-46.441,1.611-4.733-2.376-7.854-4.33-7.854-4.33H-797.7a93.372,93.372,0,0,1-9.184,4.189c-13.433,5.438-37.378,15.084-44.024-1.531-1.188-2.981-2.376-12.829-3.1-23.14-.181-2.578-.342-5.337-.5-8.277s-.242-5.861-.362-9.022c0-2.517-.141-5.115-.2-7.814v-6.042h0v-7.391h0c-.363-70.266,7.089-182.622,31.7-230.574,7.109-13.876,15.648-22.355,25.859-22.858h1.168c10.07.524,18.709,8.962,25.839,22.777C-746.241,95.87-738.447,207.783-738.89,278.834Z" transform="translate(43.836 0)" fill="#e8ecf7"/>
      <circle id="Elipse_56" data-name="Elipse 56" cx="20.482" cy="20.482" r="20.482" transform="translate(-773.798 171.614)" fill="#1f2431"/>
      <path id="Caminho_8832" data-name="Caminho 8832" d="M-814.5,143.437a23.481,23.481,0,0,1-23.482-23.482A23.483,23.483,0,0,1-814.5,96.472a23.483,23.483,0,0,1,23.482,23.482A23.5,23.5,0,0,1-814.5,143.437Zm0-40.963A17.483,17.483,0,0,0-832,119.934a17.48,17.48,0,0,0,17.461,17.5,17.479,17.479,0,0,0,17.5-17.461v-.02A17.5,17.5,0,0,0-814.5,102.473Z" transform="translate(61.18 72.14)" fill="#323945"/>
      <circle id="Elipse_57" data-name="Elipse 57" cx="20.482" cy="20.482" r="20.482" transform="translate(-773.798 111.398)" fill="#1f2431"/>
      <path id="Caminho_8833" data-name="Caminho 8833" d="M-814.476,113.587A23.5,23.5,0,0,1-838,90.1a23.5,23.5,0,0,1,23.482-23.523,23.5,23.5,0,0,1,23.522,23.462A23.521,23.521,0,0,1-814.476,113.587Zm0-40.963a17.483,17.483,0,0,0-17.5,17.461,17.48,17.48,0,0,0,17.461,17.5,17.479,17.479,0,0,0,17.5-17.461v-.04a17.482,17.482,0,0,0-17.461-17.5h0Z" transform="translate(61.16 41.834)" fill="#323945"/>
      <path id="Caminho_8834" data-name="Caminho 8834" d="M-738.795,171.312v7.411c-2.014,6.646-7.492,13.01-16.393,18.125-23.08,13.312-60.418,13.312-83.6,0-8.9-5.156-14.359-11.54-16.393-18.125h0v-7.391c2.014,6.767,7.452,13.211,16.474,18.427,23.1,13.312,60.518,13.312,83.6,0C-746.266,184.483-740.667,178.059-738.795,171.312Z" transform="translate(43.74 148.022)" fill="#502784"/>
      <path id="Caminho_8835" data-name="Caminho 8835" d="M-738.945,177.173c0,2.7-.141,5.317-.242,7.834-2.256,6.283-7.613,12.265-16.111,17.138-23.08,13.332-60.418,13.332-83.6,0-8.479-4.914-13.836-10.936-16.111-17.259,0-2.517-.141-5.115-.2-7.794,2.014,6.565,7.512,12.809,16.293,17.884,23.1,13.332,60.518,13.332,83.6,0C-746.5,189.921-741.06,183.7-738.945,177.173Z" transform="translate(43.71 153.883)" fill="#502784"/>
      <path id="Caminho_8836" data-name="Caminho 8836" d="M-739.894,166.883c-2.437,5.9-7.673,11.52-15.668,16.111-23.08,13.312-60.418,13.312-83.6,0-8.056-4.672-13.292-10.311-15.729-16.272.161,2.94.322,5.7.5,8.277,2.6,5.558,7.673,10.795,15.225,15.165a80.048,80.048,0,0,0,31.9,9.506,101.654,101.654,0,0,0,18.125.141,80.818,80.818,0,0,0,33.492-9.647c7.492-4.33,12.547-9.506,15.165-15Z" transform="translate(44.034 143.368)" fill="#502784"/>
      <rect id="Retângulo_17294" data-name="Retângulo 17294" width="10.049" height="131.932" transform="translate(-757.747 247.841)" fill="#502784"/>
    </g>
  </g>
</svg>
