<svg xmlns="http://www.w3.org/2000/svg" width="50.609" height="50.609" viewBox="0 0 50.609 50.609">
  <g id="Grupo_6855" data-name="Grupo 6855" transform="translate(0.5 0.5)">
    <g id="Grupo_6854" data-name="Grupo 6854">
      <path id="Caminho_8575" data-name="Caminho 8575" d="M46.374,19.412H42.336a18.252,18.252,0,0,0-1.32-3.19l2.853-2.853a3.24,3.24,0,0,0,0-4.578L40.817,5.74a3.317,3.317,0,0,0-4.577,0L33.387,8.592a18.3,18.3,0,0,0-3.19-1.32V3.235A3.239,3.239,0,0,0,26.962,0H22.648a3.239,3.239,0,0,0-3.235,3.235V7.273a18.335,18.335,0,0,0-3.19,1.32L13.369,5.741a3.24,3.24,0,0,0-4.577,0L5.739,8.793a3.242,3.242,0,0,0,0,4.577l2.853,2.854a18.3,18.3,0,0,0-1.32,3.19H3.235A3.239,3.239,0,0,0,0,22.649v4.314A3.239,3.239,0,0,0,3.235,30.2H7.273a18.335,18.335,0,0,0,1.32,3.19L5.741,36.241a3.24,3.24,0,0,0,0,4.577l3.052,3.053a3.242,3.242,0,0,0,4.577,0l2.854-2.853a18.3,18.3,0,0,0,3.19,1.32v4.036a3.239,3.239,0,0,0,3.235,3.235h4.314A3.239,3.239,0,0,0,30.2,46.374V42.336a18.3,18.3,0,0,0,3.19-1.32l2.853,2.854a3.318,3.318,0,0,0,4.577,0l3.052-3.052a3.239,3.239,0,0,0,0-4.577l-2.853-2.854a18.3,18.3,0,0,0,1.32-3.19h4.037a3.239,3.239,0,0,0,3.235-3.235V22.648A3.239,3.239,0,0,0,46.374,19.412Zm1.078,7.549a1.08,1.08,0,0,1-1.078,1.078H41.521a1.079,1.079,0,0,0-1.044.809,16.211,16.211,0,0,1-1.73,4.176,1.08,1.08,0,0,0,.166,1.31l3.43,3.431a1.083,1.083,0,0,1,0,1.527l-3.052,3.052a1.111,1.111,0,0,1-1.527,0l-3.43-3.43a1.08,1.08,0,0,0-1.311-.166,16.154,16.154,0,0,1-4.175,1.729,1.077,1.077,0,0,0-.808,1.043v4.853a1.08,1.08,0,0,1-1.078,1.078H22.648a1.08,1.08,0,0,1-1.078-1.078V41.521a1.079,1.079,0,0,0-.809-1.044,16.17,16.17,0,0,1-4.176-1.729,1.067,1.067,0,0,0-.548-.15,1.078,1.078,0,0,0-.764.316l-3.43,3.43a1.082,1.082,0,0,1-1.527,0L7.265,39.292a1.08,1.08,0,0,1,0-1.527l3.43-3.43a1.077,1.077,0,0,0,.166-1.31,16.192,16.192,0,0,1-1.729-4.176,1.077,1.077,0,0,0-1.043-.809H3.235a1.08,1.08,0,0,1-1.078-1.078V22.648a1.08,1.08,0,0,1,1.078-1.078H8.088a1.079,1.079,0,0,0,1.044-.809,16.17,16.17,0,0,1,1.729-4.176,1.077,1.077,0,0,0-.166-1.31l-3.43-3.43a1.082,1.082,0,0,1,0-1.527l3.052-3.052a1.081,1.081,0,0,1,1.527,0l3.43,3.43a1.076,1.076,0,0,0,1.31.166A16.192,16.192,0,0,1,20.76,9.132a1.079,1.079,0,0,0,.809-1.044V3.235a1.08,1.08,0,0,1,1.078-1.078h4.314A1.08,1.08,0,0,1,28.04,3.235V8.088a1.079,1.079,0,0,0,.809,1.044,16.154,16.154,0,0,1,4.175,1.729,1.077,1.077,0,0,0,1.311-.166l3.43-3.43a1.107,1.107,0,0,1,1.527,0l3.052,3.052a1.083,1.083,0,0,1,0,1.527l-3.43,3.43a1.079,1.079,0,0,0-.166,1.31,16.2,16.2,0,0,1,1.73,4.176,1.077,1.077,0,0,0,1.043.809h4.853a1.08,1.08,0,0,1,1.078,1.078Z" fill="#df0d47" stroke="#df0d47" stroke-width="1"/>
    </g>
  </g>
</svg>
