<svg xmlns="http://www.w3.org/2000/svg" width="50.609" height="52.215" viewBox="0 0 50.609 52.215">
  <g id="Grupo_6859" data-name="Grupo 6859" transform="translate(0.5 0.504)">
    <path id="Caminho_8577" data-name="Caminho 8577" d="M55.977,30H55.21v-6.9a3.241,3.241,0,0,0-1.375-2.648V19.5a2.475,2.475,0,0,0-2.473-2.473h-.572L52.98,13.82a2.366,2.366,0,0,0-.622-3.284L37.5.411a2.363,2.363,0,0,0-3.284.622L21.4,19.85H17.827l.861-8.715a.258.258,0,0,1,.163-.217,5.548,5.548,0,0,0,2.706-2.2.257.257,0,0,1,.242-.114l5.6.553a.73.73,0,1,0,.143-1.452l-5.6-.553a1.708,1.708,0,0,0-1.617.783,4.078,4.078,0,0,1-1.99,1.617,1.706,1.706,0,0,0-1.1,1.439L16.36,19.85H15.43L16.791,6.066a.9.9,0,0,1,.989-.811L29.09,6.373a.73.73,0,1,0,.143-1.452L17.923,3.8a2.366,2.366,0,0,0-2.584,2.12l-1.1,11.109H12.372A2.475,2.475,0,0,0,9.9,19.5v.641a3.247,3.247,0,0,0-1.892,2.947V47.968a3.247,3.247,0,0,0,3.243,3.243H51.967a3.247,3.247,0,0,0,3.243-3.243v-6.9h.766a1.642,1.642,0,0,0,1.64-1.64V31.637A1.642,1.642,0,0,0,55.977,30Zm-4.614-11.5h0a1.014,1.014,0,0,1,1.013,1.013v.372a3.252,3.252,0,0,0-.409-.027h-3.1l.925-1.358ZM35.424,1.855A.9.9,0,0,1,36,1.476a.917.917,0,0,1,.17-.016.9.9,0,0,1,.507.157L51.536,11.742A.905.905,0,0,1,51.774,13L47.1,19.85H45.984l2.289-3.359a1.706,1.706,0,0,0,.08-1.81,4.078,4.078,0,0,1-.489-2.517,1.707,1.707,0,0,0-.738-1.638l-7.7-5.248a1.707,1.707,0,0,0-1.794-.088,4.079,4.079,0,0,1-2.521.466,1.727,1.727,0,0,0-1.655.736L24.282,19.85H23.161Zm.321,12.392a6.021,6.021,0,0,0-6,5.6h-3.7L34.659,7.213h0a.261.261,0,0,1,.213-.115l.033,0a5.548,5.548,0,0,0,3.429-.633.257.257,0,0,1,.267.016l7.7,5.248a.258.258,0,0,1,.113.243,5.546,5.546,0,0,0,.665,3.423.259.259,0,0,1-.014.271L44.218,19.85H41.744A6.022,6.022,0,0,0,35.745,14.247Zm4.536,5.6H31.21a4.554,4.554,0,0,1,9.071,0ZM11.359,19.5a1.014,1.014,0,0,1,1.013-1.013H14.1l-.134,1.358h-2.6ZM9.467,23.093a1.786,1.786,0,0,1,1.784-1.784H51.967a1.786,1.786,0,0,1,1.784,1.784v2.025H9.467ZM53.751,47.968a1.786,1.786,0,0,1-1.784,1.784H11.251a1.786,1.786,0,0,1-1.784-1.784V45.943H13.4a.73.73,0,1,0,0-1.459H9.467V26.577H53.751V30H46.813a5.541,5.541,0,0,0-4.978,3.119l-.009.018c-.008.016-.014.032-.022.048a5.5,5.5,0,0,0-.276.706v0a5.536,5.536,0,0,0,5.286,7.176h6.938v3.419H18.075a.73.73,0,1,0,0,1.459H53.751Zm2.407-8.543a.181.181,0,0,1-.181.181H46.813a4.079,4.079,0,0,1-3.583-2.134q-.047-.087-.09-.176-.086-.178-.155-.365a4.079,4.079,0,0,1,0-2.8q.069-.187.155-.365.043-.089.09-.176a4.079,4.079,0,0,1,3.583-2.134h9.164a.181.181,0,0,1,.181.181v7.788Z" transform="translate(-8.008 0)" fill="rgba(28,27,27,0.8)" stroke="#3e3e3f" stroke-width="1"/>
  </g>
</svg>
