<svg xmlns="http://www.w3.org/2000/svg" width="982.307" height="531.053" viewBox="0 0 982.307 531.053">
  <g id="Ilustração" transform="translate(-48.847 -279.008)">
    <g id="Ilustração-2" data-name="Ilustração">
      <path id="Caminho_78" data-name="Caminho 78" d="M1304.588,693.241c-64.1,96.547-173.669,160.426-298.056,160.426S772.521,789.788,708.413,693.241L515.376,820.889c105.535,159.068,286.279,264.264,491.156,264.264,204.826,0,385.5-105.2,491.15-264.264Z" transform="translate(-466.529 -414.232)" fill="#df0047"/>
    </g>
    <g id="Слой_2" data-name="Слой 2" transform="translate(858.96 327.578)">
      <g id="Слой_1-2" data-name="Слой 1-2" transform="translate(-598.65 -34)">
        <g id="Coin" transform="translate(38.823 288.104)">
          <ellipse id="Elipse_6" data-name="Elipse 6" cx="33.09" cy="19.107" rx="33.09" ry="19.107" transform="translate(0 8.182)" fill="#dd990e"/>
          <path id="Caminho_8579" data-name="Caminho 8579" d="M-564.23,246.711v-8.7l6.534,5.823Z" transform="translate(564.253 -219.129)" fill="#dd990e"/>
          <path id="Caminho_8580" data-name="Caminho 8580" d="M-505.042,238.21v8.182l-3.341,3.555-1.648-9.379Z" transform="translate(571.222 -219.103)" fill="#dd990e"/>
          <ellipse id="Elipse_7" data-name="Elipse 7" cx="33.09" cy="19.107" rx="33.09" ry="19.107" fill="#f9cb07"/>
          <path id="Caminho_8581" data-name="Caminho 8581" d="M-508.609,240.382c-.339,3.216-2.63,6.388-6.9,8.848-9.243,5.338-24.242,5.338-33.5,0-4.266-2.46-6.557-5.643-6.884-8.848-.395-3.758,1.9-7.607,6.884-10.484,9.254-5.349,24.253-5.349,33.5,0C-510.494,232.786-508.191,236.623-508.609,240.382Z" transform="translate(565.32 -220.688)" fill="#cc8b09"/>
          <path id="Caminho_8582" data-name="Caminho 8582" d="M-508.614,240.194c-.339,3.216-2.63,6.388-6.9,8.848-9.243,5.338-24.242,5.338-33.5,0-4.266-2.46-6.557-5.643-6.884-8.848.327-3.216,2.618-6.376,6.884-8.848,9.254-5.338,24.253-5.338,33.5,0C-511.221,233.818-508.93,236.978-508.614,240.194Z" transform="translate(565.325 -220.501)" fill="#e8a30a"/>
          <path id="Caminho_8583" data-name="Caminho 8583" d="M-533.973,235.026a4.55,4.55,0,0,0-.858.068c-.395.056-.835.135-1.309.237s-.993.226-1.512.384a11.356,11.356,0,0,0-1.478.564l3.8,2.2.677-.248q1.456-.474,2.743-.813a12.444,12.444,0,0,1,2.46-.406,8.906,8.906,0,0,1,2.257.147,7.522,7.522,0,0,1,2.167.846,4.4,4.4,0,0,1,1.636,1.445,1.962,1.962,0,0,1,.237,1.49,3.231,3.231,0,0,1-.892,1.456,8.924,8.924,0,0,1-1.761,1.377l2.426,1.4-1.32.756-2.449-1.411a19.327,19.327,0,0,1-3.623,1.377,24.274,24.274,0,0,1-4.006.745l-1.185-2.325a10.207,10.207,0,0,0,1.129-.09,14.593,14.593,0,0,0,1.591-.271q.88-.191,1.862-.474a13.21,13.21,0,0,0,1.851-.688l-3.781-2.189-.5.169-.508.158c-.959.316-1.828.564-2.618.745a12.578,12.578,0,0,1-2.257.293,7.361,7.361,0,0,1-1.964-.181,6.993,6.993,0,0,1-1.828-.734,4.613,4.613,0,0,1-1.58-1.366,2.26,2.26,0,0,1-.429-1.467,2.713,2.713,0,0,1,.621-1.478,6.94,6.94,0,0,1,1.535-1.4l-2.257-1.287,1.32-.767,2.257,1.287a16.019,16.019,0,0,1,3.273-1.2,22.687,22.687,0,0,1,3.262-.6Zm-6.5,3.984a2.749,2.749,0,0,0,1.648.361,11.542,11.542,0,0,0,2.257-.508l-3.555-2.065C-541.388,237.655-541.5,238.389-540.474,239.01Zm12.482,1.038a2.843,2.843,0,0,0-1.772-.316,14.288,14.288,0,0,0-2.494.553l3.544,2.043c1.557-.925,1.783-1.682.767-2.28Z" transform="translate(566.714 -219.801)" fill="#cc8b09"/>
          <path id="Caminho_8584" data-name="Caminho 8584" d="M-537,243.147a12.225,12.225,0,0,0,0-1.287l1.456.937-.632.971Z" transform="translate(567.754 -218.634)" fill="#cc8b09"/>
          <path id="Caminho_8585" data-name="Caminho 8585" d="M-525.461,243.907V242.62l-3.149.237,1.806,1.241Z" transform="translate(568.833 -218.536)" fill="#cc8b09"/>
          <path id="Caminho_8586" data-name="Caminho 8586" d="M-525.323,239.727V238.44l-2.347.846Z" transform="translate(568.953 -219.074)" fill="#cc8b09"/>
          <path id="Caminho_8587" data-name="Caminho 8587" d="M-534.23,239.6l.779-.745,2.765,1.907-.169.564s-2.065-.869-2.133-.925Z" transform="translate(568.11 -219.02)" fill="#cc8b09"/>
          <path id="Caminho_8588" data-name="Caminho 8588" d="M-540.64,236.034l3.668,2.077.745-.542-.5-.576a4.836,4.836,0,0,0-1.129-.959,15.2,15.2,0,0,1-2.009-.824Z" transform="translate(567.286 -219.489)" fill="#cc8b09"/>
          <path id="Caminho_8589" data-name="Caminho 8589" d="M-535,234.978v-1.287l-1.693-.542-.361,1,.09.463Z" transform="translate(567.747 -219.754)" fill="#cc8b09"/>
          <path id="Caminho_8590" data-name="Caminho 8590" d="M-545.15,234.1V232.81l1.952.214-.632,1.241Z" transform="translate(566.706 -219.797)" fill="#cc8b09"/>
          <path id="Caminho_8591" data-name="Caminho 8591" d="M-545.09,237.963V236.62h2.257l-.553,1.2-.971,1.072Z" transform="translate(566.714 -219.308)" fill="#cc8b09"/>
          <path id="Caminho_8592" data-name="Caminho 8592" d="M-533.963,233.874a4.646,4.646,0,0,0-.858.068c-.395.056-.835.135-1.309.237s-.993.237-1.512.384a10.1,10.1,0,0,0-1.478.576l3.8,2.189.677-.237c.971-.327,1.885-.6,2.743-.824a12.444,12.444,0,0,1,2.46-.406,8.857,8.857,0,0,1,2.257.158,7.178,7.178,0,0,1,2.167.846,4.385,4.385,0,0,1,1.636,1.433,1.962,1.962,0,0,1,.237,1.49,3.264,3.264,0,0,1-.892,1.467,9.384,9.384,0,0,1-1.761,1.366l2.426,1.4-1.32.756-2.449-1.4a20.093,20.093,0,0,1-3.623,1.366,24.414,24.414,0,0,1-4.006.756l-1.275-2.257a9.684,9.684,0,0,0,1.129-.079,14.9,14.9,0,0,0,1.591-.282q.88-.181,1.862-.474a13.347,13.347,0,0,0,1.851-.688l-3.781-2.178-.5.169-.508.158c-.959.316-1.828.553-2.618.734a10.8,10.8,0,0,1-2.257.293,7.361,7.361,0,0,1-1.964-.181,6.612,6.612,0,0,1-1.828-.779,4.73,4.73,0,0,1-1.58-1.354,2.261,2.261,0,0,1-.429-1.467,2.673,2.673,0,0,1,.621-1.478,6.655,6.655,0,0,1,1.535-1.343l-2.257-1.3,1.32-.756,2.257,1.275a16.014,16.014,0,0,1,3.273-1.2,22.655,22.655,0,0,1,3.262-.587Zm-6.5,3.984a2.749,2.749,0,0,0,1.648.361,11.542,11.542,0,0,0,2.257-.508l-3.555-2.054C-541.378,236.549-541.491,237.249-540.464,237.858Zm12.482,1.05a2.846,2.846,0,0,0-1.772-.327,14.291,14.291,0,0,0-2.494.553l3.544,2.043c1.557-.925,1.783-1.682.767-2.268Z" transform="translate(566.703 -219.936)" fill="#f9ca06"/>
        </g>
        <g id="Coin-2" transform="translate(41.532 277.913)">
          <ellipse id="Elipse_8" data-name="Elipse 8" cx="33.09" cy="19.107" rx="33.09" ry="19.107" transform="translate(0 8.193)" fill="#dd990e"/>
          <path id="Caminho_8593" data-name="Caminho 8593" d="M-561.84,237.681v-8.7l6.534,5.823Z" transform="translate(561.851 -210.099)" fill="#dd990e"/>
          <path id="Caminho_8594" data-name="Caminho 8594" d="M-502.653,229.18v8.194l-3.341,3.544-1.636-9.367Z" transform="translate(568.822 -210.073)" fill="#dd990e"/>
          <ellipse id="Elipse_9" data-name="Elipse 9" cx="33.09" cy="19.107" rx="33.09" ry="19.107" fill="#f9cb07"/>
          <path id="Caminho_8595" data-name="Caminho 8595" d="M-506.189,231.362c-.339,3.216-2.63,6.388-6.9,8.848-9.254,5.338-24.253,5.338-33.5,0-4.266-2.46-6.557-5.643-6.884-8.848-.406-3.769,1.9-7.618,6.884-10.485,9.243-5.349,24.242-5.349,33.5,0C-508.1,223.789-505.794,227.592-506.189,231.362Z" transform="translate(562.922 -211.657)" fill="#cc8b09"/>
          <path id="Caminho_8596" data-name="Caminho 8596" d="M-506.194,231.175c-.339,3.216-2.63,6.388-6.9,8.848-9.254,5.338-24.253,5.338-33.5,0-4.266-2.46-6.557-5.643-6.884-8.848.327-3.216,2.618-6.388,6.884-8.848,9.243-5.349,24.242-5.349,33.5,0C-508.823,224.787-506.532,227.959-506.194,231.175Z" transform="translate(562.928 -211.47)" fill="#e8a30a"/>
          <path id="Caminho_8597" data-name="Caminho 8597" d="M-531.558,225.986a7.98,7.98,0,0,0-.869.068c-.384.056-.824.135-1.309.237s-.982.237-1.5.4a9.379,9.379,0,0,0-1.49.564l3.86,2.189.688-.237c.959-.327,1.874-.6,2.731-.824a12.528,12.528,0,0,1,2.46-.406,8.859,8.859,0,0,1,2.257.158,7.18,7.18,0,0,1,2.167.846,4.214,4.214,0,0,1,1.636,1.433,1.917,1.917,0,0,1,.248,1.49,3.378,3.378,0,0,1-.892,1.467,9.2,9.2,0,0,1-1.738,1.366l2.415,1.4-1.32.767-2.438-1.411a20.576,20.576,0,0,1-3.7,1.366,23.118,23.118,0,0,1-4,.756l-1.275-2.257a9.54,9.54,0,0,0,1.061-.079c.485-.056,1.016-.147,1.6-.271s1.2-.293,1.851-.485a12.126,12.126,0,0,0,1.862-.688l-3.781-2.178-.5.169-.519.158c-.948.316-1.828.553-2.618.734a11.7,11.7,0,0,1-2.257.3,7.925,7.925,0,0,1-1.964-.192,6.408,6.408,0,0,1-1.828-.734,4.719,4.719,0,0,1-1.58-1.354,2.26,2.26,0,0,1-.429-1.467,2.7,2.7,0,0,1,.632-1.478,6.427,6.427,0,0,1,1.535-1.4l-2.257-1.3,1.32-.756,2.257,1.275a16.615,16.615,0,0,1,3.262-1.2,22.832,22.832,0,0,1,3.273-.587Zm-6.467,4a2.754,2.754,0,0,0,1.648.35,10.819,10.819,0,0,0,2.257-.508l-3.566-2.054C-538.973,228.626-539.1,229.36-538.025,229.981Zm12.493,1.038a2.8,2.8,0,0,0-1.783-.316,14.267,14.267,0,0,0-2.483.542l3.544,2.043C-524.753,232.362-524.5,231.606-525.531,231.019Z" transform="translate(564.298 -210.761)" fill="#cc8b09"/>
          <path id="Caminho_8598" data-name="Caminho 8598" d="M-534.65,234.147V232.86l1.445.937-.621.971Z" transform="translate(565.347 -209.6)" fill="#cc8b09"/>
          <path id="Caminho_8599" data-name="Caminho 8599" d="M-523.071,234.877V233.59l-3.149.248,1.817,1.23Z" transform="translate(566.431 -209.506)" fill="#cc8b09"/>
          <path id="Caminho_8600" data-name="Caminho 8600" d="M-522.921,230.708v-1.3l-2.359.858Z" transform="translate(566.552 -210.044)" fill="#cc8b09"/>
          <path id="Caminho_8601" data-name="Caminho 8601" d="M-531.84,230.586l.79-.756,2.754,1.919-.169.553s-2.065-.869-2.133-.914S-531.84,230.586-531.84,230.586Z" transform="translate(565.709 -209.99)" fill="#cc8b09"/>
          <path id="Caminho_8602" data-name="Caminho 8602" d="M-538.25,227.015l3.668,2.077.756-.542s-.463-.53-.5-.587a4.7,4.7,0,0,0-1.129-.948c-.26-.045-2.02-.835-2.02-.835Z" transform="translate(564.885 -210.459)" fill="#cc8b09"/>
          <path id="Caminho_8603" data-name="Caminho 8603" d="M-532.607,225.948v-1.275l-1.682-.553-.361,1,.09.463Z" transform="translate(565.347 -210.724)" fill="#cc8b09"/>
          <path id="Caminho_8604" data-name="Caminho 8604" d="M-542.76,225.065V223.79l1.952.2-.632,1.241Z" transform="translate(564.305 -210.766)" fill="#cc8b09"/>
          <path id="Caminho_8605" data-name="Caminho 8605" d="M-542.69,228.932V227.6h2.257l-.542,1.129-.971,1.129Z" transform="translate(564.314 -210.276)" fill="#cc8b09"/>
          <path id="Caminho_8606" data-name="Caminho 8606" d="M-531.558,224.857a4.672,4.672,0,0,0-.869.068c-.384.056-.824.135-1.309.237s-.982.226-1.5.384a10.778,10.778,0,0,0-1.49.564l3.86,2.2.688-.248c.959-.316,1.874-.587,2.731-.813a12.528,12.528,0,0,1,2.46-.406,8.8,8.8,0,0,1,2.257.147,7.178,7.178,0,0,1,2.167.846,4.227,4.227,0,0,1,1.636,1.445,1.9,1.9,0,0,1,.248,1.478,3.377,3.377,0,0,1-.892,1.467,9.742,9.742,0,0,1-1.738,1.377l2.415,1.388-1.32.767-2.483-1.433a20.655,20.655,0,0,1-3.657,1.4,24.14,24.14,0,0,1-4,.745l-1.275-2.257a9.54,9.54,0,0,0,1.061-.079c.485-.056,1.016-.147,1.6-.271s1.2-.282,1.851-.474a13.549,13.549,0,0,0,1.862-.7l-3.781-2.178-.5.169-.519.158a24.747,24.747,0,0,1-2.618.734,11.7,11.7,0,0,1-2.257.3,7.866,7.866,0,0,1-1.964-.181,6.789,6.789,0,0,1-1.828-.745,4.6,4.6,0,0,1-1.58-1.354,2.26,2.26,0,0,1-.429-1.467,2.7,2.7,0,0,1,.632-1.478,6.427,6.427,0,0,1,1.535-1.4l-2.257-1.3,1.32-.756,2.257,1.287a15.93,15.93,0,0,1,3.262-1.208,24.394,24.394,0,0,1,3.273-.587Zm-6.467,3.984a2.753,2.753,0,0,0,1.648.35,10.107,10.107,0,0,0,2.257-.508l-3.566-2.054c-1.286.858-1.411,1.591-.339,2.212Zm12.493,1.038a2.879,2.879,0,0,0-1.783-.316,15.441,15.441,0,0,0-2.483.542l3.544,2.043C-524.753,231.233-524.5,230.477-525.531,229.879Z" transform="translate(564.298 -210.908)" fill="#f9ca06"/>
        </g>
        <g id="Coin-3" transform="translate(41.317 268.85)">
          <ellipse id="Elipse_10" data-name="Elipse 10" cx="33.09" cy="19.107" rx="33.09" ry="19.107" transform="translate(0 8.182)" fill="#dd990e"/>
          <path id="Caminho_8607" data-name="Caminho 8607" d="M-562.02,229.653V220.94l6.535,5.823Z" transform="translate(562.043 -202.07)" fill="#dd990e"/>
          <path id="Caminho_8608" data-name="Caminho 8608" d="M-502.833,221.15v8.182l-3.341,3.544-1.636-9.367Z" transform="translate(569.013 -202.043)" fill="#dd990e"/>
          <ellipse id="Elipse_11" data-name="Elipse 11" cx="33.09" cy="19.107" rx="33.09" ry="19.107" fill="#f9cb07"/>
          <path id="Caminho_8609" data-name="Caminho 8609" d="M-506.369,223.322c-.339,3.216-2.63,6.388-6.9,8.848-9.254,5.338-24.253,5.338-33.5,0-4.266-2.46-6.557-5.643-6.884-8.848-.406-3.769,1.9-7.607,6.884-10.484,9.243-5.349,24.242-5.349,33.5,0C-508.276,215.715-505.985,219.552-506.369,223.322Z" transform="translate(563.114 -203.628)" fill="#cc8b09"/>
          <path id="Caminho_8610" data-name="Caminho 8610" d="M-506.374,223.135c-.339,3.216-2.63,6.388-6.9,8.848-9.254,5.338-24.253,5.338-33.5,0-4.266-2.46-6.557-5.643-6.884-8.848.327-3.216,2.618-6.388,6.884-8.848,9.243-5.349,24.242-5.349,33.5,0C-509,216.736-506.712,219.919-506.374,223.135Z" transform="translate(563.119 -203.441)" fill="#e8a30a"/>
          <path id="Caminho_8611" data-name="Caminho 8611" d="M-531.721,217.965a4.669,4.669,0,0,0-.869.068,7.192,7.192,0,0,0-1.309.237c-.485.1-.982.226-1.5.384a10.182,10.182,0,0,0-1.49.564l3.8,2.257.677-.248q1.456-.474,2.742-.813a12.529,12.529,0,0,1,2.46-.406,8.326,8.326,0,0,1,2.257.147,7.179,7.179,0,0,1,2.167.846,4.314,4.314,0,0,1,1.636,1.445,1.931,1.931,0,0,1,.248,1.478,3.378,3.378,0,0,1-.892,1.467,9.748,9.748,0,0,1-1.738,1.377l2.415,1.388-1.32.767-2.438-1.411a20.588,20.588,0,0,1-3.634,1.377,24.4,24.4,0,0,1-4,.745l-1.275-2.257a9.547,9.547,0,0,0,1.061-.079,15.9,15.9,0,0,0,1.591-.271q.88-.191,1.862-.474a13.549,13.549,0,0,0,1.862-.7l-3.781-2.178-.5.169-.519.158a24.754,24.754,0,0,1-2.618.734,11.7,11.7,0,0,1-2.257.3,7.867,7.867,0,0,1-1.964-.181,6.617,6.617,0,0,1-1.828-.745,4.514,4.514,0,0,1-1.58-1.354,2.26,2.26,0,0,1-.429-1.467,2.75,2.75,0,0,1,.621-1.478,6.767,6.767,0,0,1,1.557-1.524l-2.257-1.3,1.32-.756,2.257,1.287a15.933,15.933,0,0,1,3.262-1.208,24.406,24.406,0,0,1,3.273-.587Zm-6.467,3.984a2.753,2.753,0,0,0,1.648.35,10.262,10.262,0,0,0,2.257-.508l-3.566-2.054c-1.309.813-1.433,1.591-.361,2.212Zm12.493,1.038a2.879,2.879,0,0,0-1.783-.316,15.439,15.439,0,0,0-2.483.542l3.532,2.043c1.478-.914,1.738-1.67.711-2.268Z" transform="translate(564.495 -202.74)" fill="#cc8b09"/>
          <path id="Caminho_8612" data-name="Caminho 8612" d="M-534.83,226.145V224.87l1.445.925-.632.982Z" transform="translate(565.539 -201.565)" fill="#cc8b09"/>
          <path id="Caminho_8613" data-name="Caminho 8613" d="M-523.251,226.835V225.56l-3.149.237,1.806,1.23Z" transform="translate(566.623 -201.476)" fill="#cc8b09"/>
          <path id="Caminho_8614" data-name="Caminho 8614" d="M-523.1,222.668v-1.3l-2.359.858Z" transform="translate(566.743 -202.015)" fill="#cc8b09"/>
          <path id="Caminho_8615" data-name="Caminho 8615" d="M-532,222.545l.79-.745,2.754,1.907-.158.576s-2.065-.869-2.133-.925Z" transform="translate(565.903 -201.96)" fill="#cc8b09"/>
          <path id="Caminho_8616" data-name="Caminho 8616" d="M-538.43,218.975l3.668,2.077.756-.542-.5-.576a4.572,4.572,0,0,0-1.129-.959,14.678,14.678,0,0,1-2.02-.835Z" transform="translate(565.076 -202.43)" fill="#cc8b09"/>
          <path id="Caminho_8617" data-name="Caminho 8617" d="M-532.787,217.92v-1.287l-1.682-.553-.361,1,.09.463Z" transform="translate(565.539 -202.695)" fill="#cc8b09"/>
          <path id="Caminho_8618" data-name="Caminho 8618" d="M-542.94,217.025V215.75l1.952.2-.632,1.253Z" transform="translate(564.496 -202.737)" fill="#cc8b09"/>
          <path id="Caminho_8619" data-name="Caminho 8619" d="M-542.88,220.892V219.56h2.257l-.542,1.2-.982,1.061Z" transform="translate(564.504 -202.248)" fill="#cc8b09"/>
          <path id="Caminho_8620" data-name="Caminho 8620" d="M-531.718,216.816a4.669,4.669,0,0,0-.869.068c-.384.056-.824.135-1.309.237s-.982.226-1.5.384a11.51,11.51,0,0,0-1.49.564l3.8,2.2.677-.237c.971-.327,1.885-.6,2.742-.824a12.527,12.527,0,0,1,2.46-.406,8.8,8.8,0,0,1,2.257.147,7.832,7.832,0,0,1,2.167.846,4.4,4.4,0,0,1,1.636,1.445,1.979,1.979,0,0,1,.248,1.49,3.39,3.39,0,0,1-.892,1.456,9.261,9.261,0,0,1-1.738,1.377l2.415,1.4-1.321.756-2.449-1.388a19.733,19.733,0,0,1-3.634,1.377,24.4,24.4,0,0,1-4,.745l-1.275-2.257a10.446,10.446,0,0,0,1.061-.09,12.234,12.234,0,0,0,1.591-.271q.88-.181,1.862-.474a13.352,13.352,0,0,0,1.862-.688l-3.781-2.189a4.207,4.207,0,0,1-.5.169l-.519.169c-.948.3-1.828.553-2.618.734a11.61,11.61,0,0,1-2.257.293,7.456,7.456,0,0,1-1.964-.181,6.994,6.994,0,0,1-1.828-.734,4.613,4.613,0,0,1-1.58-1.366,2.26,2.26,0,0,1-.429-1.467,2.805,2.805,0,0,1,.621-1.478,6.963,6.963,0,0,1,1.546-1.388l-2.257-1.3,1.32-.767,2.257,1.287a15.921,15.921,0,0,1,3.262-1.2,22.861,22.861,0,0,1,3.273-.6Zm-6.467,3.984a2.749,2.749,0,0,0,1.648.361,11.792,11.792,0,0,0,2.257-.508l-3.566-2.065c-1.309.858-1.433,1.591-.361,2.212Zm12.493,1.038a2.961,2.961,0,0,0-1.783-.316,14.4,14.4,0,0,0-2.483.553l3.51,2c1.5-.88,1.761-1.636.734-2.257Z" transform="translate(564.492 -202.878)" fill="#f9ca06"/>
        </g>
        <g id="Coin-4" transform="translate(42.311 258.648)">
          <ellipse id="Elipse_12" data-name="Elipse 12" cx="33.09" cy="19.107" rx="33.09" ry="19.107" transform="translate(0 8.193)" fill="#dd990e"/>
          <path id="Caminho_8621" data-name="Caminho 8621" d="M-561.15,220.611v-8.7l6.546,5.823Z" transform="translate(561.161 -193.029)" fill="#dd990e"/>
          <path id="Caminho_8622" data-name="Caminho 8622" d="M-501.953,212.11V220.3l-3.341,3.544-1.636-9.367Z" transform="translate(568.133 -193.003)" fill="#dd990e"/>
          <ellipse id="Elipse_13" data-name="Elipse 13" cx="33.09" cy="19.107" rx="33.09" ry="19.107" fill="#f9cb07"/>
          <path id="Caminho_8623" data-name="Caminho 8623" d="M-505.5,214.292c-.327,3.216-2.63,6.388-6.9,8.848-9.243,5.338-24.242,5.338-33.5,0-4.266-2.46-6.557-5.643-6.884-8.848-.395-3.769,1.907-7.618,6.884-10.484,9.254-5.349,24.253-5.349,33.5,0C-507.406,206.674-505.1,210.522-505.5,214.292Z" transform="translate(562.233 -194.587)" fill="#cc8b09"/>
          <path id="Caminho_8624" data-name="Caminho 8624" d="M-505.5,214.105c-.327,3.216-2.63,6.388-6.9,8.848-9.243,5.338-24.242,5.338-33.5,0-4.266-2.46-6.557-5.643-6.884-8.848.327-3.216,2.618-6.388,6.884-8.848,9.254-5.349,24.253-5.349,33.5,0C-508.133,207.74-505.831,210.889-505.5,214.105Z" transform="translate(562.237 -194.4)" fill="#e8a30a"/>
          <path id="Caminho_8625" data-name="Caminho 8625" d="M-530.862,208.919a4.67,4.67,0,0,0-.869.068c-.4.056-.835.135-1.309.237s-.993.237-1.512.384a10.094,10.094,0,0,0-1.478.576l3.8,2.189.677-.237c.971-.327,1.885-.6,2.742-.824a12.445,12.445,0,0,1,2.46-.406,8.858,8.858,0,0,1,2.257.158,7.179,7.179,0,0,1,2.167.846,4.383,4.383,0,0,1,1.636,1.433,1.961,1.961,0,0,1,.237,1.49,3.264,3.264,0,0,1-.892,1.467,8.886,8.886,0,0,1-1.738,1.366l2.427,1.4-1.32.767-2.449-1.411a20.09,20.09,0,0,1-3.623,1.366,24.4,24.4,0,0,1-4.007.756l-1.275-2.257a9.719,9.719,0,0,0,1.072-.079q.711-.09,1.591-.271c.587-.135,1.208-.293,1.862-.485a13.208,13.208,0,0,0,1.851-.688l-3.781-2.178-.5.169-.508.158c-.959.316-1.828.553-2.618.734a11.7,11.7,0,0,1-2.257.3,7.924,7.924,0,0,1-1.964-.192,6.6,6.6,0,0,1-1.828-.734,4.731,4.731,0,0,1-1.58-1.354,2.261,2.261,0,0,1-.429-1.467,2.673,2.673,0,0,1,.621-1.478,6.654,6.654,0,0,1,1.569-1.433l-2.257-1.3,1.32-.756,2.257,1.275a16.013,16.013,0,0,1,3.273-1.2,22.655,22.655,0,0,1,3.262-.587Zm-6.467,3.984a2.749,2.749,0,0,0,1.648.361,11.545,11.545,0,0,0,2.257-.508l-3.555-2.054C-538.288,211.549-538.4,212.294-537.329,212.9Zm12.482,1.05a2.766,2.766,0,0,0-1.772-.316,13.377,13.377,0,0,0-2.494.542l3.544,2.043c1.512-.925,1.749-1.682.722-2.268Z" transform="translate(563.613 -193.695)" fill="#cc8b09"/>
          <path id="Caminho_8626" data-name="Caminho 8626" d="M-534,217.087a12.225,12.225,0,0,0,0-1.287l1.456.937-.632.971Z" transform="translate(564.652 -192.529)" fill="#cc8b09"/>
          <path id="Caminho_8627" data-name="Caminho 8627" d="M-522.371,217.807V216.52l-3.149.248,1.806,1.23Z" transform="translate(565.743 -192.436)" fill="#cc8b09"/>
          <path id="Caminho_8628" data-name="Caminho 8628" d="M-522.233,213.638v-1.3l-2.347.846Z" transform="translate(565.863 -192.974)" fill="#cc8b09"/>
          <path id="Caminho_8629" data-name="Caminho 8629" d="M-531.14,213.516l.779-.756,2.765,1.907-.169.564s-2.065-.869-2.133-.914S-531.14,213.516-531.14,213.516Z" transform="translate(565.02 -192.92)" fill="#cc8b09"/>
          <path id="Caminho_8630" data-name="Caminho 8630" d="M-537.55,209.945l3.668,2.077.745-.542s-.463-.53-.5-.587a4.7,4.7,0,0,0-1.129-.948c-.26-.045-2.009-.835-2.009-.835Z" transform="translate(564.196 -193.389)" fill="#cc8b09"/>
          <path id="Caminho_8631" data-name="Caminho 8631" d="M-531.906,208.878v-1.287l-1.693-.542-.361,1,.09.463Z" transform="translate(564.657 -193.654)" fill="#cc8b09"/>
          <path id="Caminho_8632" data-name="Caminho 8632" d="M-542.06,208V206.71l1.953.214-.632,1.241Z" transform="translate(563.616 -193.697)" fill="#cc8b09"/>
          <path id="Caminho_8633" data-name="Caminho 8633" d="M-542,211.862V210.53h2.257l-.553,1.185-.971,1.072Z" transform="translate(563.624 -193.206)" fill="#cc8b09"/>
          <path id="Caminho_8634" data-name="Caminho 8634" d="M-530.859,207.78a4.669,4.669,0,0,0-.869.068c-.4.056-.835.135-1.309.226a15.048,15.048,0,0,0-1.512.395,10.045,10.045,0,0,0-1.478.564l3.8,2.189.677-.237c.971-.316,1.885-.6,2.742-.813a12.442,12.442,0,0,1,2.46-.406,8.418,8.418,0,0,1,2.257.147,7.18,7.18,0,0,1,2.167.846,4.4,4.4,0,0,1,1.636,1.445,1.933,1.933,0,0,1,.237,1.478,3.264,3.264,0,0,1-.892,1.467,9.351,9.351,0,0,1-1.738,1.377l2.427,1.388-1.32.767-2.438-1.354a19.316,19.316,0,0,1-3.623,1.366,23.224,23.224,0,0,1-4.006.756l-1.275-2.257a9.727,9.727,0,0,0,1.072-.079,15.9,15.9,0,0,0,1.591-.271q.88-.191,1.862-.474a13.408,13.408,0,0,0,1.851-.7l-3.781-2.178-.5.169-.508.158a25.949,25.949,0,0,1-2.618.734,11.79,11.79,0,0,1-2.257.3,7.866,7.866,0,0,1-1.964-.181,6.618,6.618,0,0,1-1.828-.745,4.514,4.514,0,0,1-1.58-1.354A2.26,2.26,0,0,1-542,211.11a2.673,2.673,0,0,1,.621-1.478,6.683,6.683,0,0,1,1.535-1.4l-2.257-1.3,1.32-.756,2.257,1.275a16.715,16.715,0,0,1,3.273-1.2,24.207,24.207,0,0,1,3.262-.587Zm-6.467,3.984a2.753,2.753,0,0,0,1.648.35,10.106,10.106,0,0,0,2.257-.508l-3.555-2.054c-1.309.858-1.422,1.591-.35,2.212Zm12.482,1.038a2.766,2.766,0,0,0-1.772-.316,15.546,15.546,0,0,0-2.494.542l3.544,2.043c1.512-.914,1.749-1.682.722-2.257Z" transform="translate(563.611 -193.831)" fill="#f9ca06"/>
        </g>
        <g id="Coin-5" transform="translate(40.279 248.84)">
          <ellipse id="Elipse_14" data-name="Elipse 14" cx="33.09" cy="19.107" rx="33.09" ry="19.107" transform="translate(0 8.193)" fill="#dd990e"/>
          <path id="Caminho_8635" data-name="Caminho 8635" d="M-562.94,211.921v-8.7l6.534,5.823Z" transform="translate(562.963 -184.339)" fill="#dd990e"/>
          <path id="Caminho_8636" data-name="Caminho 8636" d="M-503.753,203.42v8.193l-3.341,3.544-1.636-9.367Z" transform="translate(569.933 -184.313)" fill="#dd990e"/>
          <ellipse id="Elipse_15" data-name="Elipse 15" cx="33.09" cy="19.107" rx="33.09" ry="19.107" fill="#f9cb07"/>
          <path id="Caminho_8637" data-name="Caminho 8637" d="M-507.3,205.652c-.327,3.216-2.618,6.388-6.884,8.848-9.254,5.338-24.253,5.338-33.508,0-4.255-2.46-6.557-5.643-6.884-8.848-.395-3.769,1.907-7.618,6.884-10.484,9.254-5.349,24.253-5.349,33.508,0C-509.206,197.977-506.9,201.826-507.3,205.652Z" transform="translate(564.033 -185.89)" fill="#cc8b09"/>
          <path id="Caminho_8638" data-name="Caminho 8638" d="M-507.3,205.465c-.327,3.216-2.618,6.388-6.884,8.848-9.254,5.338-24.253,5.338-33.508,0-4.255-2.46-6.557-5.643-6.884-8.848.327-3.216,2.63-6.388,6.884-8.848,9.254-5.349,24.253-5.349,33.508,0C-509.911,199.021-507.654,202.192-507.3,205.465Z" transform="translate(564.038 -185.704)" fill="#e8a30a"/>
          <path id="Caminho_8639" data-name="Caminho 8639" d="M-532.661,200.248a5.9,5.9,0,0,0-.869.068c-.395.056-.824.135-1.309.237s-.993.237-1.512.395a8.869,8.869,0,0,0-1.478.564l3.8,2.122.677-.237c.971-.327,1.885-.6,2.742-.824a12.527,12.527,0,0,1,2.46-.406,8.857,8.857,0,0,1,2.257.158,7.178,7.178,0,0,1,2.167.846,4.293,4.293,0,0,1,1.636,1.433,1.962,1.962,0,0,1,.237,1.49,3.264,3.264,0,0,1-.892,1.467,8.549,8.549,0,0,1-1.738,1.366l2.438,1.478-1.32.767-2.438-1.411a20.583,20.583,0,0,1-3.634,1.366,24.414,24.414,0,0,1-4.006.756l-1.275-2.257a9.693,9.693,0,0,0,1.129-.079q.711-.09,1.591-.271c.587-.135,1.208-.293,1.862-.485a12.122,12.122,0,0,0,1.862-.688l-3.849-2.212-.485.169-.519.158c-.959.316-1.828.553-2.618.734a11.794,11.794,0,0,1-2.257.3,7.924,7.924,0,0,1-1.964-.192,6.6,6.6,0,0,1-1.828-.734,4.731,4.731,0,0,1-1.58-1.354,2.26,2.26,0,0,1-.429-1.467,2.672,2.672,0,0,1,.621-1.478,6.76,6.76,0,0,1,1.546-1.4l-2.257-1.3,1.32-.756,2.257,1.275a15.676,15.676,0,0,1,3.262-1.2,22.844,22.844,0,0,1,3.262-.587Zm-6.467,4a2.833,2.833,0,0,0,1.648.35,11.791,11.791,0,0,0,2.257-.508l-3.566-2.054c-1.3.835-1.411,1.6-.339,2.189Zm12.493,1.038a2.808,2.808,0,0,0-1.783-.316,13.155,13.155,0,0,0-2.483.542l3.532,2.043c1.512-.948,1.761-1.659.734-2.291Z" transform="translate(565.412 -185.001)" fill="#cc8b09"/>
          <path id="Caminho_8640" data-name="Caminho 8640" d="M-535.76,208.4a12.225,12.225,0,0,0,0-1.287l1.456.937-.632.971Z" transform="translate(566.457 -183.839)" fill="#cc8b09"/>
          <path id="Caminho_8641" data-name="Caminho 8641" d="M-524.171,209.117V207.83l-3.149.248,1.806,1.23Z" transform="translate(567.543 -183.746)" fill="#cc8b09"/>
          <path id="Caminho_8642" data-name="Caminho 8642" d="M-524.033,204.948v-1.3l-2.347.858Z" transform="translate(567.664 -184.284)" fill="#cc8b09"/>
          <path id="Caminho_8643" data-name="Caminho 8643" d="M-532.94,204.826l.779-.756,2.765,1.919-.169.553s-2.065-.869-2.133-.914S-532.94,204.826-532.94,204.826Z" transform="translate(566.82 -184.23)" fill="#cc8b09"/>
          <path id="Caminho_8644" data-name="Caminho 8644" d="M-539.35,201.255l3.668,2.077.745-.542s-.451-.53-.485-.587a4.7,4.7,0,0,0-1.129-.948c-.26-.045-2.009-.835-2.009-.835Z" transform="translate(565.996 -184.699)" fill="#cc8b09"/>
          <path id="Caminho_8645" data-name="Caminho 8645" d="M-533.707,200.188v-1.275l-1.693-.553-.35,1,.079.463Z" transform="translate(566.459 -184.964)" fill="#cc8b09"/>
          <path id="Caminho_8646" data-name="Caminho 8646" d="M-543.86,199.307V198.02l1.952.214-.632,1.241Z" transform="translate(565.416 -185.007)" fill="#cc8b09"/>
          <path id="Caminho_8647" data-name="Caminho 8647" d="M-543.8,203.152V201.82h2.257l-.553,1.129-.971,1.129Z" transform="translate(565.424 -184.519)" fill="#cc8b09"/>
          <path id="Caminho_8648" data-name="Caminho 8648" d="M-532.666,199.1a4.665,4.665,0,0,0-.869.068c-.395.056-.824.135-1.309.237s-.993.226-1.512.384a10.053,10.053,0,0,0-1.478.564l3.8,2.2.677-.248q1.456-.474,2.742-.813a12.528,12.528,0,0,1,2.46-.406,8.326,8.326,0,0,1,2.257.147,7.179,7.179,0,0,1,2.167.846,4.314,4.314,0,0,1,1.636,1.445,1.933,1.933,0,0,1,.237,1.478,3.264,3.264,0,0,1-.892,1.467,9.029,9.029,0,0,1-1.738,1.377l2.427,1.388-1.32.767-2.438-1.411a20.588,20.588,0,0,1-3.634,1.377,24.272,24.272,0,0,1-4.006.745l-1.275-2.257a9.692,9.692,0,0,0,1.129-.079,15.894,15.894,0,0,0,1.591-.271q.88-.191,1.862-.474a13.551,13.551,0,0,0,1.862-.7l-3.792-2.178-.485.169-.519.158a25.946,25.946,0,0,1-2.618.734,11.792,11.792,0,0,1-2.257.3,7.868,7.868,0,0,1-1.964-.181,6.617,6.617,0,0,1-1.828-.745,4.514,4.514,0,0,1-1.58-1.354,2.261,2.261,0,0,1-.429-1.467,2.673,2.673,0,0,1,.621-1.478,6.758,6.758,0,0,1,1.546-1.4l-2.257-1.3,1.32-.756,2.257,1.287a15.712,15.712,0,0,1,3.262-1.208,24.594,24.594,0,0,1,3.262-.587Zm-6.467,3.984a2.753,2.753,0,0,0,1.648.35,10.261,10.261,0,0,0,2.257-.508l-3.566-2.054C-540.092,201.726-540.2,202.46-539.133,203.081Zm12.493,1.038a2.894,2.894,0,0,0-1.783-.316,15.2,15.2,0,0,0-2.483.542l3.532,2.043C-525.86,205.473-525.612,204.717-526.639,204.119Z" transform="translate(565.417 -185.148)" fill="#f9ca06"/>
        </g>
        <g id="Coin-6" transform="translate(43.055 239.925)">
          <ellipse id="Elipse_16" data-name="Elipse 16" cx="33.09" cy="19.107" rx="33.09" ry="19.107" transform="translate(0 8.182)" fill="#dd990e"/>
          <path id="Caminho_8649" data-name="Caminho 8649" d="M-560.48,204.023V195.31l6.534,5.823Z" transform="translate(560.503 -176.44)" fill="#dd990e"/>
          <path id="Caminho_8650" data-name="Caminho 8650" d="M-501.293,195.52V203.7l-3.341,3.544-1.636-9.367Z" transform="translate(567.473 -176.413)" fill="#dd990e"/>
          <ellipse id="Elipse_17" data-name="Elipse 17" cx="33.09" cy="19.107" rx="33.09" ry="19.107" fill="#f9cb07"/>
          <path id="Caminho_8651" data-name="Caminho 8651" d="M-504.839,197.652c-.327,3.216-2.63,6.388-6.884,8.848-9.254,5.338-24.253,5.338-33.508,0-4.266-2.46-6.557-5.643-6.884-8.848-.395-3.769,1.907-7.618,6.884-10.484,9.254-5.349,24.253-5.349,33.508,0C-506.746,190.079-504.444,193.927-504.839,197.652Z" transform="translate(561.573 -178.003)" fill="#cc8b09"/>
          <path id="Caminho_8652" data-name="Caminho 8652" d="M-504.844,197.465c-.327,3.216-2.63,6.388-6.884,8.848-9.254,5.338-24.253,5.338-33.508,0-4.266-2.46-6.557-5.643-6.884-8.848.327-3.216,2.618-6.388,6.884-8.848,9.254-5.349,24.253-5.349,33.508,0C-507.473,191.123-505.171,194.294-504.844,197.465Z" transform="translate(561.578 -177.817)" fill="#e8a30a"/>
          <path id="Caminho_8653" data-name="Caminho 8653" d="M-530.2,192.331a4.669,4.669,0,0,0-.869.068c-.395.056-.824.124-1.309.226s-.993.237-1.512.4a10.047,10.047,0,0,0-1.478.564l3.8,2.189.677-.237c.971-.316,1.885-.6,2.743-.813a12.527,12.527,0,0,1,2.46-.406,8.418,8.418,0,0,1,2.257.147,7.179,7.179,0,0,1,2.167.846,4.312,4.312,0,0,1,1.648,1.445,1.933,1.933,0,0,1,.237,1.478,3.264,3.264,0,0,1-.892,1.467,9.349,9.349,0,0,1-1.738,1.377l2.426,1.388-1.32.767-2.438-1.411a19.806,19.806,0,0,1-3.634,1.366,23.226,23.226,0,0,1-4.006.756l-1.275-2.257a9.693,9.693,0,0,0,1.129-.079q.711-.09,1.591-.271t1.862-.474a12.753,12.753,0,0,0,1.851-.7l-3.837-2.212-.5.169-.508.158a25.95,25.95,0,0,1-2.618.734,11.792,11.792,0,0,1-2.257.3,7.868,7.868,0,0,1-1.964-.181,6.617,6.617,0,0,1-1.828-.745,4.513,4.513,0,0,1-1.58-1.354,2.26,2.26,0,0,1-.429-1.467,2.672,2.672,0,0,1,.621-1.478,6.519,6.519,0,0,1,1.546-1.4l-2.257-1.3,1.32-.756,2.257,1.275a16.378,16.378,0,0,1,3.262-1.2,24.6,24.6,0,0,1,3.262-.587Zm-6.467,3.984a2.753,2.753,0,0,0,1.648.35,10.26,10.26,0,0,0,2.257-.508l-3.566-2.054C-537.627,194.96-537.74,195.694-536.667,196.315Zm12.493,1.038a2.807,2.807,0,0,0-1.783-.316,15.2,15.2,0,0,0-2.483.542l3.532,2.043C-523.4,198.707-523.158,197.94-524.174,197.353Z" transform="translate(562.952 -177.106)" fill="#cc8b09"/>
          <path id="Caminho_8654" data-name="Caminho 8654" d="M-533.3,200.485a12.044,12.044,0,0,0,0-1.275l1.467.892-.632.982Z" transform="translate(563.997 -175.939)" fill="#cc8b09"/>
          <path id="Caminho_8655" data-name="Caminho 8655" d="M-521.711,201.205V199.93l-3.149.237,1.806,1.23Z" transform="translate(565.083 -175.846)" fill="#cc8b09"/>
          <path id="Caminho_8656" data-name="Caminho 8656" d="M-521.573,197.038v-1.3l-2.347.858Z" transform="translate(565.203 -176.385)" fill="#cc8b09"/>
          <path id="Caminho_8657" data-name="Caminho 8657" d="M-530.48,196.915l.779-.745,2.765,1.907-.169.564s-2.065-.869-2.133-.925Z" transform="translate(564.36 -176.33)" fill="#cc8b09"/>
          <path id="Caminho_8658" data-name="Caminho 8658" d="M-536.89,193.345l3.668,2.077.745-.542-.485-.576a4.645,4.645,0,0,0-1.129-.959c-.271-.056-2.009-.835-2.009-.835Z" transform="translate(563.536 -176.8)" fill="#cc8b09"/>
          <path id="Caminho_8659" data-name="Caminho 8659" d="M-531.246,192.278V191l-1.693-.553-.361,1,.09.463Z" transform="translate(563.997 -177.065)" fill="#cc8b09"/>
          <path id="Caminho_8660" data-name="Caminho 8660" d="M-541.4,191.4V190.12l1.953.2-.632,1.253Z" transform="translate(562.956 -177.107)" fill="#cc8b09"/>
          <path id="Caminho_8661" data-name="Caminho 8661" d="M-541.34,195.262V193.93h2.257l-.564,1.208-.971,1.061Z" transform="translate(562.964 -176.618)" fill="#cc8b09"/>
          <path id="Caminho_8662" data-name="Caminho 8662" d="M-530.2,191.191a4.671,4.671,0,0,0-.869.068c-.395.056-.824.135-1.309.237s-.993.226-1.512.384a11.356,11.356,0,0,0-1.478.564l3.8,2.2.677-.248q1.456-.474,2.743-.813a12.527,12.527,0,0,1,2.46-.406,8.906,8.906,0,0,1,2.257.147,7.522,7.522,0,0,1,2.167.846,4.314,4.314,0,0,1,1.636,1.445,1.962,1.962,0,0,1,.237,1.49,3.231,3.231,0,0,1-.892,1.456,8.942,8.942,0,0,1-1.738,1.377l2.426,1.4-1.32.756-2.438-1.411a19.732,19.732,0,0,1-3.634,1.377,24.272,24.272,0,0,1-4.006.745l-1.275-2.257a10.2,10.2,0,0,0,1.129-.09,14.589,14.589,0,0,0,1.591-.271q.88-.181,1.862-.474a12.83,12.83,0,0,0,1.851-.688l-3.826-2.212c-.158.056-.327.124-.5.169l-.508.158c-.959.316-1.828.564-2.618.745a12.778,12.778,0,0,1-2.257.293A7.361,7.361,0,0,1-537.5,198a6.994,6.994,0,0,1-1.828-.734,4.614,4.614,0,0,1-1.58-1.366,2.26,2.26,0,0,1-.429-1.467,2.712,2.712,0,0,1,.621-1.478,6.758,6.758,0,0,1,1.546-1.4l-2.257-1.287,1.32-.767,2.257,1.287a15.675,15.675,0,0,1,3.262-1.2,22.992,22.992,0,0,1,3.262-.6Zm-6.467,3.984a2.749,2.749,0,0,0,1.648.361,11.793,11.793,0,0,0,2.257-.508l-3.566-2.065C-537.627,193.82-537.74,194.554-536.667,195.175Zm12.493,1.038a2.894,2.894,0,0,0-1.783-.316,14.166,14.166,0,0,0-2.483.553l3.532,2.043C-523.4,197.567-523.158,196.811-524.174,196.213Z" transform="translate(562.952 -177.253)" fill="#f9ca06"/>
        </g>
        <g id="Coin-7" transform="translate(41.317 230.806)">
          <ellipse id="Elipse_18" data-name="Elipse 18" cx="33.09" cy="19.107" rx="33.09" ry="19.107" transform="translate(0 8.182)" fill="#dd990e"/>
          <path id="Caminho_8663" data-name="Caminho 8663" d="M-562.03,195.941v-8.7l6.535,5.812Z" transform="translate(562.041 -168.359)" fill="#dd990e"/>
          <path id="Caminho_8664" data-name="Caminho 8664" d="M-502.843,187.44v8.182l-3.341,3.544-1.636-9.367Z" transform="translate(569.012 -168.333)" fill="#dd990e"/>
          <ellipse id="Elipse_19" data-name="Elipse 19" cx="33.09" cy="19.107" rx="33.09" ry="19.107" fill="#f9cb07"/>
          <path id="Caminho_8665" data-name="Caminho 8665" d="M-506.379,189.652c-.339,3.216-2.63,6.388-6.9,8.848-9.254,5.338-24.242,5.338-33.5,0-4.266-2.46-6.557-5.643-6.884-8.848-.406-3.758,1.9-7.607,6.884-10.484,9.254-5.349,24.242-5.349,33.5,0C-508.286,182-505.984,185.848-506.379,189.652Z" transform="translate(563.112 -169.913)" fill="#cc8b09"/>
          <path id="Caminho_8666" data-name="Caminho 8666" d="M-506.384,189.465c-.339,3.216-2.63,6.388-6.9,8.848-9.254,5.338-24.242,5.338-33.5,0-4.266-2.46-6.557-5.643-6.884-8.848.327-3.216,2.618-6.388,6.884-8.848,9.254-5.349,24.242-5.349,33.5,0C-509.013,183.032-506.722,186.2-506.384,189.465Z" transform="translate(563.118 -169.726)" fill="#e8a30a"/>
          <path id="Caminho_8667" data-name="Caminho 8667" d="M-531.714,184.251a4.671,4.671,0,0,0-.869.068c-.384.056-.824.135-1.309.237s-.982.226-1.5.384a12.353,12.353,0,0,0-1.49.564l3.8,2.2.688-.248c.971-.316,1.873-.587,2.731-.813a12.557,12.557,0,0,1,2.472-.406,8.8,8.8,0,0,1,2.257.147,6.973,6.973,0,0,1,2.167.846,4.227,4.227,0,0,1,1.636,1.445,1.9,1.9,0,0,1,.248,1.478,3.376,3.376,0,0,1-.892,1.467A9.258,9.258,0,0,1-523.509,193l2.381,1.411-1.32.767-2.438-1.411a20.48,20.48,0,0,1-3.623,1.377,24.51,24.51,0,0,1-4.006.745l-1.275-2.257a7.406,7.406,0,0,0,1.061-.079c.485-.056,1.016-.147,1.6-.271s1.208-.282,1.851-.474a12.17,12.17,0,0,0,1.862-.7l-3.781-2.212-.5.169-.519.158c-.948.316-1.817.564-2.618.745a12.782,12.782,0,0,1-2.257.293,7.952,7.952,0,0,1-1.975-.181,6.953,6.953,0,0,1-1.828-.745,4.6,4.6,0,0,1-1.58-1.354,2.363,2.363,0,0,1-.429-1.467,2.731,2.731,0,0,1,.632-1.478,6.907,6.907,0,0,1,1.524-1.422L-543,183.325l1.32-.767,2.257,1.287a15.93,15.93,0,0,1,3.262-1.208,24.764,24.764,0,0,1,3.273-.587Zm-6.467,3.984a2.753,2.753,0,0,0,1.648.35,9.981,9.981,0,0,0,2.257-.508l-3.566-2.054c-1.32.858-1.445,1.614-.372,2.212Zm12.493,1.038a2.879,2.879,0,0,0-1.783-.316,15.437,15.437,0,0,0-2.483.542l3.544,2.043c1.467-.914,1.715-1.648.688-2.268Z" transform="translate(564.488 -169.026)" fill="#cc8b09"/>
          <path id="Caminho_8668" data-name="Caminho 8668" d="M-534.84,192.405V191.13l1.456.937-.632.971Z" transform="translate(565.537 -167.859)" fill="#cc8b09"/>
          <path id="Caminho_8669" data-name="Caminho 8669" d="M-523.261,193.137V191.85l-3.149.237,1.817,1.23Z" transform="translate(566.621 -167.766)" fill="#cc8b09"/>
          <path id="Caminho_8670" data-name="Caminho 8670" d="M-523.111,188.958v-1.3l-2.359.858Z" transform="translate(566.742 -168.305)" fill="#cc8b09"/>
          <path id="Caminho_8671" data-name="Caminho 8671" d="M-532,188.835l.79-.745,2.765,1.907-.181.564s-2.054-.869-2.122-.925Z" transform="translate(565.903 -168.25)" fill="#cc8b09"/>
          <path id="Caminho_8672" data-name="Caminho 8672" d="M-538.44,185.268l3.668,2.065.756-.542-.542-.587a4.836,4.836,0,0,0-1.129-.959,15.083,15.083,0,0,1-2.009-.835Z" transform="translate(565.075 -168.723)" fill="#cc8b09"/>
          <path id="Caminho_8673" data-name="Caminho 8673" d="M-532.8,184.208v-1.287l-1.682-.542-.361,1,.09.451Z" transform="translate(565.537 -168.984)" fill="#cc8b09"/>
          <path id="Caminho_8674" data-name="Caminho 8674" d="M-542.95,183.327V182.04l1.953.2-.621,1.253Z" transform="translate(564.495 -169.028)" fill="#cc8b09"/>
          <path id="Caminho_8675" data-name="Caminho 8675" d="M-542.88,187.152V185.82h2.257l-.542,1.2-.971,1.061Z" transform="translate(564.504 -168.541)" fill="#cc8b09"/>
          <path id="Caminho_8676" data-name="Caminho 8676" d="M-531.714,183.111a4.67,4.67,0,0,0-.869.068c-.384.056-.824.135-1.309.237s-.982.226-1.5.384a12.353,12.353,0,0,0-1.49.564l3.8,2.2.688-.237c.971-.327,1.873-.6,2.731-.824a12.558,12.558,0,0,1,2.472-.406,8.282,8.282,0,0,1,2.257.158,7.2,7.2,0,0,1,2.167.835,4.314,4.314,0,0,1,1.636,1.445,1.918,1.918,0,0,1,.248,1.49,3.376,3.376,0,0,1-.892,1.467,9.678,9.678,0,0,1-1.738,1.366l2.415,1.4-1.32.756-2.438-1.411a19.6,19.6,0,0,1-3.623,1.377,24.511,24.511,0,0,1-4.006.745l-1.275-2.257a6,6,0,0,0,1.061-.079,14.518,14.518,0,0,0,1.6-.282c.587-.124,1.208-.282,1.851-.474a13.351,13.351,0,0,0,1.862-.688l-3.781-2.189-.553.158-.519.158c-.948.3-1.817.553-2.618.734a11.7,11.7,0,0,1-2.257.293,7.451,7.451,0,0,1-1.975-.181,7.27,7.27,0,0,1-1.828-.734,4.734,4.734,0,0,1-1.524-1.4,2.332,2.332,0,0,1-.429-1.467,2.769,2.769,0,0,1,.632-1.478,6.913,6.913,0,0,1,1.49-1.354l-2.257-1.3,1.32-.767,2.257,1.287a15.919,15.919,0,0,1,3.262-1.2,24.977,24.977,0,0,1,3.273-.6Zm-6.467,3.984a2.749,2.749,0,0,0,1.648.361,11.46,11.46,0,0,0,2.257-.508l-3.566-2.065c-1.32.858-1.445,1.591-.372,2.212Zm12.493,1.038a2.961,2.961,0,0,0-1.783-.316,14.4,14.4,0,0,0-2.483.553l3.544,2.043c1.467-.925,1.715-1.682.688-2.28Z" transform="translate(564.488 -169.173)" fill="#f9ca06"/>
        </g>
        <g id="Coin-8" transform="translate(134.312 349.363)">
          <ellipse id="Elipse_20" data-name="Elipse 20" cx="33.09" cy="19.107" rx="33.09" ry="19.107" transform="translate(0 8.182)" fill="#dd990e"/>
          <path id="Caminho_8677" data-name="Caminho 8677" d="M-479.63,300.991v-8.7l6.534,5.823Z" transform="translate(479.641 -273.409)" fill="#dd990e"/>
          <path id="Caminho_8678" data-name="Caminho 8678" d="M-420.443,292.49v8.182l-3.341,3.555-1.636-9.379Z" transform="translate(486.612 -273.383)" fill="#dd990e"/>
          <ellipse id="Elipse_21" data-name="Elipse 21" cx="33.09" cy="19.107" rx="33.09" ry="19.107" fill="#f9cb07"/>
          <path id="Caminho_8679" data-name="Caminho 8679" d="M-423.979,294.652c-.339,3.216-2.63,6.376-6.9,8.848-9.254,5.338-24.253,5.338-33.5,0-4.266-2.472-6.557-5.643-6.884-8.848-.406-3.769,1.9-7.618,6.884-10.5,9.243-5.338,24.242-5.338,33.5,0C-425.886,287.057-423.561,290.905-423.979,294.652Z" transform="translate(480.712 -274.97)" fill="#cc8b09"/>
          <path id="Caminho_8680" data-name="Caminho 8680" d="M-423.984,294.465c-.339,3.216-2.63,6.376-6.9,8.848-9.254,5.338-24.253,5.338-33.5,0-4.266-2.472-6.557-5.643-6.884-8.848.327-3.228,2.618-6.388,6.884-8.859,9.243-5.338,24.242-5.338,33.5,0C-426.613,288.1-424.322,291.26-423.984,294.465Z" transform="translate(480.717 -274.783)" fill="#e8a30a"/>
          <path id="Caminho_8681" data-name="Caminho 8681" d="M-449.349,289.3a4.674,4.674,0,0,0-.869.068c-.384.056-.824.135-1.309.237s-.982.226-1.5.384a12.352,12.352,0,0,0-1.49.564l3.8,2.2.688-.237c.959-.327,1.873-.6,2.731-.824a12.552,12.552,0,0,1,2.472-.406,8.281,8.281,0,0,1,2.257.158,7.336,7.336,0,0,1,2.167.835,4.314,4.314,0,0,1,1.636,1.445,1.918,1.918,0,0,1,.248,1.49,3.378,3.378,0,0,1-.892,1.467,9.674,9.674,0,0,1-1.738,1.366l2.415,1.4-1.32.756-2.438-1.411a19.461,19.461,0,0,1-3.634,1.377,24.138,24.138,0,0,1-4,.745l-1.275-2.257a6,6,0,0,0,1.061-.079,14.5,14.5,0,0,0,1.6-.282c.587-.124,1.208-.282,1.851-.474a13.354,13.354,0,0,0,1.862-.688l-3.781-2.246-.5.181-.519.158c-.948.3-1.828.553-2.618.734a11.7,11.7,0,0,1-2.257.293,7.449,7.449,0,0,1-1.975-.181,7.269,7.269,0,0,1-1.828-.734,4.728,4.728,0,0,1-1.58-1.366,2.261,2.261,0,0,1-.429-1.467,2.773,2.773,0,0,1,.632-1.478,6.66,6.66,0,0,1,1.535-1.388l-2.257-1.3,1.32-.767,2.257,1.287a15.92,15.92,0,0,1,3.262-1.2,24.981,24.981,0,0,1,3.273-.6Zm-6.467,3.984a2.749,2.749,0,0,0,1.648.361,11.464,11.464,0,0,0,2.257-.508l-3.5-2.065C-456.764,291.934-456.888,292.634-455.816,293.288Zm12.493,1.038a2.96,2.96,0,0,0-1.783-.316,14.4,14.4,0,0,0-2.483.553l3.544,2.043c1.5-.925,1.749-1.715.722-2.28Z" transform="translate(482.089 -274.08)" fill="#cc8b09"/>
          <path id="Caminho_8682" data-name="Caminho 8682" d="M-452.44,297.467V296.18l1.456.937-.632.971Z" transform="translate(483.137 -272.909)" fill="#cc8b09"/>
          <path id="Caminho_8683" data-name="Caminho 8683" d="M-440.861,298.187V296.9l-3.149.248,1.817,1.23Z" transform="translate(484.221 -272.816)" fill="#cc8b09"/>
          <path id="Caminho_8684" data-name="Caminho 8684" d="M-440.711,294.018v-1.3l-2.359.846Z" transform="translate(484.342 -273.354)" fill="#cc8b09"/>
          <path id="Caminho_8685" data-name="Caminho 8685" d="M-449.63,293.9l.79-.756,2.765,1.907-.181.564s-2.054-.869-2.122-.914Z" transform="translate(483.499 -273.3)" fill="#cc8b09"/>
          <path id="Caminho_8686" data-name="Caminho 8686" d="M-456,290.314l3.668,2.088.756-.553s-.463-.519-.5-.576a4.836,4.836,0,0,0-1.129-.959,15.413,15.413,0,0,1-2.02-.824Z" transform="translate(482.68 -273.769)" fill="#cc8b09"/>
          <path id="Caminho_8687" data-name="Caminho 8687" d="M-450.4,289.258v-1.287l-1.682-.542-.361,1,.09.463Z" transform="translate(483.137 -274.034)" fill="#cc8b09"/>
          <path id="Caminho_8688" data-name="Caminho 8688" d="M-460.55,288.377V287.09l1.952.214-.621,1.241Z" transform="translate(482.095 -274.077)" fill="#cc8b09"/>
          <path id="Caminho_8689" data-name="Caminho 8689" d="M-460.48,292.243V290.9h2.257l-.587,1.241-.971,1.129Z" transform="translate(482.104 -273.588)" fill="#cc8b09"/>
          <path id="Caminho_8690" data-name="Caminho 8690" d="M-449.349,288.156a8.6,8.6,0,0,0-.869.068,7.193,7.193,0,0,0-1.309.237c-.485.1-.982.237-1.5.4a10.772,10.772,0,0,0-1.49.564l3.8,2.189.688-.237c.959-.327,1.873-.6,2.731-.824a13.37,13.37,0,0,1,2.472-.406,8.754,8.754,0,0,1,2.257.158,7.067,7.067,0,0,1,2.167.846,4.215,4.215,0,0,1,1.636,1.433,1.918,1.918,0,0,1,.248,1.49,3.377,3.377,0,0,1-.892,1.467,9.2,9.2,0,0,1-1.738,1.366l2.415,1.4-1.32.767-2.438-1.411a19.421,19.421,0,0,1-3.634,1.366,23.115,23.115,0,0,1-4,.756l-1.275-2.257a9.56,9.56,0,0,0,1.061-.079c.485-.056,1.016-.147,1.6-.271s1.208-.293,1.851-.474a13.556,13.556,0,0,0,1.862-.7l-3.781-2.178-.5.169-.519.158c-.948.316-1.828.553-2.618.734a11.793,11.793,0,0,1-2.257.3,8.014,8.014,0,0,1-1.975-.192,6.555,6.555,0,0,1-1.828-.734,4.719,4.719,0,0,1-1.58-1.354,2.261,2.261,0,0,1-.429-1.467,2.7,2.7,0,0,1,.632-1.478,6.425,6.425,0,0,1,1.535-1.4l-2.257-1.3,1.32-.756,2.257,1.275a16.617,16.617,0,0,1,3.262-1.2,23,23,0,0,1,3.273-.587Zm-6.467,4a2.754,2.754,0,0,0,1.648.35,9.986,9.986,0,0,0,2.257-.508l-3.5-2.054C-456.764,290.8-456.888,291.53-455.816,292.151Zm12.493,1.038a2.8,2.8,0,0,0-1.783-.316,14.264,14.264,0,0,0-2.483.542l3.544,2.043c1.5-.925,1.749-1.682.722-2.268Z" transform="translate(482.089 -274.218)" fill="#f9ca06"/>
        </g>
        <g id="Coin-9" transform="translate(137.01 339.183)">
          <ellipse id="Elipse_22" data-name="Elipse 22" cx="33.09" cy="19.107" rx="33.09" ry="19.107" transform="translate(0 8.182)" fill="#dd990e"/>
          <path id="Caminho_8691" data-name="Caminho 8691" d="M-477.23,291.973V283.26l6.534,5.823Z" transform="translate(477.253 -264.39)" fill="#dd990e"/>
          <path id="Caminho_8692" data-name="Caminho 8692" d="M-418.043,283.46v8.194l-3.341,3.544-1.636-9.367Z" transform="translate(484.223 -264.364)" fill="#dd990e"/>
          <ellipse id="Elipse_23" data-name="Elipse 23" cx="33.09" cy="19.107" rx="33.09" ry="19.107" fill="#f9cb07"/>
          <path id="Caminho_8693" data-name="Caminho 8693" d="M-421.609,285.652c-.327,3.216-2.63,6.388-6.884,8.848-9.254,5.338-24.253,5.338-33.508,0-4.266-2.46-6.557-5.643-6.884-8.848-.4-3.769,1.907-7.618,6.884-10.484,9.254-5.349,24.253-5.349,33.508,0C-423.494,278.022-421.191,281.871-421.609,285.652Z" transform="translate(478.32 -265.947)" fill="#cc8b09"/>
          <path id="Caminho_8694" data-name="Caminho 8694" d="M-421.614,285.465c-.327,3.216-2.63,6.388-6.884,8.848-9.254,5.338-24.253,5.338-33.508,0-4.266-2.46-6.557-5.643-6.884-8.848.327-3.216,2.618-6.388,6.884-8.848,9.254-5.349,24.253-5.349,33.508,0C-424.221,279.066-421.919,282.237-421.614,285.465Z" transform="translate(478.325 -265.76)" fill="#e8a30a"/>
          <path id="Caminho_8695" data-name="Caminho 8695" d="M-446.946,280.24a6.406,6.406,0,0,0-.869.079c-.4.056-.824.124-1.309.226s-.993.237-1.512.395a10.053,10.053,0,0,0-1.478.564l3.8,2.189.677-.237c.971-.316,1.885-.6,2.742-.824a14.513,14.513,0,0,1,2.46-.406,8.857,8.857,0,0,1,2.257.158,7.179,7.179,0,0,1,2.167.846,4.394,4.394,0,0,1,1.636,1.433,1.962,1.962,0,0,1,.237,1.49,3.264,3.264,0,0,1-.892,1.467A9.35,9.35,0,0,1-438.763,289l2.426,1.388-1.32.767-2.438-1.411a19.8,19.8,0,0,1-3.634,1.366,23.223,23.223,0,0,1-4.006.756l-1.275-2.257a9.686,9.686,0,0,0,1.129-.079q.711-.09,1.591-.271c.587-.124,1.208-.293,1.862-.474a12.754,12.754,0,0,0,1.851-.7l-3.826-2.2-.5.169-.508.158a25.721,25.721,0,0,1-2.663.8,11.7,11.7,0,0,1-2.257.3,7.324,7.324,0,0,1-1.964-.192,6.254,6.254,0,0,1-1.828-.734,4.514,4.514,0,0,1-1.58-1.354,2.261,2.261,0,0,1-.429-1.467,2.672,2.672,0,0,1,.621-1.478,6.522,6.522,0,0,1,1.546-1.4l-2.257-1.3,1.32-.756,2.257,1.275a16.375,16.375,0,0,1,3.262-1.2,24.6,24.6,0,0,1,3.262-.587Zm-6.512,4.018a2.753,2.753,0,0,0,1.648.35,10.263,10.263,0,0,0,2.257-.508l-3.566-2.054C-454.372,282.9-454.484,283.626-453.457,284.258Zm12.493,1.038a2.807,2.807,0,0,0-1.783-.316,15.2,15.2,0,0,0-2.483.542l3.532,2.043c1.557-.914,1.783-1.682.779-2.268Z" transform="translate(479.697 -265.05)" fill="#cc8b09"/>
          <path id="Caminho_8696" data-name="Caminho 8696" d="M-450,288.435a12.012,12.012,0,0,0,0-1.275l1.456.925-.632.971Z" transform="translate(480.754 -263.889)" fill="#cc8b09"/>
          <path id="Caminho_8697" data-name="Caminho 8697" d="M-438.461,289.155V287.88l-3.149.237,1.806,1.23Z" transform="translate(481.833 -263.796)" fill="#cc8b09"/>
          <path id="Caminho_8698" data-name="Caminho 8698" d="M-438.323,284.988v-1.3l-2.347.858Z" transform="translate(481.953 -264.335)" fill="#cc8b09"/>
          <path id="Caminho_8699" data-name="Caminho 8699" d="M-447.23,284.866l.779-.756,2.765,1.919-.169.564s-2.065-.869-2.133-.925S-447.23,284.866-447.23,284.866Z" transform="translate(481.11 -264.281)" fill="#cc8b09"/>
          <path id="Caminho_8700" data-name="Caminho 8700" d="M-453.64,281.3l3.668,2.077.745-.542s-.451-.53-.485-.587a4.888,4.888,0,0,0-1.129-.948c-.271-.056-2.009-.835-2.009-.835Z" transform="translate(480.286 -264.75)" fill="#cc8b09"/>
          <path id="Caminho_8701" data-name="Caminho 8701" d="M-448,280.228v-1.275l-1.693-.553-.361,1,.09.463Z" transform="translate(480.747 -265.015)" fill="#cc8b09"/>
          <path id="Caminho_8702" data-name="Caminho 8702" d="M-458.15,279.345V278.07l1.952.2-.632,1.253Z" transform="translate(479.706 -265.057)" fill="#cc8b09"/>
          <path id="Caminho_8703" data-name="Caminho 8703" d="M-458.09,283.212V281.88h2.257l-.553,1.2-.971,1.061Z" transform="translate(479.714 -264.568)" fill="#cc8b09"/>
          <path id="Caminho_8704" data-name="Caminho 8704" d="M-446.956,279.138a4.667,4.667,0,0,0-.869.068c-.4.056-.824.135-1.309.237s-.993.226-1.512.384a11.36,11.36,0,0,0-1.478.564l3.8,2.2.677-.248q1.456-.474,2.742-.813a12.526,12.526,0,0,1,2.46-.406,8.856,8.856,0,0,1,2.257.147,7.179,7.179,0,0,1,2.167.846,4.315,4.315,0,0,1,1.636,1.445,1.943,1.943,0,0,1,.237,1.478,3.2,3.2,0,0,1-.892,1.467,8.906,8.906,0,0,1-1.738,1.377l2.426,1.4-1.32.756-2.438-1.411a19.731,19.731,0,0,1-3.634,1.377,24.273,24.273,0,0,1-4.006.745l-1.275-2.257a10.217,10.217,0,0,0,1.129-.09,15.9,15.9,0,0,0,1.591-.271q.88-.191,1.862-.474a12.835,12.835,0,0,0,1.851-.688l-3.781-2.189-.5.169-.508.158c-.959.316-1.828.564-2.618.745a12.575,12.575,0,0,1-2.257.293,7.362,7.362,0,0,1-1.964-.181,7,7,0,0,1-1.828-.734,4.613,4.613,0,0,1-1.58-1.366,2.26,2.26,0,0,1-.429-1.467,2.713,2.713,0,0,1,.621-1.478,6.762,6.762,0,0,1,1.546-1.4l-2.257-1.287,1.32-.767,2.257,1.287a16.387,16.387,0,0,1,3.262-1.208,24.6,24.6,0,0,1,3.262-.587Zm-6.512,3.984a2.749,2.749,0,0,0,1.648.361,11.061,11.061,0,0,0,2.257-.519l-3.566-2.054C-454.382,281.768-454.495,282.5-453.468,283.122Zm12.493,1.038a2.894,2.894,0,0,0-1.783-.316,14.176,14.176,0,0,0-2.483.553l3.532,2.043c1.557-.925,1.783-1.682.779-2.28Z" transform="translate(479.707 -265.2)" fill="#f9ca06"/>
        </g>
        <g id="Coin-10" transform="translate(134.978 329.376)">
          <ellipse id="Elipse_24" data-name="Elipse 24" cx="33.09" cy="19.107" rx="33.09" ry="19.107" transform="translate(0 8.182)" fill="#dd990e"/>
          <path id="Caminho_8705" data-name="Caminho 8705" d="M-479.03,283.283V274.57l6.534,5.823Z" transform="translate(479.053 -255.7)" fill="#dd990e"/>
          <path id="Caminho_8706" data-name="Caminho 8706" d="M-419.843,274.78v8.182l-3.341,3.544-1.636-9.367Z" transform="translate(486.023 -255.673)" fill="#dd990e"/>
          <ellipse id="Elipse_25" data-name="Elipse 25" cx="33.09" cy="19.107" rx="33.09" ry="19.107" fill="#f9cb07"/>
          <path id="Caminho_8707" data-name="Caminho 8707" d="M-423.378,276.953c-.339,3.216-2.63,6.388-6.9,8.848-9.254,5.338-24.253,5.338-33.5,0-4.266-2.46-6.568-5.643-6.9-8.848-.372-3.724,1.885-7.618,6.9-10.5,9.243-5.349,24.242-5.349,33.5,0C-425.3,269.335-422.994,273.229-423.378,276.953Z" transform="translate(480.123 -257.259)" fill="#cc8b09"/>
          <path id="Caminho_8708" data-name="Caminho 8708" d="M-423.383,276.765c-.339,3.216-2.63,6.388-6.9,8.848-9.254,5.338-24.253,5.338-33.5,0-4.266-2.46-6.568-5.643-6.9-8.848.327-3.216,2.63-6.388,6.9-8.848,9.243-5.349,24.242-5.349,33.5,0C-426.012,270.377-423.721,273.549-423.383,276.765Z" transform="translate(480.128 -257.071)" fill="#e8a30a"/>
          <path id="Caminho_8709" data-name="Caminho 8709" d="M-448.719,271.576a6.41,6.41,0,0,0-.869.079c-.395.056-.824.124-1.309.226s-.982.237-1.512.4a10.042,10.042,0,0,0-1.478.564l3.8,2.189.677-.237c.971-.316,1.885-.6,2.742-.813a12.527,12.527,0,0,1,2.46-.406,8.327,8.327,0,0,1,2.257.147,7.179,7.179,0,0,1,2.167.846,4.314,4.314,0,0,1,1.636,1.445,1.933,1.933,0,0,1,.237,1.478,3.378,3.378,0,0,1-.88,1.467,9.746,9.746,0,0,1-1.738,1.377l2.415,1.388-1.32.767-2.438-1.411a19.805,19.805,0,0,1-3.634,1.366,23.337,23.337,0,0,1-4,.756l-1.275-2.257a9.539,9.539,0,0,0,1.061-.079,15.892,15.892,0,0,0,1.591-.271q.88-.191,1.862-.474a13.543,13.543,0,0,0,1.862-.7l-3.781-2.178-.5.169-.519.158a25.955,25.955,0,0,1-2.618.734,11.7,11.7,0,0,1-2.257.3,7.418,7.418,0,0,1-1.964-.192,6.255,6.255,0,0,1-1.828-.734,4.514,4.514,0,0,1-1.58-1.354,2.26,2.26,0,0,1-.429-1.467,2.749,2.749,0,0,1,.621-1.478,6.759,6.759,0,0,1,1.546-1.4l-2.257-1.3,1.32-.756,2.257,1.275a16.377,16.377,0,0,1,3.262-1.2,24.6,24.6,0,0,1,3.262-.587Zm-6.467,4a2.753,2.753,0,0,0,1.648.35,10.263,10.263,0,0,0,2.257-.508l-3.566-2.054c-1.332.858-1.445,1.591-.372,2.212Zm12.493,1.038a2.8,2.8,0,0,0-1.783-.316,15.2,15.2,0,0,0-2.483.542l3.532,2.043c1.478-.9,1.727-1.682.7-2.268Z" transform="translate(481.505 -256.362)" fill="#cc8b09"/>
          <path id="Caminho_8710" data-name="Caminho 8710" d="M-451.84,279.745V278.47l1.445.925-.632.982Z" transform="translate(482.549 -255.199)" fill="#cc8b09"/>
          <path id="Caminho_8711" data-name="Caminho 8711" d="M-440.261,280.465V279.19l-3.149.237,1.806,1.23Z" transform="translate(483.633 -255.106)" fill="#cc8b09"/>
          <path id="Caminho_8712" data-name="Caminho 8712" d="M-440.111,276.3V275l-2.359.858Z" transform="translate(483.753 -255.645)" fill="#cc8b09"/>
          <path id="Caminho_8713" data-name="Caminho 8713" d="M-449,276.175l.779-.745,2.765,1.907-.169.564s-2.065-.869-2.133-.925Z" transform="translate(482.914 -255.59)" fill="#cc8b09"/>
          <path id="Caminho_8714" data-name="Caminho 8714" d="M-455.44,272.605l3.668,2.077.756-.542-.5-.576a4.133,4.133,0,0,0-1.129-.959c-.26-.045-2.009-.835-2.009-.835Z" transform="translate(482.086 -256.06)" fill="#cc8b09"/>
          <path id="Caminho_8715" data-name="Caminho 8715" d="M-449.8,271.538v-1.275l-1.682-.553-.361,1.016.079.451Z" transform="translate(482.549 -256.325)" fill="#cc8b09"/>
          <path id="Caminho_8716" data-name="Caminho 8716" d="M-459.95,270.655V269.38l1.952.2-.632,1.253Z" transform="translate(481.506 -256.367)" fill="#cc8b09"/>
          <path id="Caminho_8717" data-name="Caminho 8717" d="M-459.89,274.522V273.19h2.257l-.553,1.2-.971,1.061Z" transform="translate(481.514 -255.878)" fill="#cc8b09"/>
          <path id="Caminho_8718" data-name="Caminho 8718" d="M-448.719,270.443a4.667,4.667,0,0,0-.869.068c-.395.056-.824.135-1.309.237s-.982.226-1.512.384a11.364,11.364,0,0,0-1.478.564l3.8,2.2.677-.248q1.456-.474,2.742-.813a12.579,12.579,0,0,1,2.46-.361,8.805,8.805,0,0,1,2.257.147,7.524,7.524,0,0,1,2.167.846,4.314,4.314,0,0,1,1.636,1.445,1.962,1.962,0,0,1,.237,1.49,3.307,3.307,0,0,1-.88,1.456,9.254,9.254,0,0,1-1.738,1.377l2.415,1.4-1.32.756-2.438-1.411a19.733,19.733,0,0,1-3.634,1.377,24.4,24.4,0,0,1-4,.745l-1.275-2.257a10.428,10.428,0,0,0,1.061-.09,14.594,14.594,0,0,0,1.591-.271q.88-.181,1.862-.474a13.352,13.352,0,0,0,1.862-.688l-3.781-2.189-.5.169-.519.158c-.959.316-1.828.564-2.618.745a12.576,12.576,0,0,1-2.257.293,7.363,7.363,0,0,1-1.964-.181,7,7,0,0,1-1.828-.734,4.613,4.613,0,0,1-1.58-1.366,2.26,2.26,0,0,1-.429-1.467,2.8,2.8,0,0,1,.621-1.478,7.017,7.017,0,0,1,1.546-1.4l-2.257-1.287,1.32-.767,2.257,1.287a15.675,15.675,0,0,1,3.262-1.2,22.989,22.989,0,0,1,3.262-.6Zm-6.467,3.984a2.749,2.749,0,0,0,1.648.361,11.791,11.791,0,0,0,2.257-.508l-3.566-2.065c-1.332.858-1.445,1.591-.372,2.212Zm12.493,1.038a2.878,2.878,0,0,0-1.783-.316,14.174,14.174,0,0,0-2.483.553l3.532,2.043c1.478-.925,1.727-1.682.7-2.28Z" transform="translate(481.505 -256.505)" fill="#f9ca06"/>
        </g>
        <g id="Coin-11" transform="translate(137.8 319.907)">
          <ellipse id="Elipse_26" data-name="Elipse 26" cx="33.09" cy="19.107" rx="33.09" ry="19.107" transform="translate(0 8.193)" fill="#dd990e"/>
          <path id="Caminho_8719" data-name="Caminho 8719" d="M-476.54,274.891v-8.7l6.534,5.823Z" transform="translate(476.551 -247.309)" fill="#dd990e"/>
          <path id="Caminho_8720" data-name="Caminho 8720" d="M-417.353,266.39v8.193l-3.341,3.544-1.636-9.367Z" transform="translate(483.522 -247.283)" fill="#dd990e"/>
          <ellipse id="Elipse_27" data-name="Elipse 27" cx="33.09" cy="19.107" rx="33.09" ry="19.107" fill="#f9cb07"/>
          <path id="Caminho_8721" data-name="Caminho 8721" d="M-420.889,268.572c-.339,3.216-2.63,6.388-6.9,8.848-9.254,5.338-24.242,5.338-33.5,0-4.266-2.46-6.557-5.643-6.884-8.848-.406-3.769,1.9-7.618,6.884-10.484,9.254-5.349,24.242-5.349,33.5,0C-422.83,260.954-420.494,264.8-420.889,268.572Z" transform="translate(477.622 -248.867)" fill="#cc8b09"/>
          <path id="Caminho_8722" data-name="Caminho 8722" d="M-420.894,268.385c-.339,3.216-2.63,6.388-6.9,8.848-9.254,5.338-24.242,5.338-33.5,0-4.266-2.46-6.557-5.643-6.884-8.848.327-3.216,2.618-6.388,6.884-8.848,9.254-5.349,24.242-5.349,33.5,0C-423.523,262-421.232,265.169-420.894,268.385Z" transform="translate(477.627 -248.68)" fill="#e8a30a"/>
          <path id="Caminho_8723" data-name="Caminho 8723" d="M-446.262,263.253a6.4,6.4,0,0,0-.869.079,7.082,7.082,0,0,0-1.309.226c-.485.1-.982.237-1.5.395a10.778,10.778,0,0,0-1.49.564l3.8,2.189.688-.237c.971-.327,1.873-.6,2.731-.824a14.424,14.424,0,0,1,2.472-.406,8.756,8.756,0,0,1,2.257.158,6.986,6.986,0,0,1,2.167.846,4.215,4.215,0,0,1,1.636,1.433,1.917,1.917,0,0,1,.248,1.49,3.378,3.378,0,0,1-.892,1.467A9.2,9.2,0,0,1-438.057,272l2.415,1.4-1.32.767-2.438-1.411a19.585,19.585,0,0,1-3.623,1.366,23.463,23.463,0,0,1-4.006.756l-1.275-2.257a9.546,9.546,0,0,0,1.061-.079,8.338,8.338,0,0,0,1.6-.271c.587-.124,1.208-.293,1.851-.474a13.565,13.565,0,0,0,1.862-.7l-3.724-2.268-.5.169-.519.158q-1.29.432-2.618.734a11.787,11.787,0,0,1-2.257.3,7.466,7.466,0,0,1-2.009-.169,6.555,6.555,0,0,1-1.828-.734,4.719,4.719,0,0,1-1.58-1.354,2.361,2.361,0,0,1-.429-1.467,2.694,2.694,0,0,1,.632-1.478,6.685,6.685,0,0,1,1.535-1.4l-2.257-1.3,1.32-.756,2.257,1.275a16.616,16.616,0,0,1,3.262-1.2,22.991,22.991,0,0,1,3.273-.587Zm-6.467,4a2.753,2.753,0,0,0,1.648.35,9.98,9.98,0,0,0,2.257-.508l-3.6-2.11c-1.253.858-1.377,1.591-.3,2.212Zm12.493,1.038a2.8,2.8,0,0,0-1.783-.316,14.263,14.263,0,0,0-2.483.542l3.544,2.043c1.5-.982,1.749-1.738.722-2.325Z" transform="translate(479.002 -247.972)" fill="#cc8b09"/>
          <path id="Caminho_8724" data-name="Caminho 8724" d="M-449.35,271.365V270.09l1.456.925-.632.971Z" transform="translate(480.047 -246.807)" fill="#cc8b09"/>
          <path id="Caminho_8725" data-name="Caminho 8725" d="M-437.771,272.085V270.81l-3.149.237,1.817,1.23Z" transform="translate(481.131 -246.715)" fill="#cc8b09"/>
          <path id="Caminho_8726" data-name="Caminho 8726" d="M-437.621,267.918v-1.3l-2.359.858Z" transform="translate(481.252 -247.254)" fill="#cc8b09"/>
          <path id="Caminho_8727" data-name="Caminho 8727" d="M-446.54,267.8l.79-.756,2.765,1.919-.181.564s-2.054-.88-2.122-.925S-446.54,267.8-446.54,267.8Z" transform="translate(480.409 -247.2)" fill="#cc8b09"/>
          <path id="Caminho_8728" data-name="Caminho 8728" d="M-452.94,264.221l3.657,2.11.756-.542s-.463-.53-.5-.587a4.7,4.7,0,0,0-1.129-.948c-.26-.045-2.009-.835-2.009-.835Z" transform="translate(479.586 -247.665)" fill="#cc8b09"/>
          <path id="Caminho_8729" data-name="Caminho 8729" d="M-447.307,263.158v-1.275l-1.682-.553-.361,1,.09.463Z" transform="translate(480.047 -247.934)" fill="#cc8b09"/>
          <path id="Caminho_8730" data-name="Caminho 8730" d="M-457.46,262.275V261l1.952.2-.621,1.241Z" transform="translate(479.005 -247.976)" fill="#cc8b09"/>
          <path id="Caminho_8731" data-name="Caminho 8731" d="M-457.39,266.152V264.82h2.257l-.542,1.2-.971,1.061Z" transform="translate(479.014 -247.485)" fill="#cc8b09"/>
          <path id="Caminho_8732" data-name="Caminho 8732" d="M-446.265,262.069a4.672,4.672,0,0,0-.869.068c-.384.056-.824.135-1.309.237s-.982.226-1.5.384a12.351,12.351,0,0,0-1.49.564l3.8,2.2.688-.248c.971-.316,1.873-.587,2.731-.813a12.556,12.556,0,0,1,2.472-.406,8.805,8.805,0,0,1,2.257.147,6.987,6.987,0,0,1,2.167.846,4.228,4.228,0,0,1,1.636,1.445,1.9,1.9,0,0,1,.248,1.478,3.306,3.306,0,0,1-.892,1.467,9.257,9.257,0,0,1-1.738,1.377l2.415,1.4-1.32.756-2.438-1.411a20.48,20.48,0,0,1-3.623,1.377,24.509,24.509,0,0,1-4.006.745l-1.275-2.257a10.132,10.132,0,0,0,1.061-.09c.485-.056,1.016-.147,1.6-.271s1.208-.282,1.851-.474a13.354,13.354,0,0,0,1.862-.688l-3.724-2.212-.5.169-.519.158c-.948.316-1.817.564-2.618.745a12.785,12.785,0,0,1-2.257.293,7.954,7.954,0,0,1-1.975-.181,6.954,6.954,0,0,1-1.828-.745,4.605,4.605,0,0,1-1.591-1.343,2.362,2.362,0,0,1-.429-1.467,2.732,2.732,0,0,1,.632-1.478,6.938,6.938,0,0,1,1.535-1.4l-2.257-1.287,1.32-.767,2.257,1.287a15.931,15.931,0,0,1,3.262-1.208,24.765,24.765,0,0,1,3.273-.587Zm-6.467,3.984a2.753,2.753,0,0,0,1.648.35,9.98,9.98,0,0,0,2.257-.508l-3.6-2.054c-1.253.858-1.377,1.591-.3,2.212Zm12.493,1.038a2.879,2.879,0,0,0-1.783-.316,15.438,15.438,0,0,0-2.483.542l3.544,2.054c1.5-.925,1.749-1.682.722-2.28Z" transform="translate(479.005 -248.12)" fill="#f9ca06"/>
        </g>
        <g id="Coin-12" transform="translate(135.768 310.1)">
          <ellipse id="Elipse_28" data-name="Elipse 28" cx="33.09" cy="19.107" rx="33.09" ry="19.107" transform="translate(0 8.193)" fill="#dd990e"/>
          <path id="Caminho_8733" data-name="Caminho 8733" d="M-478.34,266.2v-8.7l6.546,5.823Z" transform="translate(478.351 -238.619)" fill="#dd990e"/>
          <path id="Caminho_8734" data-name="Caminho 8734" d="M-419.142,257.7v8.193l-3.352,3.544-1.636-9.367Z" transform="translate(485.322 -238.593)" fill="#dd990e"/>
          <ellipse id="Elipse_29" data-name="Elipse 29" cx="33.09" cy="19.107" rx="33.09" ry="19.107" fill="#f9cb07"/>
          <path id="Caminho_8735" data-name="Caminho 8735" d="M-422.689,259.882c-.339,3.216-2.63,6.388-6.9,8.848-9.243,5.338-24.242,5.338-33.5,0-4.266-2.46-6.557-5.643-6.884-8.848-.406-3.769,1.9-7.618,6.884-10.485,9.254-5.349,24.253-5.349,33.5,0C-424.6,252.264-422.294,256.112-422.689,259.882Z" transform="translate(479.422 -240.177)" fill="#cc8b09"/>
          <path id="Caminho_8736" data-name="Caminho 8736" d="M-422.694,259.7c-.339,3.216-2.63,6.388-6.9,8.848-9.243,5.338-24.242,5.338-33.5,0-4.266-2.46-6.557-5.643-6.884-8.848.327-3.216,2.618-6.388,6.884-8.848,9.254-5.349,24.253-5.349,33.5,0C-425.323,253.307-423.032,256.479-422.694,259.7Z" transform="translate(479.428 -239.99)" fill="#e8a30a"/>
          <path id="Caminho_8737" data-name="Caminho 8737" d="M-448.066,254.506a6.415,6.415,0,0,0-.869.079,7.086,7.086,0,0,0-1.309.226c-.485.1-.982.237-1.5.4a10.774,10.774,0,0,0-1.49.564l3.8,2.189.688-.237c.971-.316,1.873-.6,2.742-.824a14.188,14.188,0,0,1,2.46-.406,8.758,8.758,0,0,1,2.257.158,6.984,6.984,0,0,1,2.167.846,4.436,4.436,0,0,1,1.648,1.433,1.967,1.967,0,0,1,.237,1.49,3.264,3.264,0,0,1-.892,1.467,9.2,9.2,0,0,1-1.738,1.366l2.415,1.4-1.32.767-2.438-1.411a19.317,19.317,0,0,1-3.623,1.366,23.225,23.225,0,0,1-4.006.756l-1.275-2.257a9.692,9.692,0,0,0,1.129-.079,15.9,15.9,0,0,0,1.591-.271c.587-.124,1.208-.293,1.862-.474a13.851,13.851,0,0,0,1.851-.7l-3.781-2.178-.5.169-.519.158a24.224,24.224,0,0,1-2.618.734,11.793,11.793,0,0,1-2.257.3,7.5,7.5,0,0,1-1.975-.192,6.341,6.341,0,0,1-1.817-.734,4.652,4.652,0,0,1-1.591-1.354,2.354,2.354,0,0,1-.429-1.467,2.773,2.773,0,0,1,.632-1.478,6.682,6.682,0,0,1,1.535-1.4l-2.257-1.3,1.32-.756,2.257,1.275a16.453,16.453,0,0,1,3.273-1.2,24.208,24.208,0,0,1,3.262-.587Zm-6.467,4a2.791,2.791,0,0,0,1.659.35,10.108,10.108,0,0,0,2.257-.508l-3.555-2.054c-1.309.858-1.411,1.591-.361,2.212Zm12.493,1.038a2.8,2.8,0,0,0-1.783-.316,15.44,15.44,0,0,0-2.483.542l3.544,2.043c1.512-.914,1.749-1.682.722-2.268Z" transform="translate(480.806 -239.281)" fill="#cc8b09"/>
          <path id="Caminho_8738" data-name="Caminho 8738" d="M-451.15,262.675V261.4l1.456.925-.632.971Z" transform="translate(481.847 -238.117)" fill="#cc8b09"/>
          <path id="Caminho_8739" data-name="Caminho 8739" d="M-439.573,263.4V262.12l-3.137.237,1.806,1.23Z" transform="translate(482.933 -238.025)" fill="#cc8b09"/>
          <path id="Caminho_8740" data-name="Caminho 8740" d="M-439.421,259.228v-1.3l-2.359.858Z" transform="translate(483.052 -238.564)" fill="#cc8b09"/>
          <path id="Caminho_8741" data-name="Caminho 8741" d="M-448.34,259.086l.79-.756,2.765,1.919-.169.564s-2.065-.869-2.133-.925S-448.34,259.086-448.34,259.086Z" transform="translate(482.209 -238.512)" fill="#cc8b09"/>
          <path id="Caminho_8742" data-name="Caminho 8742" d="M-454.74,255.535l3.668,2.077.745-.542s-.463-.53-.5-.587a4.7,4.7,0,0,0-1.129-.948c-.26-.045-2.009-.835-2.009-.835Z" transform="translate(481.386 -238.979)" fill="#cc8b09"/>
          <path id="Caminho_8743" data-name="Caminho 8743" d="M-449.107,254.468v-1.275l-1.682-.553-.361,1,.09.463Z" transform="translate(481.847 -239.244)" fill="#cc8b09"/>
          <path id="Caminho_8744" data-name="Caminho 8744" d="M-459.25,253.585V252.31l1.952.2-.632,1.241Z" transform="translate(480.806 -239.286)" fill="#cc8b09"/>
          <path id="Caminho_8745" data-name="Caminho 8745" d="M-459.19,257.452V256.12h2.257l-.542,1.2-.971,1.061Z" transform="translate(480.814 -238.796)" fill="#cc8b09"/>
          <path id="Caminho_8746" data-name="Caminho 8746" d="M-448.066,253.378a4.667,4.667,0,0,0-.869.068c-.384.056-.824.135-1.309.237s-.982.226-1.5.384a12.353,12.353,0,0,0-1.49.564l3.8,2.2.688-.248c.971-.316,1.873-.587,2.742-.813a12.282,12.282,0,0,1,2.46-.406,8.805,8.805,0,0,1,2.257.147,6.986,6.986,0,0,1,2.167.846,4.356,4.356,0,0,1,1.648,1.445,1.943,1.943,0,0,1,.237,1.478,3.2,3.2,0,0,1-.892,1.467,9.258,9.258,0,0,1-1.738,1.377l2.415,1.4-1.32.756-2.438-1.411a20.069,20.069,0,0,1-3.623,1.377,24.279,24.279,0,0,1-4.006.745l-1.275-2.257a10.506,10.506,0,0,0,1.129-.09,15.9,15.9,0,0,0,1.591-.271q.88-.191,1.862-.474a13.914,13.914,0,0,0,1.851-.688l-3.781-2.189-.5.169-.519.158c-.948.316-1.817.564-2.618.745a12.676,12.676,0,0,1-2.257.293,7.951,7.951,0,0,1-1.975-.181,7.053,7.053,0,0,1-1.817-.734,4.779,4.779,0,0,1-1.591-1.366,2.355,2.355,0,0,1-.429-1.467,2.82,2.82,0,0,1,.632-1.478,6.937,6.937,0,0,1,1.535-1.4l-2.257-1.287,1.32-.767,2.257,1.287a16.49,16.49,0,0,1,3.273-1.208,24.208,24.208,0,0,1,3.262-.587Zm-6.467,3.984a2.7,2.7,0,0,0,1.659.35,10.106,10.106,0,0,0,2.257-.508l-3.555-2.054c-1.309.858-1.411,1.591-.361,2.212Zm12.493,1.038a2.879,2.879,0,0,0-1.783-.316,15.437,15.437,0,0,0-2.483.542l3.544,2.054c1.512-.925,1.749-1.682.722-2.28Z" transform="translate(480.806 -239.429)" fill="#f9ca06"/>
        </g>
        <g id="Coin-13" transform="translate(0 363.707)">
          <ellipse id="Elipse_30" data-name="Elipse 30" cx="33.09" cy="19.107" rx="33.09" ry="19.107" transform="translate(0 18.689)" fill="#dd990e"/>
          <path id="Caminho_8747" data-name="Caminho 8747" d="M-598.64,323.011v-8.7l6.535,5.823Z" transform="translate(598.651 -284.922)" fill="#dd990e"/>
          <path id="Caminho_8748" data-name="Caminho 8748" d="M-539.442,314.51v8.182l-3.352,3.555-1.636-9.378Z" transform="translate(605.622 -284.896)" fill="#dd990e"/>
          <ellipse id="Elipse_31" data-name="Elipse 31" cx="33.09" cy="19.107" rx="33.09" ry="19.107" transform="translate(0 10.507)" fill="#f9cb07"/>
          <path id="Caminho_8749" data-name="Caminho 8749" d="M-542.989,316.651c-.339,3.228-2.63,6.388-6.9,8.859-9.243,5.338-24.242,5.338-33.5,0-4.266-2.472-6.557-5.643-6.884-8.859-.406-3.758,1.9-7.607,6.884-10.485,9.254-5.338,24.253-5.338,33.5,0C-544.9,309.078-542.56,312.926-542.989,316.651Z" transform="translate(599.722 -286.484)" fill="#cc8b09"/>
          <path id="Caminho_8750" data-name="Caminho 8750" d="M-542.994,316.464c-.339,3.228-2.63,6.388-6.9,8.859-9.243,5.338-24.242,5.338-33.5,0-4.266-2.472-6.557-5.643-6.884-8.859.327-3.216,2.618-6.376,6.884-8.848,9.254-5.338,24.253-5.338,33.5,0C-545.623,310.122-543.332,313.282-542.994,316.464Z" transform="translate(599.728 -286.297)" fill="#e8a30a"/>
          <path id="Caminho_8751" data-name="Caminho 8751" d="M-568.359,311.319a4.668,4.668,0,0,0-.869.068c-.384.056-.824.135-1.309.237s-.982.226-1.5.384a12.353,12.353,0,0,0-1.49.564l3.8,2.2.688-.237c.971-.327,1.873-.6,2.742-.824a12.284,12.284,0,0,1,2.46-.406,8.8,8.8,0,0,1,2.257.147,7.6,7.6,0,0,1,2.167.846,4.45,4.45,0,0,1,1.648,1.456,1.962,1.962,0,0,1,.237,1.49,3.323,3.323,0,0,1-.892,1.467,9.672,9.672,0,0,1-1.738,1.366l2.415,1.4-1.32.756-2.438-1.411a19.324,19.324,0,0,1-3.623,1.377,24.272,24.272,0,0,1-4.006.745l-1.275-2.257a10.65,10.65,0,0,0,1.072-.09,12.233,12.233,0,0,0,1.591-.271q.88-.181,1.862-.474a13.913,13.913,0,0,0,1.851-.711l-3.781-2.189-.5.181-.519.158c-.948.3-1.817.553-2.618.734a11.7,11.7,0,0,1-2.257.293,7.449,7.449,0,0,1-1.975-.181,7.054,7.054,0,0,1-1.817-.734,4.778,4.778,0,0,1-1.591-1.366,2.332,2.332,0,0,1-.429-1.467,2.856,2.856,0,0,1,.632-1.478,6.884,6.884,0,0,1,1.535-1.388l-2.257-1.3,1.32-.767,2.257,1.287a15.791,15.791,0,0,1,3.273-1.2,24.411,24.411,0,0,1,3.262-.6Zm-6.467,3.984a2.786,2.786,0,0,0,1.659.361,11.54,11.54,0,0,0,2.257-.508l-3.5-2.065C-575.774,313.949-575.887,314.683-574.826,315.3Zm12.493,1.038a2.96,2.96,0,0,0-1.783-.316,14.405,14.405,0,0,0-2.483.553l3.544,2.043c1.512-.925,1.749-1.682.722-2.28Z" transform="translate(601.099 -285.588)" fill="#cc8b09"/>
          <path id="Caminho_8752" data-name="Caminho 8752" d="M-571.45,319.487V318.2l1.456.937-.632.971Z" transform="translate(602.147 -284.422)" fill="#cc8b09"/>
          <path id="Caminho_8753" data-name="Caminho 8753" d="M-559.873,320.207V318.92l-3.137.237,1.806,1.241Z" transform="translate(603.233 -284.329)" fill="#cc8b09"/>
          <path id="Caminho_8754" data-name="Caminho 8754" d="M-559.721,316.027V314.74l-2.359.846Z" transform="translate(603.352 -284.867)" fill="#cc8b09"/>
          <path id="Caminho_8755" data-name="Caminho 8755" d="M-568.64,315.9l.79-.745,2.765,1.907-.169.564s-2.065-.869-2.133-.914S-568.64,315.9-568.64,315.9Z" transform="translate(602.509 -284.813)" fill="#cc8b09"/>
          <path id="Caminho_8756" data-name="Caminho 8756" d="M-575,312.334l3.668,2.088.745-.553-.5-.576a4.833,4.833,0,0,0-1.129-.959,15.2,15.2,0,0,1-2.009-.824Z" transform="translate(601.691 -285.282)" fill="#cc8b09"/>
          <path id="Caminho_8757" data-name="Caminho 8757" d="M-569.407,311.278v-1.287l-1.682-.542-.361,1,.09.463Z" transform="translate(602.147 -285.547)" fill="#cc8b09"/>
          <path id="Caminho_8758" data-name="Caminho 8758" d="M-579.55,310.4V309.11l1.952.214-.632,1.241Z" transform="translate(601.106 -285.59)" fill="#cc8b09"/>
          <path id="Caminho_8759" data-name="Caminho 8759" d="M-579.49,314.263V312.92h2.257l-.576,1.219-.971,1.072Z" transform="translate(601.114 -285.101)" fill="#cc8b09"/>
          <path id="Caminho_8760" data-name="Caminho 8760" d="M-568.359,310.174a8.6,8.6,0,0,0-.869.068c-.384.056-.824.135-1.309.237s-.982.237-1.5.395a9.386,9.386,0,0,0-1.49.564l3.8,2.2.688-.237c.971-.327,1.873-.6,2.742-.824a12.28,12.28,0,0,1,2.46-.406,8.756,8.756,0,0,1,2.257.158,6.974,6.974,0,0,1,2.167.846,4.343,4.343,0,0,1,1.648,1.433,1.962,1.962,0,0,1,.237,1.49,3.265,3.265,0,0,1-.892,1.467,9.2,9.2,0,0,1-1.738,1.366l2.415,1.4-1.32.767-2.438-1.411a20.092,20.092,0,0,1-3.623,1.366,23.223,23.223,0,0,1-4.006.756l-1.275-2.257a9.736,9.736,0,0,0,1.072-.079q.711-.09,1.591-.271c.587-.135,1.208-.293,1.862-.485a12.576,12.576,0,0,0,1.851-.688l-3.781-2.178-.5.169-.519.158q-1.29.432-2.618.734a11.793,11.793,0,0,1-2.257.3,8.014,8.014,0,0,1-1.975-.192,6.34,6.34,0,0,1-1.817-.734,4.768,4.768,0,0,1-1.591-1.354,2.362,2.362,0,0,1-.429-1.467,2.774,2.774,0,0,1,.632-1.478,6.684,6.684,0,0,1,1.535-1.4l-2.257-1.3,1.32-.756,2.257,1.275a16.474,16.474,0,0,1,3.273-1.2,22.657,22.657,0,0,1,3.262-.587Zm-6.467,4a2.79,2.79,0,0,0,1.659.35,10.1,10.1,0,0,0,2.257-.508l-3.5-2.054C-575.774,312.815-575.887,313.549-574.826,314.169Zm12.493,1.038a2.8,2.8,0,0,0-1.783-.316,14.27,14.27,0,0,0-2.483.542l3.544,2.043C-561.543,316.551-561.306,315.795-562.333,315.208Z" transform="translate(601.099 -285.729)" fill="#f9ca06"/>
          <ellipse id="Elipse_32" data-name="Elipse 32" cx="33.09" cy="19.107" rx="33.09" ry="19.107" transform="translate(2.539 8.193)" fill="#dd990e"/>
          <path id="Caminho_8761" data-name="Caminho 8761" d="M-596.39,313.7V305l6.534,5.823Z" transform="translate(598.941 -286.119)" fill="#dd990e"/>
          <path id="Caminho_8762" data-name="Caminho 8762" d="M-537.192,305.2v8.182l-3.352,3.555-1.636-9.367Z" transform="translate(605.911 -286.093)" fill="#dd990e"/>
          <ellipse id="Elipse_33" data-name="Elipse 33" cx="33.09" cy="19.107" rx="33.09" ry="19.107" transform="translate(2.539)" fill="#f9cb07"/>
          <path id="Caminho_8763" data-name="Caminho 8763" d="M-540.739,307.382c-.339,3.216-2.63,6.376-6.9,8.848-9.243,5.338-24.242,5.338-33.5,0-4.266-2.472-6.557-5.643-6.884-8.848-.406-3.769,1.9-7.618,6.884-10.5,9.254-5.338,24.253-5.338,33.5,0C-542.646,299.787-540.344,303.612-540.739,307.382Z" transform="translate(600.012 -287.677)" fill="#cc8b09"/>
          <path id="Caminho_8764" data-name="Caminho 8764" d="M-540.744,307.2c-.339,3.216-2.63,6.376-6.9,8.848-9.243,5.338-24.242,5.338-33.5,0-4.266-2.472-6.557-5.643-6.884-8.848.327-3.216,2.618-6.388,6.884-8.848,9.254-5.349,24.253-5.349,33.5,0C-543.373,300.807-541.082,303.979-540.744,307.2Z" transform="translate(600.017 -287.49)" fill="#e8a30a"/>
          <path id="Caminho_8765" data-name="Caminho 8765" d="M-566.113,302.007a4.671,4.671,0,0,0-.869.068c-.384.056-.824.135-1.309.237s-.982.237-1.5.384a12.363,12.363,0,0,0-1.49.564l3.8,2.2.688-.237c.971-.327,1.873-.6,2.742-.824a12.284,12.284,0,0,1,2.46-.406,8.759,8.759,0,0,1,2.257.158,7.224,7.224,0,0,1,2.167.835,4.439,4.439,0,0,1,1.648,1.445,1.962,1.962,0,0,1,.237,1.49,3.264,3.264,0,0,1-.892,1.467,9.674,9.674,0,0,1-1.738,1.366l2.393,1.4-1.309.756-2.449-1.4a20.1,20.1,0,0,1-3.623,1.366,23.134,23.134,0,0,1-4.007.745l-1.275-2.257a9.692,9.692,0,0,0,1.129-.079,14.908,14.908,0,0,0,1.591-.282q.88-.181,1.862-.474a13.86,13.86,0,0,0,1.851-.688l-3.781-2.178-.5.169-.519.158c-.948.3-1.817.553-2.618.734a10.8,10.8,0,0,1-2.257.293,7.449,7.449,0,0,1-1.975-.181,6.651,6.651,0,0,1-1.817-.734,4.891,4.891,0,0,1-1.591-1.354,2.38,2.38,0,0,1-.429-1.467,2.773,2.773,0,0,1,.632-1.478,6.684,6.684,0,0,1,1.535-1.4l-2.257-1.3,1.309-.756,2.257,1.275a15.793,15.793,0,0,1,3.273-1.2,22.649,22.649,0,0,1,3.262-.587Zm-6.467,3.984a2.786,2.786,0,0,0,1.659.361,11.54,11.54,0,0,0,2.257-.508l-3.555-2.054C-573.573,304.636-573.641,305.381-572.58,305.991Zm12.493,1.05a2.882,2.882,0,0,0-1.783-.327,14.4,14.4,0,0,0-2.483.553l3.544,2.043c1.512-.925,1.749-1.682.779-2.268Z" transform="translate(601.393 -286.782)" fill="#cc8b09"/>
          <path id="Caminho_8766" data-name="Caminho 8766" d="M-569.2,310.147V308.86l1.456.937-.632.971Z" transform="translate(602.437 -285.623)" fill="#cc8b09"/>
          <path id="Caminho_8767" data-name="Caminho 8767" d="M-557.623,310.9V309.61l-3.137.248,1.806,1.23Z" transform="translate(603.522 -285.526)" fill="#cc8b09"/>
          <path id="Caminho_8768" data-name="Caminho 8768" d="M-557.471,306.728v-1.3l-2.359.846Z" transform="translate(603.641 -286.064)" fill="#cc8b09"/>
          <path id="Caminho_8769" data-name="Caminho 8769" d="M-566.39,306.606l.79-.756,2.765,1.907-.169.564s-2.065-.869-2.133-.914S-566.39,306.606-566.39,306.606Z" transform="translate(602.798 -286.01)" fill="#cc8b09"/>
          <path id="Caminho_8770" data-name="Caminho 8770" d="M-572.79,303.035l3.668,2.077.745-.542s-.463-.53-.5-.587a4.7,4.7,0,0,0-1.129-.948c-.26-.045-2.009-.835-2.009-.835Z" transform="translate(601.975 -286.479)" fill="#cc8b09"/>
          <path id="Caminho_8771" data-name="Caminho 8771" d="M-567.157,301.968v-1.275l-1.682-.553-.361,1,.09.463Z" transform="translate(602.437 -286.744)" fill="#cc8b09"/>
          <path id="Caminho_8772" data-name="Caminho 8772" d="M-577.3,301.087V299.8l1.952.214-.632,1.241Z" transform="translate(601.395 -286.788)" fill="#cc8b09"/>
          <path id="Caminho_8773" data-name="Caminho 8773" d="M-577.24,304.952V303.62h2.257l-.542,1.185-.971,1.072Z" transform="translate(601.403 -286.296)" fill="#cc8b09"/>
          <path id="Caminho_8774" data-name="Caminho 8774" d="M-566.113,300.863a6.409,6.409,0,0,0-.869.079c-.384.056-.824.124-1.309.226s-.982.237-1.5.395a10.777,10.777,0,0,0-1.49.564l3.8,2.189.688-.237c.971-.316,1.873-.6,2.742-.813a13.16,13.16,0,0,1,2.46-.418,8.755,8.755,0,0,1,2.257.158,6.985,6.985,0,0,1,2.167.846,4.356,4.356,0,0,1,1.648,1.445,1.934,1.934,0,0,1,.237,1.478,3.265,3.265,0,0,1-.892,1.467,9.747,9.747,0,0,1-1.738,1.377l2.393,1.388-1.309.767-2.427-1.456a19.314,19.314,0,0,1-3.623,1.366,23.229,23.229,0,0,1-4.006.756l-1.275-2.257a9.692,9.692,0,0,0,1.129-.079,15.9,15.9,0,0,0,1.591-.271q.88-.191,1.862-.474a14.009,14.009,0,0,0,1.851-.7l-3.781-2.178-.5.169-.519.158a24.214,24.214,0,0,1-2.618.734,11.792,11.792,0,0,1-2.257.3,7.5,7.5,0,0,1-1.975-.192,6.341,6.341,0,0,1-1.817-.734,4.651,4.651,0,0,1-1.591-1.354,2.364,2.364,0,0,1-.429-1.467,2.773,2.773,0,0,1,.632-1.478,6.651,6.651,0,0,1,1.512-1.332l-2.257-1.3,1.309-.756,2.257,1.275a16.474,16.474,0,0,1,3.273-1.2,24.2,24.2,0,0,1,3.262-.587Zm-6.467,4a2.79,2.79,0,0,0,1.659.35,10.1,10.1,0,0,0,2.257-.508l-3.555-2.054C-573.573,303.549-573.641,304.237-572.58,304.858Zm12.493,1.038a2.8,2.8,0,0,0-1.783-.316,15.438,15.438,0,0,0-2.483.542l3.544,2.043c1.512-.914,1.749-1.682.779-2.268Z" transform="translate(601.393 -286.925)" fill="#f9ca06"/>
        </g>
        <g id="Coin-14" transform="translate(81.19 446.297)">
          <ellipse id="Elipse_34" data-name="Elipse 34" cx="33.09" cy="19.107" rx="33.09" ry="19.107" transform="translate(0 8.182)" fill="#dd990e"/>
          <path id="Caminho_8775" data-name="Caminho 8775" d="M-526.7,386.881v-8.7l6.534,5.823Z" transform="translate(526.711 -359.299)" fill="#dd990e"/>
          <path id="Caminho_8776" data-name="Caminho 8776" d="M-467.513,378.38v8.182l-3.341,3.555-1.636-9.379Z" transform="translate(533.682 -359.273)" fill="#dd990e"/>
          <ellipse id="Elipse_35" data-name="Elipse 35" cx="33.09" cy="19.107" rx="33.09" ry="19.107" fill="#f9cb07"/>
          <path id="Caminho_8777" data-name="Caminho 8777" d="M-471.049,380.562c-.339,3.216-2.63,6.376-6.9,8.848-9.254,5.338-24.253,5.338-33.5,0-4.266-2.472-6.557-5.643-6.884-8.848-.406-3.769,1.9-7.618,6.884-10.5,9.243-5.338,24.242-5.338,33.5,0C-472.956,372.944-470.654,376.792-471.049,380.562Z" transform="translate(527.782 -360.857)" fill="#cc8b09"/>
          <path id="Caminho_8778" data-name="Caminho 8778" d="M-471.054,380.375c-.339,3.216-2.63,6.376-6.9,8.848-9.254,5.338-24.253,5.338-33.5,0-4.266-2.472-6.557-5.643-6.884-8.848.327-3.228,2.618-6.388,6.884-8.859,9.243-5.338,24.242-5.338,33.5,0C-473.683,373.988-471.392,377.148-471.054,380.375Z" transform="translate(527.788 -360.671)" fill="#e8a30a"/>
          <path id="Caminho_8779" data-name="Caminho 8779" d="M-496.422,375.191a4.67,4.67,0,0,0-.869.068c-.384.056-.824.135-1.309.237s-.982.226-1.5.384a12.354,12.354,0,0,0-1.49.564l3.8,2.2.688-.237c.959-.327,1.873-.6,2.731-.824a12.557,12.557,0,0,1,2.472-.406,8.279,8.279,0,0,1,2.257.158,7.339,7.339,0,0,1,2.167.835,4.314,4.314,0,0,1,1.636,1.445,1.917,1.917,0,0,1,.248,1.49,3.377,3.377,0,0,1-.892,1.467,9.678,9.678,0,0,1-1.738,1.366l2.415,1.4-1.32.756-2.438-1.4a20.172,20.172,0,0,1-3.634,1.366,24.144,24.144,0,0,1-4,.745l-1.275-2.257a6,6,0,0,0,1.061-.079,14.52,14.52,0,0,0,1.6-.282c.587-.124,1.208-.282,1.851-.474a13.358,13.358,0,0,0,1.862-.688l-3.781-2.189-.5.181-.519.158c-.948.3-1.828.553-2.618.734a11.7,11.7,0,0,1-2.257.293,7.451,7.451,0,0,1-1.975-.181,6.9,6.9,0,0,1-1.828-.734,4.728,4.728,0,0,1-1.58-1.366,2.26,2.26,0,0,1-.429-1.467,2.77,2.77,0,0,1,.655-1.5,6.635,6.635,0,0,1,1.535-1.388l-2.257-1.3,1.32-.767,2.257,1.287a15.917,15.917,0,0,1,3.262-1.2,24.971,24.971,0,0,1,3.273-.6Zm-6.467,3.984a2.749,2.749,0,0,0,1.648.361,11.461,11.461,0,0,0,2.257-.508l-3.566-2.065C-503.837,377.82-503.961,378.565-502.889,379.175Zm12.493,1.05a2.882,2.882,0,0,0-1.783-.327,14.4,14.4,0,0,0-2.483.553l3.544,2.043C-489.617,381.567-489.368,380.811-490.4,380.224Z" transform="translate(529.162 -359.966)" fill="#cc8b09"/>
          <path id="Caminho_8780" data-name="Caminho 8780" d="M-499.51,383.357V382.07l1.456.937-.632.971Z" transform="translate(530.207 -358.799)" fill="#cc8b09"/>
          <path id="Caminho_8781" data-name="Caminho 8781" d="M-487.931,384.077V382.79l-3.149.237,1.817,1.241Z" transform="translate(531.291 -358.706)" fill="#cc8b09"/>
          <path id="Caminho_8782" data-name="Caminho 8782" d="M-487.781,379.908v-1.3l-2.359.846Z" transform="translate(531.412 -359.244)" fill="#cc8b09"/>
          <path id="Caminho_8783" data-name="Caminho 8783" d="M-496.7,379.786l.79-.756,2.765,1.907-.181.564s-2.054-.869-2.122-.914Z" transform="translate(530.569 -359.19)" fill="#cc8b09"/>
          <path id="Caminho_8784" data-name="Caminho 8784" d="M-503.11,376.2l3.668,2.088.756-.553s-.463-.519-.5-.576a5.1,5.1,0,0,0-1.129-.959,15.416,15.416,0,0,1-2.02-.824Z" transform="translate(529.745 -359.659)" fill="#cc8b09"/>
          <path id="Caminho_8785" data-name="Caminho 8785" d="M-497.467,375.148v-1.287l-1.682-.542-.361,1,.09.463Z" transform="translate(530.207 -359.924)" fill="#cc8b09"/>
          <path id="Caminho_8786" data-name="Caminho 8786" d="M-507.62,374.267V372.98l1.952.214-.621,1.241Z" transform="translate(529.165 -359.968)" fill="#cc8b09"/>
          <path id="Caminho_8787" data-name="Caminho 8787" d="M-507.55,378.153V376.81h2.257l-.508,1.174-.971,1.072Z" transform="translate(529.174 -359.475)" fill="#cc8b09"/>
          <path id="Caminho_8788" data-name="Caminho 8788" d="M-496.419,374.046a6.422,6.422,0,0,0-.869.079,7.088,7.088,0,0,0-1.309.226c-.485.1-.982.237-1.5.4a10.77,10.77,0,0,0-1.49.564l3.8,2.189.688-.237c.959-.327,1.873-.6,2.731-.824a14.419,14.419,0,0,1,2.472-.406,8.753,8.753,0,0,1,2.257.158,7.068,7.068,0,0,1,2.167.846,4.292,4.292,0,0,1,1.636,1.433,1.917,1.917,0,0,1,.248,1.49,3.378,3.378,0,0,1-.892,1.467,9.2,9.2,0,0,1-1.738,1.366l2.415,1.4-1.32.767-2.438-1.411a19.418,19.418,0,0,1-3.634,1.366,23.126,23.126,0,0,1-4,.756l-1.275-2.257a9.544,9.544,0,0,0,1.061-.079c.485-.056,1.016-.147,1.6-.271s1.208-.293,1.851-.474a13.545,13.545,0,0,0,1.862-.7l-3.781-2.178-.5.169-.519.158c-.948.316-1.828.553-2.618.734a11.793,11.793,0,0,1-2.257.3,7.5,7.5,0,0,1-1.975-.192,6.553,6.553,0,0,1-1.828-.734,4.718,4.718,0,0,1-1.58-1.354,2.26,2.26,0,0,1-.429-1.467,2.7,2.7,0,0,1,.632-1.478,6.423,6.423,0,0,1,1.535-1.4l-2.257-1.3,1.32-.756,2.257,1.275a16.615,16.615,0,0,1,3.262-1.2,23,23,0,0,1,3.273-.587Zm-6.467,4a2.753,2.753,0,0,0,1.648.35,9.982,9.982,0,0,0,2.257-.508l-3.566-2.054C-503.834,376.687-503.958,377.42-502.886,378.041Zm12.493,1.038a2.8,2.8,0,0,0-1.783-.316,14.27,14.27,0,0,0-2.483.542l3.544,2.043C-489.614,380.422-489.366,379.666-490.393,379.079Z" transform="translate(529.159 -360.108)" fill="#f9ca06"/>
        </g>
        <path id="Caminho_8789" data-name="Caminho 8789" d="M-277.614,232.122-498.33,104.694-394.6,44.8l220.728,127.439Z" transform="translate(611.549 44.132)" fill="#b9cc00"/>
        <ellipse id="Elipse_36" data-name="Elipse 36" cx="42.254" cy="24.276" rx="42.254" ry="24.276" transform="matrix(0.998, -0.06, 0.06, 0.998, 231.801, 160.904)" fill="#839100"/>
        <path id="Caminho_8790" data-name="Caminho 8790" d="M-395.387,52.28l-89.993,51.915,205.232,118.5,89.993-51.915Zm102.633,154.3-163.531-94.417c4.853-4.74,4.514-10.744-.914-15.326l48.213-27.842a40.629,40.629,0,0,0,26.465-.418L-219.509,162.7c-5.643,4.842-5.643,11.286.135,16.071L-267.6,206.579A40.763,40.763,0,0,0-292.754,206.579Z" transform="translate(613.214 45.094)" fill="#839100"/>
        <ellipse id="Elipse_37" data-name="Elipse 37" cx="9.57" cy="5.519" rx="9.57" ry="5.519" transform="translate(206.158 143.205)" fill="#839100"/>
        <ellipse id="Elipse_38" data-name="Elipse 38" cx="9.57" cy="5.519" rx="9.57" ry="5.519" transform="translate(323.428 210.909)" fill="#839100"/>
        <path id="Caminho_8791" data-name="Caminho 8791" d="M-355.343,135.637c1.208-.7,1.828-1.445,1.873-2.257a5.154,5.154,0,0,0-1.433-3.115,26.741,26.741,0,0,1-2.359-3.386,6.942,6.942,0,0,1-.88-2.957,4.267,4.267,0,0,1,.779-2.7,9.132,9.132,0,0,1,3.047-2.562,16.759,16.759,0,0,1,8.509-2.156,21.287,21.287,0,0,1,9.142,2.054l4.729-2.731,3.544,2.043-4.808,2.776c2.257,1.715,3.194,3.521,2.867,5.417s-1.93,3.668-4.808,5.327l-6.388-3.69c1.761-1.016,2.72-2,2.867-2.923s-.384-1.749-1.614-2.449a7.386,7.386,0,0,0-3.837-1.027,7.677,7.677,0,0,0-3.837,1.061c-1.129.655-1.693,1.354-1.727,2.122a6.109,6.109,0,0,0,1.546,3.284,26.826,26.826,0,0,1,2.336,3.668,6.3,6.3,0,0,1,.756,2.889,4.516,4.516,0,0,1-.9,2.6,9.482,9.482,0,0,1-2.912,2.393,16.623,16.623,0,0,1-8.453,2.167,21.444,21.444,0,0,1-9.221-2.133l-4.4,2.539-3.521-2.031,4.39-2.528c-2.709-1.93-3.973-3.9-3.815-5.914s1.761-3.882,4.785-5.643l6.388,3.69c-1.749,1.016-2.686,2.031-2.788,3.058s.632,1.986,2.189,2.889a8.552,8.552,0,0,0,4.108,1.129A7.193,7.193,0,0,0-355.343,135.637Z" transform="translate(627.478 53.265)" fill="#a2c900"/>
        <path id="Caminho_8792" data-name="Caminho 8792" d="M-277.614,273.48-498.33,146.029V97.85L-277.614,225.3Z" transform="translate(611.549 50.953)" fill="#b9cc00"/>
        <path id="Caminho_8793" data-name="Caminho 8793" d="M-277.614,273.48-498.33,146.029V97.85L-277.614,225.3Z" transform="translate(611.549 50.953)" opacity="0.3" style="isolation: isolate"/>
        <path id="Caminho_8794" data-name="Caminho 8794" d="M-199.021,205.889-302.76,265.783V217.6l103.739-59.894Z" transform="translate(636.695 58.65)" fill="#b9cc00"/>
        <path id="Caminho_8795" data-name="Caminho 8795" d="M-199.021,205.889-302.76,265.783V217.6l103.739-59.894Z" transform="translate(636.695 58.65)" opacity="0.15" style="isolation: isolate"/>
        <path id="Caminho_8796" data-name="Caminho 8796" d="M-381.476,213.351-420.04,191.3V142.77l38.564,22.256Z" transform="translate(621.616 56.729)" fill="#ebedca"/>
        <path id="Caminho_8797" data-name="Caminho 8797" d="M-381.476,213.351-420.04,191.3V142.77l38.564,22.256Z" transform="translate(621.616 56.729)" opacity="0.3" style="isolation: isolate"/>
        <path id="Caminho_8798" data-name="Caminho 8798" d="M-277.252,111.5-381.51,171.923l-38.53-22.244,103.9-60.639Z" transform="translate(621.616 49.82)" fill="#ebedca"/>
        <path id="Caminho_8799" data-name="Caminho 8799" d="M-263.234,190.633-483.95,63.194-380.222,3.3l220.728,127.439Z" transform="translate(613.398 38.796)" fill="#b9cc00"/>
        <ellipse id="Elipse_39" data-name="Elipse 39" cx="42.254" cy="24.276" rx="42.254" ry="24.276" transform="matrix(0.998, -0.06, 0.06, 0.998, 248.03, 114.088)" fill="#839100"/>
        <path id="Caminho_8800" data-name="Caminho 8800" d="M-381.018,10.78-471,62.74l205.243,118.5,89.993-51.915Zm102.7,154.3L-441.905,70.662c4.853-4.74,4.514-10.744-.914-15.326l48.213-27.842a40.472,40.472,0,0,0,26.454-.418L-205.129,121.2c-5.643,4.842-5.643,11.286.135,16.071l-48.19,27.842a40.762,40.762,0,0,0-25.19-.034Z" transform="translate(615.063 39.758)" fill="#839100"/>
        <ellipse id="Elipse_40" data-name="Elipse 40" cx="9.57" cy="5.519" rx="9.57" ry="5.519" transform="translate(222.387 96.369)" fill="#839100"/>
        <ellipse id="Elipse_41" data-name="Elipse 41" cx="9.57" cy="5.519" rx="9.57" ry="5.519" transform="translate(339.657 164.073)" fill="#839100"/>
        <path id="Caminho_8801" data-name="Caminho 8801" d="M-340.952,94.133c1.208-.7,1.828-1.445,1.873-2.257a5.223,5.223,0,0,0-1.433-3.115,26.748,26.748,0,0,1-2.359-3.386,6.9,6.9,0,0,1-.937-2.923,4.268,4.268,0,0,1,.779-2.7,9.133,9.133,0,0,1,3.047-2.562,16.736,16.736,0,0,1,8.51-2.156,21.287,21.287,0,0,1,9.141,2.054l4.729-2.731,3.532,2.043-4.8,2.776c2.257,1.715,3.194,3.521,2.867,5.417s-1.93,3.668-4.808,5.327l-6.444-3.736c1.772-1.016,2.731-2,2.878-2.923s-.384-1.738-1.614-2.449a7.386,7.386,0,0,0-3.837-1.027,7.8,7.8,0,0,0-3.837,1.061c-1.129.655-1.693,1.354-1.727,2.122a6.216,6.216,0,0,0,1.535,3.3,25.242,25.242,0,0,1,2.347,3.657,6.491,6.491,0,0,1,.756,2.889,4.514,4.514,0,0,1-.914,2.6,9.267,9.267,0,0,1-2.9,2.393,16.623,16.623,0,0,1-8.453,2.167,21.445,21.445,0,0,1-9.221-2.133l-4.4,2.539-3.521-2.031,4.379-2.528q-4.041-2.9-3.8-5.9.254-3.013,4.785-5.643l6.388,3.69c-1.761,1-2.686,2.02-2.788,3.047s.632,1.986,2.189,2.889a8.552,8.552,0,0,0,4.108,1.129A7.2,7.2,0,0,0-340.952,94.133Z" transform="translate(629.315 47.933)" fill="#a2c900"/>
        <path id="Caminho_8802" data-name="Caminho 8802" d="M-263.234,231.978-483.95,104.528V56.36l220.716,127.45Z" transform="translate(613.398 45.618)" fill="#b9cc00"/>
        <path id="Caminho_8803" data-name="Caminho 8803" d="M-263.234,231.978-483.95,104.528V56.36l220.716,127.45Z" transform="translate(613.398 45.618)" opacity="0.4" style="isolation: isolate"/>
        <path id="Caminho_8804" data-name="Caminho 8804" d="M-184.641,164.389-288.38,224.283V176.1l103.739-59.894Z" transform="translate(638.544 53.314)" fill="#b9cc00"/>
        <path id="Caminho_8805" data-name="Caminho 8805" d="M-184.641,164.389-288.38,224.283V176.1l103.739-59.894Z" transform="translate(638.544 53.314)" opacity="0.25" style="isolation: isolate"/>
        <path id="Caminho_8806" data-name="Caminho 8806" d="M-369.118,170.521l-38.552-22.052V99.94l38.552,22.256Z" transform="translate(623.206 51.222)" fill="#ebedca"/>
        <path id="Caminho_8807" data-name="Caminho 8807" d="M-369.118,170.521l-38.552-22.052V99.94l38.552,22.256Z" transform="translate(623.206 51.222)" opacity="0.4" style="isolation: isolate"/>
        <path id="Caminho_8808" data-name="Caminho 8808" d="M-264.882,68.669l-104.269,60.424-38.518-22.244L-303.784,46.21Z" transform="translate(623.206 44.313)" fill="#ebedca"/>
        <path id="Caminho_8809" data-name="Caminho 8809" d="M-272.742,153.322-493.47,25.894-389.731-34-169.015,93.439Z" transform="translate(612.174 34)" fill="#b9cc00"/>
        <ellipse id="Elipse_42" data-name="Elipse 42" cx="42.254" cy="24.276" rx="42.254" ry="24.276" transform="matrix(0.998, -0.06, 0.06, 0.998, 237.292, 71.971)" opacity="0.35" style="isolation: isolate"/>
        <path id="Caminho_8810" data-name="Caminho 8810" d="M-390.527-26.52-480.52,25.395l205.232,118.5,89.993-51.915Zm102.7,154.3-163.6-94.417c4.864-4.74,4.571-10.755-.9-15.326l48.213-27.842a40.552,40.552,0,0,0,26.454-.418l163.023,94.112c-5.643,4.853-5.643,11.286.124,16.071L-262.738,127.8a40.81,40.81,0,0,0-25.145-.023Z" transform="translate(613.839 34.962)" opacity="0.35" style="isolation: isolate"/>
        <ellipse id="Elipse_43" data-name="Elipse 43" cx="9.57" cy="5.519" rx="9.57" ry="5.519" transform="translate(211.654 54.262)" opacity="0.35" style="isolation: isolate"/>
        <ellipse id="Elipse_44" data-name="Elipse 44" cx="9.57" cy="5.519" rx="9.57" ry="5.519" transform="translate(328.913 121.966)" opacity="0.35" style="isolation: isolate"/>
        <path id="Caminho_8811" data-name="Caminho 8811" d="M-350.473,56.84c1.208-.7,1.84-1.445,1.885-2.257a5.177,5.177,0,0,0-1.445-3.115,27.3,27.3,0,0,1-2.347-3.386,6.871,6.871,0,0,1-.948-2.923,4.273,4.273,0,0,1,.79-2.7A8.823,8.823,0,0,1-349.5,39.9a16.692,16.692,0,0,1,8.521-2.156,21.051,21.051,0,0,1,9.13,2.054l4.695-2.8,3.532,2.043-4.8,2.765q3.386,2.6,2.867,5.428c-.339,1.885-1.941,3.668-4.819,5.327l-6.388-3.69c1.772-1.027,2.731-2,2.878-2.923s-.395-1.749-1.614-2.449a7.317,7.317,0,0,0-3.837-1.027,7.654,7.654,0,0,0-3.837,1.061c-1.129.643-1.7,1.354-1.727,2.122a6.069,6.069,0,0,0,1.535,3.284,27.184,27.184,0,0,1,2.347,3.668,6.285,6.285,0,0,1,.745,2.889,4.315,4.315,0,0,1-.9,2.584,9.17,9.17,0,0,1-2.912,2.415,16.481,16.481,0,0,1-8.442,2.178,21.444,21.444,0,0,1-9.22-2.133l-4.4,2.539-3.521-2.031,4.379-2.528q-4.041-2.89-3.8-5.914t4.774-5.643l6.4,3.69c-1.761,1.016-2.686,2.031-2.788,3.058s.621,1.975,2.189,2.878a8.416,8.416,0,0,0,4.1,1.129A7.34,7.34,0,0,0-350.473,56.84Z" transform="translate(628.092 43.129)" fill="#b9cc00"/>
        <path id="Caminho_8812" data-name="Caminho 8812" d="M-272.754,194.68-493.47,67.229V19.05L-272.754,146.5Z" transform="translate(612.174 40.821)" fill="#b9cc00"/>
        <path id="Caminho_8813" data-name="Caminho 8813" d="M-272.754,194.68-493.47,67.229V19.05L-272.754,146.5Z" transform="translate(612.174 40.821)" opacity="0.3" style="isolation: isolate"/>
        <path id="Caminho_8814" data-name="Caminho 8814" d="M-194.161,127.078-297.9,186.972V138.8L-194.161,78.91Z" transform="translate(637.32 48.518)" fill="#b9cc00"/>
        <path id="Caminho_8815" data-name="Caminho 8815" d="M-194.161,127.078-297.9,186.972V138.8L-194.161,78.91Z" transform="translate(637.32 48.518)" opacity="0.15" style="isolation: isolate"/>
        <path id="Caminho_8816" data-name="Caminho 8816" d="M-374.888,135.911l-38.552-22.052V65.33l38.552,22.256Z" transform="translate(622.464 46.772)" fill="#ebedca"/>
        <path id="Caminho_8817" data-name="Caminho 8817" d="M-374.888,135.911l-38.552-22.052V65.33l38.552,22.256Z" transform="translate(622.464 46.772)" opacity="0.3" style="isolation: isolate"/>
        <path id="Caminho_8818" data-name="Caminho 8818" d="M-270.652,34.059-374.922,94.483-413.44,72.239-309.554,11.6Z" transform="translate(622.464 39.863)" fill="#ebedca"/>
        <path id="Caminho_8819" data-name="Caminho 8819" d="M-66.035,283.512-286.762,410.952-390.49,351.058-169.774,223.63Z" transform="translate(625.415 67.126)" fill="#b9cc00"/>
        <ellipse id="Elipse_45" data-name="Elipse 45" cx="24.276" cy="42.254" rx="24.276" ry="42.254" transform="translate(353.516 406.105) rotate(-86.54)" opacity="0.35" style="isolation: isolate"/>
        <path id="Caminho_8820" data-name="Caminho 8820" d="M-377.54,349.591l89.993,51.915L-82.315,283l-89.993-51.915Zm267.259-59.25-163.531,94.417a40.486,40.486,0,0,0-26.555.519l-48.224-27.831c4.875-4.717,4.65-10.7-.722-15.281l163.023-94.112a40.35,40.35,0,0,0,27.831-.079l48.224,27.842c-4.6,4.458-4.616,10.044-.045,14.525Z" transform="translate(627.08 68.085)" opacity="0.35" style="isolation: isolate"/>
        <ellipse id="Elipse_46" data-name="Elipse 46" cx="9.57" cy="5.519" rx="9.57" ry="5.519" transform="translate(328.902 413.365)" opacity="0.35" style="isolation: isolate"/>
        <ellipse id="Elipse_47" data-name="Elipse 47" cx="9.57" cy="5.519" rx="9.57" ry="5.519" transform="translate(446.173 345.661)" opacity="0.35" style="isolation: isolate"/>
        <path id="Caminho_8821" data-name="Caminho 8821" d="M-233.16,310.084a7.9,7.9,0,0,0-3.894-1.129,20.656,20.656,0,0,0-5.395.835q-3.318.868-5.959,1.354a31.428,31.428,0,0,1-5.056.542,19.558,19.558,0,0,1-4.684-.451,15.8,15.8,0,0,1-4.424-1.761q-3.736-2.145-3.747-4.909t3.566-5.282l-4.729-2.731,3.532-2.043,4.8,2.81a20.258,20.258,0,0,1,9.39-1.659,20.591,20.591,0,0,1,9.232,2.788l-6.388,3.69a11.524,11.524,0,0,0-5.067-1.659,7.511,7.511,0,0,0-4.243.937c-1.208.7-1.806,1.433-1.783,2.257s.643,1.524,1.851,2.257a7.513,7.513,0,0,0,3.668.993,24.8,24.8,0,0,0,5.7-.892q3.7-.914,6.343-1.354a29.225,29.225,0,0,1,5-.429,19.361,19.361,0,0,1,4.514.519,15.525,15.525,0,0,1,4.142,1.682q3.77,2.167,3.769,4.875c0,1.806-1.241,3.578-3.7,5.327l4.4,2.539-3.51,2.031-4.379-2.528a22.644,22.644,0,0,1-10.247,2.2,20.327,20.327,0,0,1-9.751-2.765l6.388-3.69a11.379,11.379,0,0,0,5.293,1.614,9.228,9.228,0,0,0,5-1.264c1.3-.756,1.975-1.546,2.043-2.37S-231.952,310.762-233.16,310.084Z" transform="translate(641.232 76.24)" fill="#b9cc00"/>
        <path id="Caminho_8822" data-name="Caminho 8822" d="M-286.762,434.847-390.49,374.9V336.48l103.728,59.961Z" transform="translate(625.415 81.636)" fill="#b9cc00"/>
        <path id="Caminho_8823" data-name="Caminho 8823" d="M-286.762,434.847-390.49,374.9V336.48l103.728,59.961Z" transform="translate(625.415 81.636)" opacity="0.3" style="isolation: isolate"/>
        <path id="Caminho_8824" data-name="Caminho 8824" d="M-77.852,315.046l-220.728,127.5V404.136l220.728-127.5Z" transform="translate(637.233 73.942)" fill="#b9cc00"/>
        <path id="Caminho_8825" data-name="Caminho 8825" d="M-77.852,315.046l-220.728,127.5V404.136l220.728-127.5Z" transform="translate(637.233 73.942)" opacity="0.15" style="isolation: isolate"/>
      </g>
    </g>
  </g>
</svg>
